<svg xmlns="http://www.w3.org/2000/svg" xmlns:xlink="http://www.w3.org/1999/xlink" width="67" zoomAndPan="magnify" viewBox="0 0 50.25 50.249998" height="67" preserveAspectRatio="xMidYMid meet" version="1.0"><defs><clipPath id="ae74e2db79"><path d="M 0 0 L 49.511719 0 L 49.511719 49.511719 L 0 49.511719 Z M 0 0 " clip-rule="nonzero"/></clipPath><clipPath id="c82699d378"><path d="M 6 29 L 20 29 L 20 37.683594 L 6 37.683594 Z M 6 29 " clip-rule="nonzero"/></clipPath><clipPath id="e706a8eae0"><path d="M 29.113281 30.164062 L 42.085938 30.164062 L 42.085938 37.664062 L 29.113281 37.664062 Z M 29.113281 30.164062 " clip-rule="nonzero"/></clipPath><clipPath id="9aeb52f347"><path d="M 6 25 L 12 25 L 12 37.683594 L 6 37.683594 Z M 6 25 " clip-rule="nonzero"/></clipPath><clipPath id="ce711e2639"><path d="M 15 29 L 20 29 L 20 37.683594 L 15 37.683594 Z M 15 29 " clip-rule="nonzero"/></clipPath><clipPath id="f6443c6867"><path d="M 29 29 L 34 29 L 34 37.683594 L 29 37.683594 Z M 29 29 " clip-rule="nonzero"/></clipPath><clipPath id="444cd43d69"><path d="M 39 30 L 43 30 L 43 37.683594 L 39 37.683594 Z M 39 30 " clip-rule="nonzero"/></clipPath><clipPath id="e03880b153"><path d="M 29.804688 33.730469 L 30.398438 33.730469 L 30.398438 37.664062 L 29.804688 37.664062 Z M 29.804688 33.730469 " clip-rule="nonzero"/></clipPath><clipPath id="54c5223b8a"><path d="M 37.53125 34.222656 L 37.925781 34.222656 L 37.925781 37.664062 L 37.53125 37.664062 Z M 37.53125 34.222656 " clip-rule="nonzero"/></clipPath><clipPath id="78e5374624"><path d="M 28 11.820312 L 38 11.820312 L 38 19 L 28 19 Z M 28 11.820312 " clip-rule="nonzero"/></clipPath><clipPath id="60ee553b32"><path d="M 38 15 L 49.511719 15 L 49.511719 23 L 38 23 Z M 38 15 " clip-rule="nonzero"/></clipPath><clipPath id="1d1e191688"><path d="M 46 16 L 49.511719 16 L 49.511719 22 L 46 22 Z M 46 16 " clip-rule="nonzero"/></clipPath><clipPath id="fdb5e7cc55"><path d="M 17 33 L 19 33 L 19 37.683594 L 17 37.683594 Z M 17 33 " clip-rule="nonzero"/></clipPath><clipPath id="fcfca79311"><path d="M 11 34 L 12 34 L 12 37.683594 L 11 37.683594 Z M 11 34 " clip-rule="nonzero"/></clipPath><clipPath id="f41352c1af"><path d="M 19.234375 16 L 22 16 L 22 18.433594 L 19.234375 18.433594 Z M 19.234375 16 " clip-rule="nonzero"/></clipPath><clipPath id="ac5b77d670"><path d="M 23 15 L 24.410156 15 L 24.410156 16 L 23 16 Z M 23 15 " clip-rule="nonzero"/></clipPath><clipPath id="f966b0bb7c"><path d="M 19.234375 14 L 22 14 L 22 16 L 19.234375 16 Z M 19.234375 14 " clip-rule="nonzero"/></clipPath><clipPath id="672570d19e"><path d="M 22 14 L 24.410156 14 L 24.410156 16 L 22 16 Z M 22 14 " clip-rule="nonzero"/></clipPath><clipPath id="6ac998ace6"><path d="M 19.234375 14 L 21 14 L 21 16 L 19.234375 16 Z M 19.234375 14 " clip-rule="nonzero"/></clipPath><clipPath id="130df91063"><path d="M 19.234375 16 L 21 16 L 21 18 L 19.234375 18 Z M 19.234375 16 " clip-rule="nonzero"/></clipPath><clipPath id="455e7b9c5a"><path d="M 22 16 L 24 16 L 24 18.433594 L 22 18.433594 Z M 22 16 " clip-rule="nonzero"/></clipPath><clipPath id="911568313a"><path d="M 22 15 L 24.410156 15 L 24.410156 16 L 22 16 Z M 22 15 " clip-rule="nonzero"/></clipPath><clipPath id="f3a3644335"><path d="M 19.234375 14 L 20 14 L 20 15 L 19.234375 15 Z M 19.234375 14 " clip-rule="nonzero"/></clipPath><clipPath id="a83419a0d7"><path d="M 19.234375 14 L 22 14 L 22 16 L 19.234375 16 Z M 19.234375 14 " clip-rule="nonzero"/></clipPath><clipPath id="a93c357389"><path d="M 19.234375 14 L 24 14 L 24 18.433594 L 19.234375 18.433594 Z M 19.234375 14 " clip-rule="nonzero"/></clipPath></defs><g clip-path="url(#ae74e2db79)"><path fill="#ffffff" d="M 0 0 L 49.511719 0 L 49.511719 49.511719 L 0 49.511719 Z M 0 0 " fill-opacity="1" fill-rule="nonzero"/><path fill="#ffffff" d="M 0 0 L 49.511719 0 L 49.511719 49.511719 L 0 49.511719 Z M 0 0 " fill-opacity="1" fill-rule="nonzero"/></g><g clip-path="url(#c82699d378)"><path fill="#4291ca" d="M 9.839844 29.953125 L 16.128906 30.363281 C 16.128906 30.363281 17.707031 31.277344 18.046875 32.046875 C 18.390625 32.816406 18.761719 33.773438 19.03125 34.78125 C 19.390625 36.128906 19.597656 37.457031 19.597656 37.457031 L 6.714844 37.449219 C 6.714844 37.449219 6.699219 36.847656 6.722656 36.027344 C 6.742188 35.367188 6.75 34.585938 7.097656 33.746094 C 7.410156 32.996094 7.640625 32.449219 8.128906 31.808594 C 8.863281 30.851562 9.839844 29.953125 9.839844 29.953125 " fill-opacity="1" fill-rule="evenodd"/></g><g clip-path="url(#e706a8eae0)"><path fill="#fb5341" d="M 32.367188 30.648438 L 36.660156 30.234375 L 39.058594 30.558594 C 39.058594 30.558594 39.144531 30.726562 39.507812 30.972656 C 39.875 31.21875 40.34375 31.5 40.691406 31.824219 C 41.039062 32.148438 41.226562 32.351562 41.449219 32.792969 C 41.667969 33.234375 41.71875 33.371094 41.828125 33.964844 C 41.941406 34.5625 41.890625 34.996094 41.941406 35.539062 C 41.992188 36.082031 42.035156 37.636719 42.035156 37.636719 L 29.171875 37.664062 C 29.171875 37.664062 29.246094 36.21875 29.230469 35.632812 C 29.214844 35.046875 29.238281 33.914062 29.359375 33.429688 C 29.476562 32.945312 29.792969 32.25 30.03125 31.96875 C 30.265625 31.6875 30.820312 31.363281 31.082031 31.238281 C 31.347656 31.109375 31.585938 31.03125 31.910156 30.847656 C 32.230469 30.660156 32.367188 30.648438 32.367188 30.648438 " fill-opacity="1" fill-rule="evenodd"/></g><path fill="#ffe4ce" d="M 30.335938 19.957031 L 32.039062 19.746094 C 32.039062 19.746094 35.445312 21.910156 36 22.328125 C 36.289062 22.539062 36.210938 23.648438 36.097656 24.03125 C 36 24.378906 35.808594 24.550781 35.808594 24.550781 C 35.808594 24.550781 36.019531 25.066406 36.289062 25.371094 C 36.554688 25.679688 36.902344 25.792969 36.902344 25.792969 C 36.902344 25.792969 37.5625 28.890625 36.761719 30.292969 C 36.578125 30.617188 35.925781 31.171875 35.1875 31.679688 C 34.359375 32.25 33.429688 32.640625 32.976562 32.515625 C 32.746094 32.453125 32.375 32.148438 32.355469 31.429688 C 32.351562 31.230469 32.285156 30.765625 32.441406 30.625 C 32.582031 30.492188 32.753906 30.394531 32.957031 30.242188 C 33.152344 30.09375 33.382812 29.890625 33.382812 29.859375 C 33.394531 29.113281 32.742188 27.847656 32.722656 27.796875 C 32.492188 27.320312 30.835938 27.878906 30.472656 27.515625 C 30.089844 27.113281 30.03125 26.730469 29.957031 26.253906 C 29.859375 25.699219 29.746094 24.988281 29.726562 24.914062 C 29.574219 24.339844 29.265625 24.359375 29.285156 23.917969 C 29.304688 23.574219 29.957031 23.457031 29.992188 23.132812 C 30.050781 22.347656 29.859375 21.601562 29.957031 21.085938 C 29.992188 20.761719 30.148438 20.109375 30.335938 19.957031 " fill-opacity="1" fill-rule="evenodd"/><path fill="#ffbca9" d="M 29.878906 20.300781 C 29.878906 20.300781 30.605469 19.671875 31.371094 20.148438 C 31.8125 20.4375 32.671875 21.890625 32.960938 22.101562 C 33.359375 22.386719 33.6875 22.769531 33.6875 22.769531 C 33.6875 22.769531 35.273438 22.695312 35.140625 22.730469 C 35.121094 22.730469 34.816406 23.210938 34.222656 23.441406 C 33.726562 23.632812 32.941406 23.613281 32.632812 23.324219 C 32.039062 22.710938 31.964844 21.46875 31.3125 20.644531 C 30.683594 19.84375 29.878906 20.300781 29.878906 20.300781 " fill-opacity="1" fill-rule="evenodd"/><path fill="#ffbca9" d="M 31.226562 27.632812 C 31.226562 27.632812 31.984375 27.535156 32.804688 27.34375 C 33.09375 27.265625 33.417969 27.152344 33.707031 27.019531 C 34.070312 26.84375 33.972656 27.152344 33.515625 27.6875 C 33.285156 27.957031 32.96875 28.230469 32.96875 28.230469 C 32.96875 28.230469 32.992188 27.972656 32.628906 27.683594 C 32.382812 27.492188 31.226562 27.632812 31.226562 27.632812 " fill-opacity="1" fill-rule="evenodd"/><path fill="#ffaaa9" d="M 30.664062 23.859375 C 30.664062 24.128906 31.085938 24.128906 31.21875 24.128906 C 31.503906 24.128906 31.8125 23.976562 31.847656 23.765625 C 31.886719 23.554688 31.503906 23.441406 31.238281 23.457031 C 30.988281 23.476562 30.644531 23.574219 30.664062 23.859375 " fill-opacity="1" fill-rule="evenodd"/><path fill="#ffaaa9" d="M 29.226562 23.996094 C 29.226562 23.785156 29.609375 23.59375 29.785156 23.457031 C 29.9375 23.34375 30.011719 23.441406 29.957031 23.785156 C 29.9375 23.996094 29.746094 24.320312 29.535156 24.320312 C 29.324219 24.320312 29.226562 24.203125 29.226562 23.996094 " fill-opacity="1" fill-rule="evenodd"/><path fill="#4a3e3e" d="M 30.242188 18.808594 C 30.546875 18.65625 31.101562 18.484375 31.484375 18.386719 C 32.023438 18.253906 32.710938 17.890625 33.285156 17.832031 C 34.164062 17.71875 35.082031 17.660156 35.617188 17.871094 C 36.15625 18.082031 36.84375 18.292969 37.339844 18.617188 C 37.839844 18.941406 38.335938 20.53125 38.335938 20.53125 C 38.335938 20.53125 38.699219 21.679688 39.253906 23.152344 C 39.523438 23.839844 40.25 24.433594 40.5 25.316406 C 40.574219 25.601562 40.671875 25.984375 40.171875 26.617188 C 39.980469 26.863281 39.554688 27.4375 39.476562 27.703125 C 39.476562 27.722656 39.644531 28.1875 40.066406 28.476562 C 40.722656 28.925781 41.78125 29.363281 42.164062 30.21875 C 42.359375 30.652344 42.339844 31.292969 42.195312 31.753906 C 42.09375 32.070312 41.878906 32.277344 41.734375 32.464844 C 41.617188 32.621094 41.566406 32.78125 41.492188 32.847656 C 41.410156 32.925781 41.085938 32.167969 40.566406 31.730469 C 40.316406 31.519531 39.039062 30.53125 39.039062 30.53125 C 39.039062 30.53125 38.230469 30.621094 37.570312 30.503906 C 37.023438 30.410156 36.609375 30.121094 36.515625 30.050781 C 36.183594 29.792969 35.78125 29.277344 35.613281 28.554688 C 35.386719 27.5625 35.617188 26.503906 35.628906 25.714844 C 35.632812 25.242188 35.390625 24.75 35.390625 24.75 C 35.390625 24.75 35.828125 24.585938 36 24.1875 C 36.136719 23.839844 36.210938 23.285156 35.90625 22.921875 C 35.636719 22.578125 35.027344 22.941406 34.414062 22.980469 C 33.992188 23 33.496094 22.695312 33.496094 22.695312 L 33.839844 23.613281 L 34.296875 24.242188 C 34.296875 24.242188 33.152344 23.726562 32.710938 22.789062 C 32.328125 21.984375 32.003906 20.742188 31.332031 20.246094 C 30.703125 19.765625 30.164062 20.570312 30.03125 20.894531 C 29.992188 20.992188 29.859375 21.390625 29.878906 21.832031 C 29.898438 22.253906 30.03125 22.710938 29.9375 23.25 C 29.878906 23.574219 29.210938 23.648438 29.226562 24.015625 C 29.226562 24.261719 29.628906 24.796875 29.648438 25.027344 C 29.746094 25.851562 30.109375 27.152344 30.222656 27.398438 C 30.5 27.765625 31.816406 27.464844 32.503906 27.621094 C 33 27.734375 33.386719 29.90625 33.386719 29.90625 C 33.386719 29.90625 33.046875 30.203125 32.722656 30.398438 C 32.167969 30.734375 31.449219 31.070312 31.074219 31.234375 C 31.027344 31.261719 30.347656 31.519531 29.910156 32.089844 C 29.484375 32.648438 29.296875 33.511719 29.269531 34.289062 C 29.265625 34.398438 28.863281 34.457031 28.546875 34.234375 C 28.273438 34.039062 28.085938 33.582031 28.023438 33.378906 C 27.960938 33.171875 28.179688 33.558594 28.492188 33.589844 C 28.65625 33.609375 28.964844 33.308594 29.019531 33.242188 C 29.074219 33.175781 29.15625 32.878906 29.039062 32.699219 C 28.875 32.453125 28.476562 32.324219 28.429688 32.300781 C 27.898438 32.0625 27.757812 31.8125 27.667969 31.585938 C 27.554688 31.3125 27.472656 30.855469 27.769531 30.363281 C 28.105469 29.796875 28.9375 29.410156 29.378906 28.953125 C 29.71875 28.605469 29.714844 28.117188 29.738281 28.046875 C 29.679688 27.664062 29.304688 27.535156 28.75 27.152344 C 28.328125 26.863281 27.925781 26.691406 27.8125 26.195312 C 27.5625 25.125 28.328125 24.414062 28.65625 23.058594 C 28.902344 22.0625 28.828125 21.011719 29.285156 20.035156 C 29.535156 19.441406 29.726562 19.078125 30.242188 18.808594 " fill-opacity="1" fill-rule="evenodd"/><path fill="#362d2d" d="M 37.820312 22.503906 C 37.875 22.675781 37.953125 22.695312 37.972656 23.019531 C 37.992188 23.34375 38.125 23.59375 38.335938 23.476562 C 38.46875 23.402344 38.507812 23.25 38.433594 23.039062 C 38.394531 22.902344 38.316406 22.730469 38.222656 22.597656 C 37.933594 22.195312 37.761719 22.328125 37.820312 22.503906 " fill-opacity="1" fill-rule="evenodd"/><path fill="#362d2d" d="M 37.398438 22.597656 C 37.378906 22.65625 37.417969 22.75 37.4375 22.941406 C 37.457031 23.132812 37.378906 23.324219 37.476562 23.457031 C 37.53125 23.574219 37.742188 23.515625 37.800781 23.363281 C 37.875 23.152344 37.742188 22.789062 37.648438 22.617188 C 37.570312 22.519531 37.4375 22.464844 37.398438 22.597656 " fill-opacity="1" fill-rule="evenodd"/><path fill="#7d6667" d="M 34.949219 18.808594 C 34.683594 18.75 34.414062 18.808594 34.414062 18.925781 C 34.433594 19.019531 34.644531 19 34.871094 19.078125 C 35.101562 19.152344 35.21875 19.308594 35.3125 19.210938 C 35.410156 19.058594 35.238281 18.867188 34.949219 18.808594 " fill-opacity="1" fill-rule="evenodd"/><path fill="#c15251" d="M 30.328125 25.355469 C 30.625 25.316406 31.527344 25.28125 31.550781 25.308594 C 31.636719 25.402344 31.378906 26.191406 30.414062 26 L 30.328125 25.355469 " fill-opacity="1" fill-rule="evenodd"/><path fill="#926359" d="M 15.671875 17.914062 C 15.671875 17.914062 13.34375 17.152344 11.761719 18.402344 C 11.644531 18.5 11.488281 18.5 11.273438 18.519531 C 10.960938 18.558594 10.667969 18.558594 10.257812 19.046875 C 9.574219 19.867188 9.242188 20.574219 9.101562 21.179688 C 8.988281 21.707031 9.027344 22.117188 9.027344 22.117188 L 9.515625 22.722656 C 9.515625 22.722656 9.515625 23.074219 9.710938 23.523438 C 9.925781 24.03125 10.335938 24.539062 10.511719 24.792969 C 10.824219 25.261719 10.980469 25.789062 11.3125 25.964844 L 11.683594 26.160156 L 13.1875 26.003906 L 18.289062 22.390625 C 18.289062 22.390625 18.464844 22.039062 18.679688 21.726562 C 18.816406 21.53125 19.148438 21.238281 19.265625 21.023438 C 19.441406 20.691406 19.363281 20.574219 19.304688 20.394531 C 19.207031 20.101562 18.640625 19.828125 18.445312 19.59375 C 18.25 19.359375 18.289062 18.96875 17.410156 18.578125 C 16.335938 18.089844 15.671875 17.914062 15.671875 17.914062 " fill-opacity="1" fill-rule="evenodd"/><path fill="#ffe4ce" d="M 17.039062 20.550781 C 16.609375 20.789062 16.277344 21.589844 15.828125 21.882812 C 15.183594 22.292969 14.59375 22.292969 14.515625 22.351562 C 14.417969 22.429688 14.085938 22.546875 13.929688 23.015625 C 13.8125 23.367188 13.714844 24.011719 13.65625 23.972656 C 13.363281 23.855469 13.089844 23.113281 13.089844 23.113281 C 13.089844 23.113281 12.445312 23.054688 12.210938 23.230469 C 11.917969 23.445312 11.9375 24.03125 12.054688 24.421875 C 12.152344 24.773438 12.386719 24.96875 12.386719 24.96875 C 12.386719 24.96875 12.230469 25.261719 11.996094 25.574219 C 11.761719 25.886719 11.351562 25.984375 11.351562 25.984375 C 11.351562 25.984375 11.34375 27.355469 10.96875 28.335938 C 10.59375 29.316406 9.855469 29.902344 9.855469 29.902344 C 9.855469 29.902344 10.175781 30.011719 10.585938 30.351562 C 11.085938 30.765625 11.753906 31.453125 12.511719 31.839844 C 13.148438 32.164062 13.902344 32.289062 14.386719 32.28125 C 14.8125 32.269531 15.304688 31.980469 15.546875 31.777344 C 15.941406 31.457031 15.949219 31.101562 15.992188 30.796875 C 16.015625 30.589844 16.121094 30.359375 16.121094 30.359375 L 15.238281 29.6875 C 15.238281 29.6875 15.550781 28.269531 15.5625 28.238281 C 15.796875 27.75 17.398438 28.25 17.769531 27.878906 C 18.160156 27.46875 18.230469 27.15625 18.308594 26.6875 C 18.40625 26.121094 18.523438 25.417969 18.523438 25.339844 C 18.679688 24.773438 18.972656 24.773438 18.972656 24.324219 C 18.953125 23.972656 18.289062 23.855469 18.269531 23.542969 C 18.210938 22.742188 18.40625 22.078125 18.308594 21.53125 C 18.191406 21.160156 18.074219 20.003906 17.039062 20.550781 " fill-opacity="1" fill-rule="evenodd"/><path fill="#ffbca9" d="M 16.726562 20.707031 C 16.726562 20.707031 16.453125 21.433594 15.90625 21.824219 C 15.355469 22.214844 14.691406 22.078125 14.476562 22.195312 C 14.105469 22.390625 13.890625 22.878906 13.96875 22.898438 C 14.007812 22.898438 15.042969 22.820312 15.847656 22.351562 C 16.667969 21.863281 16.726562 20.707031 16.726562 20.707031 " fill-opacity="1" fill-rule="evenodd"/><path fill="#ffbca9" d="M 16.746094 28.019531 C 16.746094 28.019531 16.277344 28.039062 15.4375 27.84375 C 15.144531 27.765625 14.828125 27.648438 14.515625 27.511719 C 14.144531 27.335938 14.242188 27.648438 14.710938 28.195312 C 14.949219 28.46875 15.410156 28.726562 15.410156 28.726562 C 15.410156 28.726562 15.363281 28.335938 15.734375 28.058594 C 15.851562 27.964844 16.746094 28.019531 16.746094 28.019531 " fill-opacity="1" fill-rule="evenodd"/><path fill="#ffaaa9" d="M 17.527344 24.246094 C 17.527344 24.519531 17.097656 24.519531 16.960938 24.519531 C 16.667969 24.519531 16.355469 24.363281 16.335938 24.148438 C 16.296875 23.953125 16.6875 23.816406 16.941406 23.835938 C 17.195312 23.875 17.546875 23.972656 17.527344 24.246094 " fill-opacity="1" fill-rule="evenodd"/><path fill="#ffaaa9" d="M 18.972656 24.382812 C 18.972656 24.167969 18.582031 23.992188 18.40625 23.855469 C 18.25 23.738281 18.191406 23.835938 18.230469 24.1875 C 18.25 24.402344 18.425781 24.714844 18.660156 24.714844 C 18.875 24.714844 18.972656 24.597656 18.972656 24.382812 " fill-opacity="1" fill-rule="evenodd"/><path fill="#68423a" d="M 10.492188 22.371094 C 10.550781 22.546875 10.492188 22.605469 10.667969 22.878906 C 10.84375 23.152344 10.882812 23.445312 10.628906 23.484375 C 10.472656 23.503906 10.355469 23.386719 10.277344 23.171875 C 10.238281 23.035156 10.199219 22.859375 10.199219 22.683594 C 10.21875 22.175781 10.433594 22.195312 10.492188 22.371094 " fill-opacity="1" fill-rule="evenodd"/><path fill="#68423a" d="M 11.15625 23.035156 C 11.15625 22.976562 11.117188 22.898438 11.078125 22.703125 C 11.039062 22.527344 11.097656 22.332031 11 22.195312 C 10.921875 22.097656 10.726562 22.175781 10.6875 22.3125 C 10.648438 22.527344 10.804688 22.859375 10.921875 23.015625 C 11 23.152344 11.136719 23.191406 11.15625 23.035156 " fill-opacity="1" fill-rule="evenodd"/><path fill="#c1877b" d="M 13.636719 18.246094 C 13.96875 18.207031 14.28125 18.246094 14.242188 18.382812 C 14.203125 18.519531 13.949219 18.519531 13.65625 18.578125 C 13.363281 18.636719 13.167969 18.8125 13.089844 18.636719 C 13.03125 18.480469 13.304688 18.285156 13.636719 18.246094 " fill-opacity="1" fill-rule="evenodd"/><path fill="#c1877b" d="M 13.695312 18.792969 C 13.96875 18.734375 14.242188 18.753906 14.203125 18.871094 C 14.183594 18.988281 13.96875 19.007812 13.734375 19.066406 C 13.5 19.125 13.34375 19.28125 13.265625 19.144531 C 13.207031 19.027344 13.421875 18.851562 13.695312 18.792969 " fill-opacity="1" fill-rule="evenodd"/><path fill="#c15251" d="M 17.78125 25.714844 C 17.488281 25.675781 16.582031 25.640625 16.558594 25.667969 C 16.476562 25.761719 16.730469 26.554688 17.695312 26.359375 L 17.78125 25.714844 " fill-opacity="1" fill-rule="evenodd"/><path fill="#000000" d="M 34.945312 24.945312 C 34.933594 24.945312 34.921875 24.945312 34.910156 24.945312 C 34.859375 24.941406 34.820312 24.902344 34.824219 24.851562 C 34.824219 24.804688 34.863281 24.765625 34.914062 24.765625 C 35.234375 24.777344 35.507812 24.667969 35.710938 24.457031 C 35.945312 24.210938 36.054688 23.851562 36.027344 23.445312 C 36.007812 23.183594 35.929688 23 35.792969 22.902344 C 35.640625 22.792969 35.410156 22.777344 35.105469 22.855469 C 35.058594 22.867188 35.011719 22.839844 34.996094 22.792969 C 34.984375 22.746094 35.011719 22.695312 35.0625 22.683594 C 35.417969 22.589844 35.699219 22.613281 35.894531 22.757812 C 36.078125 22.886719 36.183594 23.117188 36.203125 23.433594 C 36.238281 23.890625 36.105469 24.296875 35.839844 24.578125 C 35.609375 24.816406 35.300781 24.945312 34.945312 24.945312 " fill-opacity="1" fill-rule="nonzero"/><path fill="#000000" d="M 35.101562 24.0625 C 35.09375 24.0625 35.082031 24.0625 35.074219 24.058594 C 35.027344 24.042969 35.003906 23.992188 35.019531 23.945312 C 35.128906 23.621094 35.355469 23.550781 35.363281 23.546875 C 35.410156 23.53125 35.460938 23.558594 35.472656 23.605469 C 35.488281 23.652344 35.460938 23.699219 35.414062 23.714844 C 35.40625 23.71875 35.265625 23.769531 35.1875 24.003906 C 35.175781 24.039062 35.140625 24.0625 35.101562 24.0625 " fill-opacity="1" fill-rule="nonzero"/><path fill="#000000" d="M 30.644531 23.09375 C 30.644531 22.902344 30.738281 22.730469 30.875 22.730469 C 31.007812 22.730469 31.121094 22.882812 31.121094 23.074219 C 31.121094 23.265625 31.027344 23.441406 30.894531 23.441406 C 30.757812 23.441406 30.644531 23.285156 30.644531 23.09375 " fill-opacity="1" fill-rule="evenodd"/><path fill="#000000" d="M 31.410156 21.960938 C 31.394531 21.960938 31.375 21.953125 31.363281 21.945312 C 31.09375 21.773438 30.785156 21.746094 30.53125 21.875 C 30.488281 21.894531 30.433594 21.878906 30.410156 21.832031 C 30.390625 21.789062 30.40625 21.738281 30.453125 21.714844 C 30.761719 21.558594 31.136719 21.589844 31.457031 21.796875 C 31.5 21.824219 31.511719 21.878906 31.484375 21.917969 C 31.46875 21.945312 31.4375 21.960938 31.410156 21.960938 " fill-opacity="1" fill-rule="nonzero"/><path fill="#000000" d="M 33.433594 30.53125 C 33.386719 30.53125 33.34375 30.492188 33.34375 30.445312 C 33.28125 28.894531 32.703125 27.820312 32.570312 27.753906 C 32.371094 27.683594 32.066406 27.699219 31.714844 27.71875 C 31.449219 27.734375 31.148438 27.753906 30.832031 27.738281 C 30.257812 27.695312 30.066406 27.34375 29.90625 26.714844 C 29.796875 26.207031 29.738281 25.835938 29.675781 25.363281 C 29.667969 25.316406 29.703125 25.273438 29.753906 25.265625 C 29.800781 25.257812 29.84375 25.292969 29.851562 25.339844 C 29.914062 25.808594 29.96875 26.175781 30.078125 26.671875 C 30.222656 27.246094 30.375 27.527344 30.84375 27.5625 C 31.148438 27.578125 31.445312 27.558594 31.703125 27.542969 C 32.074219 27.523438 32.394531 27.503906 32.632812 27.585938 C 32.867188 27.667969 33.457031 28.859375 33.519531 30.4375 C 33.523438 30.484375 33.484375 30.527344 33.4375 30.53125 C 33.433594 30.53125 33.433594 30.53125 33.433594 30.53125 " fill-opacity="1" fill-rule="nonzero"/><path fill="#000000" d="M 29.765625 25.460938 C 29.71875 25.460938 29.679688 25.425781 29.675781 25.378906 C 29.675781 25.375 29.636719 24.914062 29.53125 24.703125 C 29.496094 24.621094 29.441406 24.546875 29.378906 24.464844 C 29.277344 24.328125 29.160156 24.171875 29.160156 23.976562 C 29.144531 23.734375 29.316406 23.621094 29.488281 23.511719 C 29.5625 23.464844 29.636719 23.417969 29.703125 23.355469 C 29.851562 23.242188 29.902344 23.125 29.867188 22.679688 C 29.863281 22.632812 29.898438 22.589844 29.949219 22.585938 C 29.996094 22.582031 30.039062 22.617188 30.042969 22.667969 C 30.082031 23.132812 30.03125 23.324219 29.820312 23.492188 C 29.746094 23.558594 29.660156 23.613281 29.585938 23.660156 C 29.414062 23.769531 29.328125 23.832031 29.335938 23.96875 C 29.335938 24.109375 29.425781 24.230469 29.519531 24.359375 C 29.585938 24.445312 29.652344 24.53125 29.691406 24.628906 C 29.8125 24.867188 29.851562 25.34375 29.851562 25.363281 C 29.855469 25.414062 29.820312 25.457031 29.769531 25.460938 C 29.769531 25.460938 29.765625 25.460938 29.765625 25.460938 " fill-opacity="1" fill-rule="nonzero"/><path fill="#000000" d="M 29.957031 22.761719 C 29.910156 22.761719 29.871094 22.730469 29.867188 22.683594 C 29.8125 22.226562 29.75 21.703125 29.828125 21.1875 C 29.855469 20.945312 29.945312 20.6875 30.089844 20.429688 C 30.113281 20.386719 30.167969 20.371094 30.210938 20.398438 C 30.253906 20.421875 30.265625 20.472656 30.242188 20.515625 C 30.109375 20.753906 30.03125 20.988281 30.003906 21.210938 C 29.929688 21.707031 29.988281 22.214844 30.042969 22.664062 C 30.050781 22.710938 30.015625 22.757812 29.964844 22.761719 C 29.960938 22.761719 29.957031 22.761719 29.957031 22.761719 " fill-opacity="1" fill-rule="nonzero"/><path fill="#000000" d="M 31.332031 23.105469 C 31.304688 23.105469 31.28125 23.09375 31.261719 23.074219 C 31.097656 22.855469 30.792969 22.828125 30.640625 22.890625 C 30.59375 22.910156 30.542969 22.886719 30.523438 22.839844 C 30.503906 22.796875 30.527344 22.746094 30.574219 22.726562 C 30.8125 22.628906 31.195312 22.695312 31.402344 22.964844 C 31.433594 23.003906 31.425781 23.058594 31.386719 23.089844 C 31.371094 23.101562 31.351562 23.105469 31.332031 23.105469 " fill-opacity="1" fill-rule="nonzero"/><path fill="#000000" d="M 35.117188 24.375 C 34.742188 24.375 33.472656 24.265625 32.730469 22.910156 C 32.492188 22.484375 32.316406 22.035156 32.160156 21.636719 C 31.820312 20.757812 31.550781 20.066406 30.875 20.066406 C 30.867188 20.066406 30.863281 20.066406 30.855469 20.066406 C 30.804688 20.066406 30.765625 20.027344 30.765625 19.976562 C 30.765625 19.929688 30.804688 19.890625 30.851562 19.886719 C 31.664062 19.875 31.972656 20.660156 32.328125 21.570312 C 32.488281 21.984375 32.65625 22.410156 32.882812 22.824219 C 33.707031 24.320312 35.148438 24.199219 35.207031 24.191406 C 35.257812 24.1875 35.300781 24.222656 35.304688 24.273438 C 35.308594 24.320312 35.273438 24.363281 35.226562 24.371094 C 35.222656 24.371094 35.183594 24.375 35.117188 24.375 " fill-opacity="1" fill-rule="nonzero"/><path fill="#000000" d="M 34.816406 24.351562 C 34.804688 24.351562 34.796875 24.347656 34.789062 24.347656 C 33.71875 23.996094 33.480469 23.148438 33.3125 22.230469 C 33.296875 22.148438 33.28125 22.058594 33.265625 21.960938 C 33.183594 21.453125 33.078125 20.816406 32.75 20.269531 C 32.722656 20.226562 32.738281 20.175781 32.78125 20.148438 C 32.820312 20.125 32.875 20.136719 32.902344 20.179688 C 33.246094 20.757812 33.359375 21.4375 33.441406 21.933594 C 33.457031 22.027344 33.472656 22.117188 33.488281 22.199219 C 33.644531 23.058594 33.867188 23.859375 34.84375 24.179688 C 34.890625 24.191406 34.914062 24.242188 34.898438 24.289062 C 34.886719 24.328125 34.851562 24.351562 34.816406 24.351562 " fill-opacity="1" fill-rule="nonzero"/><path fill="#000000" d="M 34.320312 23.046875 C 33.890625 23.046875 33.527344 22.785156 33.378906 22.484375 C 33.355469 22.441406 33.375 22.386719 33.417969 22.363281 C 33.460938 22.34375 33.515625 22.359375 33.535156 22.40625 C 33.6875 22.707031 34.097656 22.960938 34.5625 22.835938 C 34.609375 22.824219 34.660156 22.851562 34.671875 22.898438 C 34.683594 22.949219 34.65625 22.996094 34.609375 23.007812 C 34.511719 23.035156 34.414062 23.046875 34.320312 23.046875 " fill-opacity="1" fill-rule="nonzero"/><path fill="#000000" d="M 39.617188 27.71875 C 39.578125 27.71875 39.539062 27.691406 39.53125 27.648438 C 39.464844 27.308594 39.65625 27.101562 39.839844 26.902344 C 39.890625 26.847656 39.941406 26.792969 39.988281 26.734375 C 40.328125 26.285156 40.527344 25.875 40.375 25.339844 C 40.261719 24.894531 40.019531 24.546875 39.761719 24.179688 C 39.503906 23.808594 39.238281 23.421875 39.054688 22.894531 C 38.820312 22.207031 38.683594 21.742188 38.570312 21.367188 C 38.390625 20.761719 38.273438 20.363281 37.910156 19.59375 C 37.121094 17.917969 34.515625 17.355469 31.976562 18.316406 C 31.929688 18.335938 31.878906 18.3125 31.863281 18.265625 C 31.84375 18.222656 31.867188 18.167969 31.914062 18.152344 C 34.539062 17.160156 37.242188 17.757812 38.070312 19.515625 C 38.441406 20.300781 38.558594 20.703125 38.742188 21.316406 C 38.851562 21.691406 38.988281 22.15625 39.222656 22.835938 C 39.398438 23.34375 39.65625 23.714844 39.910156 24.078125 C 40.175781 24.457031 40.425781 24.820312 40.546875 25.292969 C 40.726562 25.933594 40.453125 26.417969 40.128906 26.839844 C 40.078125 26.90625 40.023438 26.964844 39.96875 27.023438 C 39.800781 27.207031 39.65625 27.363281 39.703125 27.613281 C 39.714844 27.660156 39.683594 27.707031 39.636719 27.71875 C 39.628906 27.71875 39.625 27.71875 39.617188 27.71875 " fill-opacity="1" fill-rule="nonzero"/><path fill="#000000" d="M 29.285156 27.96875 C 29.285156 27.96875 29.285156 27.96875 29.28125 27.96875 C 29.234375 27.964844 29.195312 27.925781 29.195312 27.875 C 29.214844 27.421875 28.914062 27.214844 28.5625 26.96875 C 28.265625 26.761719 27.925781 26.527344 27.785156 26.109375 C 27.558594 25.414062 27.890625 24.714844 28.1875 24.101562 C 28.257812 23.949219 28.324219 23.808594 28.382812 23.671875 C 28.589844 23.179688 28.652344 22.613281 28.71875 22.019531 C 28.800781 21.316406 28.882812 20.589844 29.203125 19.882812 C 29.789062 18.589844 30.707031 18.414062 31.523438 18.414062 C 31.574219 18.414062 31.613281 18.453125 31.613281 18.503906 C 31.613281 18.550781 31.574219 18.589844 31.523438 18.589844 C 30.761719 18.589844 29.910156 18.753906 29.367188 19.957031 C 29.054688 20.640625 28.972656 21.351562 28.898438 22.039062 C 28.828125 22.648438 28.761719 23.222656 28.542969 23.742188 C 28.488281 23.882812 28.417969 24.023438 28.347656 24.175781 C 28.066406 24.761719 27.75 25.425781 27.953125 26.050781 C 28.074219 26.417969 28.375 26.625 28.664062 26.824219 C 29.023438 27.074219 29.398438 27.332031 29.375 27.882812 C 29.371094 27.929688 29.332031 27.96875 29.285156 27.96875 " fill-opacity="1" fill-rule="nonzero"/><path fill="#000000" d="M 11.433594 26.078125 C 11.328125 26.078125 11.230469 26.035156 11.148438 25.949219 C 10.992188 25.78125 10.910156 25.632812 10.808594 25.445312 C 10.6875 25.226562 10.535156 24.949219 10.1875 24.515625 C 9.695312 23.929688 9.53125 23.285156 9.484375 22.847656 C 9.480469 22.800781 9.515625 22.757812 9.5625 22.75 C 9.613281 22.746094 9.65625 22.78125 9.660156 22.828125 C 9.699219 23.167969 9.835938 23.820312 10.324219 24.402344 C 10.683594 24.851562 10.839844 25.132812 10.964844 25.359375 C 11.0625 25.542969 11.136719 25.675781 11.277344 25.828125 C 11.335938 25.890625 11.398438 25.910156 11.476562 25.898438 C 11.738281 25.847656 12.082031 25.378906 12.246094 24.976562 C 12.265625 24.929688 12.316406 24.90625 12.363281 24.925781 C 12.40625 24.945312 12.429688 24.996094 12.410156 25.042969 C 12.261719 25.402344 11.890625 26 11.507812 26.070312 C 11.484375 26.074219 11.457031 26.078125 11.433594 26.078125 " fill-opacity="1" fill-rule="nonzero"/><path fill="#000000" d="M 9.75 22.949219 C 9.738281 22.949219 9.730469 22.945312 9.71875 22.941406 C 9.707031 22.9375 8.648438 22.546875 9.078125 21.074219 C 9.484375 19.675781 10.398438 18.246094 11.734375 18.433594 C 11.785156 18.4375 11.816406 18.484375 11.808594 18.53125 C 11.804688 18.582031 11.757812 18.613281 11.710938 18.609375 C 10.484375 18.4375 9.632812 19.796875 9.246094 21.125 C 8.96875 22.082031 9.363281 22.515625 9.609375 22.683594 C 9.523438 22.285156 9.429688 21.394531 10.121094 20.796875 C 10.15625 20.765625 10.214844 20.769531 10.246094 20.808594 C 10.277344 20.84375 10.273438 20.898438 10.238281 20.933594 C 9.429688 21.628906 9.828125 22.816406 9.832031 22.832031 C 9.84375 22.863281 9.835938 22.898438 9.8125 22.921875 C 9.792969 22.9375 9.769531 22.949219 9.75 22.949219 " fill-opacity="1" fill-rule="nonzero"/><path fill="#000000" d="M 18.425781 19.839844 C 18.421875 19.839844 18.414062 19.839844 18.410156 19.839844 C 18.363281 19.828125 18.328125 19.785156 18.339844 19.734375 C 18.46875 19.042969 17.148438 18.53125 16.359375 18.226562 C 16.277344 18.191406 16.199219 18.164062 16.125 18.132812 C 14.851562 17.628906 12.527344 17.667969 12.132812 18.367188 C 12.109375 18.410156 12.054688 18.425781 12.011719 18.402344 C 11.96875 18.378906 11.953125 18.324219 11.976562 18.28125 C 12.460938 17.421875 14.945312 17.480469 16.191406 17.96875 C 16.261719 17.996094 16.339844 18.027344 16.425781 18.058594 C 17.316406 18.40625 18.667969 18.929688 18.511719 19.769531 C 18.503906 19.808594 18.46875 19.839844 18.425781 19.839844 " fill-opacity="1" fill-rule="nonzero"/><path fill="#000000" d="M 14.878906 22.25 C 14.304688 22.25 13.792969 22.035156 13.757812 22.023438 C 13.71875 22.003906 13.699219 21.960938 13.707031 21.917969 C 13.71875 21.875 13.757812 21.847656 13.800781 21.851562 C 13.871094 21.859375 15.480469 21.980469 15.996094 20.445312 C 16.011719 20.398438 16.0625 20.375 16.109375 20.390625 C 16.15625 20.40625 16.179688 20.457031 16.164062 20.503906 C 15.792969 21.605469 14.882812 21.917969 14.300781 22 C 14.703125 22.089844 15.277344 22.140625 15.699219 21.847656 C 16.128906 21.566406 16.335938 21.308594 16.546875 20.792969 C 16.695312 20.433594 16.90625 20.011719 17.230469 19.960938 C 17.40625 19.933594 17.582031 20.023438 17.75 20.222656 C 17.78125 20.257812 17.777344 20.316406 17.742188 20.347656 C 17.703125 20.378906 17.648438 20.375 17.617188 20.335938 C 17.488281 20.1875 17.367188 20.121094 17.257812 20.136719 C 16.992188 20.179688 16.777344 20.691406 16.710938 20.859375 C 16.484375 21.410156 16.253906 21.695312 15.796875 21.996094 C 15.519531 22.1875 15.191406 22.25 14.878906 22.25 " fill-opacity="1" fill-rule="nonzero"/><path fill="#000000" d="M 18.289062 22.574219 C 18.28125 22.574219 18.273438 22.574219 18.265625 22.574219 C 18.21875 22.5625 18.191406 22.511719 18.203125 22.464844 C 18.335938 21.953125 18.644531 21.632812 18.890625 21.375 C 19.015625 21.242188 19.132812 21.121094 19.210938 20.996094 C 19.417969 20.648438 19.128906 20.203125 18.75 19.960938 C 18.707031 19.9375 18.695312 19.882812 18.722656 19.839844 C 18.75 19.800781 18.804688 19.785156 18.84375 19.8125 C 19.304688 20.105469 19.628906 20.636719 19.363281 21.085938 C 19.277344 21.230469 19.152344 21.359375 19.019531 21.496094 C 18.773438 21.753906 18.496094 22.042969 18.375 22.511719 C 18.363281 22.550781 18.328125 22.574219 18.289062 22.574219 " fill-opacity="1" fill-rule="nonzero"/><path fill="#000000" d="M 13.851562 24.042969 C 13.84375 24.042969 13.839844 24.039062 13.832031 24.039062 C 13.824219 24.035156 13.085938 23.835938 13.003906 22.925781 C 12.996094 22.875 13.035156 22.832031 13.082031 22.828125 C 13.132812 22.824219 13.175781 22.859375 13.179688 22.910156 C 13.230469 23.464844 13.550781 23.710938 13.738281 23.808594 C 13.699219 23.527344 13.691406 22.929688 14.117188 22.410156 C 14.148438 22.375 14.203125 22.367188 14.242188 22.398438 C 14.277344 22.429688 14.285156 22.484375 14.253906 22.523438 C 13.742188 23.144531 13.9375 23.921875 13.9375 23.929688 C 13.945312 23.960938 13.9375 23.992188 13.914062 24.015625 C 13.898438 24.03125 13.875 24.042969 13.851562 24.042969 " fill-opacity="1" fill-rule="nonzero"/><path fill="#000000" d="M 14.097656 20.667969 C 14.039062 20.667969 13.984375 20.664062 13.921875 20.660156 C 13.875 20.65625 13.839844 20.613281 13.84375 20.566406 C 13.847656 20.515625 13.890625 20.480469 13.9375 20.484375 C 14.851562 20.558594 15.503906 19.953125 16.027344 19.46875 C 16.289062 19.226562 16.515625 19.015625 16.730469 18.925781 C 17.398438 18.667969 17.914062 19.472656 17.933594 19.507812 C 17.960938 19.550781 17.949219 19.605469 17.90625 19.628906 C 17.863281 19.65625 17.808594 19.644531 17.785156 19.601562 C 17.78125 19.597656 17.328125 18.886719 16.796875 19.089844 C 16.609375 19.167969 16.394531 19.367188 16.148438 19.597656 C 15.628906 20.078125 14.996094 20.667969 14.097656 20.667969 " fill-opacity="1" fill-rule="nonzero"/><path fill="#000000" d="M 13.347656 21.621094 C 12.757812 21.621094 12.324219 21.40625 12.113281 21.226562 C 12.078125 21.195312 12.074219 21.136719 12.105469 21.101562 C 12.136719 21.0625 12.191406 21.058594 12.230469 21.089844 C 12.511719 21.335938 13.253906 21.648438 14.25 21.269531 C 14.296875 21.253906 14.347656 21.277344 14.367188 21.324219 C 14.382812 21.367188 14.359375 21.417969 14.3125 21.4375 C 13.960938 21.570312 13.632812 21.621094 13.347656 21.621094 " fill-opacity="1" fill-rule="nonzero"/><path fill="#000000" d="M 13.171875 25.292969 C 12.8125 25.292969 12.492188 25.160156 12.257812 24.917969 C 11.988281 24.632812 11.855469 24.226562 11.886719 23.769531 C 11.910156 23.445312 12.015625 23.214844 12.203125 23.082031 C 12.40625 22.9375 12.691406 22.910156 13.054688 23.007812 C 13.101562 23.019531 13.128906 23.070312 13.117188 23.117188 C 13.105469 23.164062 13.054688 23.191406 13.007812 23.179688 C 12.699219 23.097656 12.464844 23.113281 12.308594 23.226562 C 12.164062 23.328125 12.082031 23.515625 12.066406 23.78125 C 12.035156 24.1875 12.148438 24.546875 12.386719 24.792969 C 12.59375 25.011719 12.878906 25.125 13.207031 25.117188 C 13.253906 25.117188 13.296875 25.152344 13.296875 25.203125 C 13.296875 25.25 13.257812 25.289062 13.210938 25.292969 C 13.199219 25.292969 13.183594 25.292969 13.171875 25.292969 " fill-opacity="1" fill-rule="nonzero"/><path fill="#000000" d="M 13.011719 24.394531 C 12.976562 24.394531 12.945312 24.371094 12.929688 24.335938 C 12.832031 24.09375 12.695312 24.039062 12.691406 24.035156 C 12.644531 24.019531 12.621094 23.96875 12.636719 23.921875 C 12.652344 23.878906 12.699219 23.855469 12.746094 23.867188 C 12.769531 23.875 12.964844 23.949219 13.09375 24.273438 C 13.113281 24.316406 13.089844 24.371094 13.046875 24.386719 C 13.035156 24.390625 13.023438 24.394531 13.011719 24.394531 " fill-opacity="1" fill-rule="nonzero"/><path fill="#000000" d="M 17.527344 23.425781 C 17.527344 23.230469 17.429688 23.054688 17.3125 23.054688 C 17.175781 23.054688 17.058594 23.210938 17.058594 23.40625 C 17.058594 23.601562 17.15625 23.777344 17.273438 23.777344 C 17.410156 23.777344 17.507812 23.621094 17.527344 23.425781 " fill-opacity="1" fill-rule="evenodd"/><path fill="#000000" d="M 16.765625 22.28125 C 16.738281 22.28125 16.710938 22.269531 16.691406 22.246094 C 16.664062 22.203125 16.675781 22.148438 16.714844 22.121094 C 17.019531 21.910156 17.40625 21.878906 17.722656 22.035156 C 17.765625 22.058594 17.785156 22.113281 17.761719 22.15625 C 17.742188 22.199219 17.6875 22.21875 17.644531 22.195312 C 17.382812 22.066406 17.066406 22.09375 16.816406 22.265625 C 16.800781 22.277344 16.78125 22.28125 16.765625 22.28125 " fill-opacity="1" fill-rule="nonzero"/><path fill="#000000" d="M 15.242188 30.339844 C 15.195312 30.339844 15.15625 30.304688 15.15625 30.257812 C 15.109375 29.203125 15.421875 28.089844 15.699219 27.992188 C 15.949219 27.90625 16.210938 27.914062 16.539062 27.925781 C 16.757812 27.933594 17.007812 27.945312 17.308594 27.929688 C 17.777344 27.910156 17.933594 27.628906 18.085938 27.039062 C 18.195312 26.554688 18.253906 26.183594 18.316406 25.699219 C 18.324219 25.652344 18.371094 25.617188 18.417969 25.625 C 18.464844 25.628906 18.5 25.675781 18.492188 25.722656 C 18.429688 26.210938 18.371094 26.589844 18.257812 27.082031 C 18.089844 27.730469 17.890625 28.085938 17.316406 28.105469 C 17.007812 28.121094 16.753906 28.113281 16.535156 28.105469 C 16.210938 28.09375 15.976562 28.082031 15.757812 28.160156 C 15.636719 28.214844 15.28125 29.15625 15.332031 30.25 C 15.335938 30.296875 15.296875 30.339844 15.246094 30.339844 C 15.246094 30.339844 15.246094 30.339844 15.242188 30.339844 " fill-opacity="1" fill-rule="nonzero"/><path fill="#000000" d="M 18.425781 25.839844 C 18.421875 25.839844 18.421875 25.839844 18.417969 25.839844 C 18.371094 25.835938 18.332031 25.792969 18.335938 25.742188 C 18.339844 25.722656 18.378906 25.234375 18.503906 24.988281 C 18.542969 24.894531 18.609375 24.800781 18.675781 24.710938 C 18.773438 24.578125 18.863281 24.453125 18.863281 24.324219 C 18.875 24.175781 18.785156 24.113281 18.609375 24 C 18.535156 23.953125 18.445312 23.894531 18.367188 23.824219 C 18.15625 23.636719 18.101562 23.441406 18.140625 22.988281 C 18.148438 22.9375 18.1875 22.902344 18.238281 22.90625 C 18.285156 22.910156 18.324219 22.953125 18.320312 23.003906 C 18.28125 23.433594 18.335938 23.558594 18.484375 23.691406 C 18.554688 23.753906 18.632812 23.804688 18.707031 23.851562 C 18.878906 23.964844 19.058594 24.078125 19.042969 24.332031 C 19.042969 24.507812 18.929688 24.664062 18.820312 24.8125 C 18.757812 24.898438 18.699219 24.980469 18.664062 25.0625 C 18.554688 25.285156 18.515625 25.753906 18.515625 25.757812 C 18.511719 25.804688 18.472656 25.839844 18.425781 25.839844 " fill-opacity="1" fill-rule="nonzero"/><path fill="#000000" d="M 18.230469 23.085938 C 18.226562 23.085938 18.222656 23.082031 18.21875 23.082031 C 18.171875 23.078125 18.136719 23.03125 18.140625 22.984375 C 18.195312 22.5625 18.261719 22.039062 18.183594 21.523438 C 18.167969 21.375 18.125 21.144531 17.9375 20.8125 C 17.914062 20.769531 17.929688 20.714844 17.972656 20.691406 C 18.015625 20.667969 18.070312 20.683594 18.09375 20.722656 C 18.246094 21 18.332031 21.246094 18.355469 21.5 C 18.441406 22.035156 18.371094 22.574219 18.316406 23.007812 C 18.3125 23.050781 18.273438 23.085938 18.230469 23.085938 " fill-opacity="1" fill-rule="nonzero"/><path fill="#000000" d="M 16.84375 23.4375 C 16.824219 23.4375 16.808594 23.429688 16.792969 23.421875 C 16.753906 23.390625 16.742188 23.335938 16.769531 23.296875 C 16.964844 23.015625 17.351562 22.949219 17.597656 23.050781 C 17.644531 23.070312 17.667969 23.121094 17.648438 23.164062 C 17.628906 23.210938 17.578125 23.234375 17.53125 23.214844 C 17.375 23.152344 17.066406 23.179688 16.914062 23.398438 C 16.898438 23.421875 16.871094 23.4375 16.84375 23.4375 " fill-opacity="1" fill-rule="nonzero"/><g clip-path="url(#9aeb52f347)"><path fill="#000000" d="M 6.707031 37.441406 C 6.707031 37.441406 6.703125 37.441406 6.703125 37.441406 C 6.652344 37.4375 6.617188 37.398438 6.621094 37.347656 C 6.652344 36.902344 6.667969 36.015625 6.671875 35.527344 C 6.679688 34.6875 6.949219 33.730469 7.472656 32.683594 C 7.90625 31.824219 8.5625 31.140625 9.195312 30.480469 C 9.714844 29.941406 10.25 29.386719 10.652344 28.738281 C 11.09375 28.035156 11.152344 27.097656 11.207031 26.273438 C 11.210938 26.195312 11.214844 26.121094 11.222656 26.042969 C 11.226562 25.996094 11.265625 25.960938 11.316406 25.960938 C 11.363281 25.964844 11.402344 26.007812 11.398438 26.058594 C 11.394531 26.132812 11.390625 26.207031 11.382812 26.285156 C 11.328125 27.132812 11.265625 28.089844 10.800781 28.832031 C 10.390625 29.496094 9.847656 30.058594 9.324219 30.605469 C 8.699219 31.253906 8.050781 31.925781 7.632812 32.761719 C 7.121094 33.785156 6.859375 34.714844 6.851562 35.53125 C 6.847656 36.019531 6.828125 36.910156 6.796875 37.359375 C 6.792969 37.40625 6.753906 37.441406 6.707031 37.441406 " fill-opacity="1" fill-rule="nonzero"/></g><g clip-path="url(#ce711e2639)"><path fill="#000000" d="M 19.574219 37.523438 C 19.527344 37.523438 19.484375 37.484375 19.484375 37.433594 C 19.484375 36.6875 18.597656 32.894531 17.65625 31.609375 C 17.515625 31.417969 17 31.066406 16.503906 30.726562 C 15.894531 30.308594 15.316406 29.910156 15.195312 29.671875 C 15.175781 29.628906 15.191406 29.574219 15.234375 29.550781 C 15.28125 29.53125 15.332031 29.546875 15.355469 29.59375 C 15.453125 29.789062 16.066406 30.210938 16.605469 30.578125 C 17.136719 30.945312 17.640625 31.289062 17.800781 31.503906 C 18.761719 32.816406 19.664062 36.675781 19.664062 37.433594 C 19.664062 37.484375 19.625 37.523438 19.574219 37.523438 " fill-opacity="1" fill-rule="nonzero"/></g><path fill="#000000" d="M 14.09375 32.40625 C 13.28125 32.40625 12.359375 31.984375 11.332031 31.136719 C 11.21875 31.042969 11.097656 30.933594 10.96875 30.8125 C 10.636719 30.507812 10.257812 30.160156 9.902344 30.042969 C 9.855469 30.027344 9.828125 29.976562 9.84375 29.929688 C 9.859375 29.882812 9.910156 29.859375 9.957031 29.871094 C 10.351562 30.003906 10.742188 30.367188 11.089844 30.683594 C 11.214844 30.800781 11.332031 30.910156 11.445312 31.003906 C 13.167969 32.421875 14.578125 32.601562 15.632812 31.546875 C 15.851562 31.332031 15.878906 31.109375 15.910156 30.875 C 15.929688 30.710938 15.953125 30.542969 16.035156 30.371094 C 16.058594 30.328125 16.113281 30.3125 16.15625 30.332031 C 16.199219 30.355469 16.214844 30.40625 16.195312 30.453125 C 16.125 30.59375 16.105469 30.742188 16.085938 30.898438 C 16.050781 31.148438 16.019531 31.414062 15.757812 31.671875 C 15.269531 32.160156 14.714844 32.40625 14.09375 32.40625 " fill-opacity="1" fill-rule="nonzero"/><g clip-path="url(#f6443c6867)"><path fill="#000000" d="M 29.210938 37.4375 C 29.210938 37.4375 29.207031 37.4375 29.207031 37.4375 C 29.160156 37.433594 29.121094 37.394531 29.121094 37.34375 C 29.140625 36.941406 29.140625 36.515625 29.140625 36.066406 C 29.144531 34.429688 29.144531 32.742188 30.011719 31.839844 C 30.339844 31.503906 30.90625 31.238281 31.503906 30.957031 C 32.210938 30.625 32.945312 30.285156 33.253906 29.820312 C 33.28125 29.78125 33.335938 29.769531 33.375 29.796875 C 33.417969 29.824219 33.425781 29.878906 33.398438 29.917969 C 33.0625 30.421875 32.308594 30.777344 31.582031 31.117188 C 30.996094 31.390625 30.441406 31.652344 30.140625 31.964844 C 29.320312 32.8125 29.320312 34.464844 29.320312 36.066406 C 29.320312 36.515625 29.320312 36.945312 29.300781 37.351562 C 29.296875 37.398438 29.257812 37.4375 29.210938 37.4375 " fill-opacity="1" fill-rule="nonzero"/></g><g clip-path="url(#444cd43d69)"><path fill="#000000" d="M 42.023438 37.425781 C 41.976562 37.425781 41.9375 37.390625 41.933594 37.34375 C 41.886719 36.78125 41.875 36.265625 41.863281 35.769531 C 41.835938 34.445312 41.8125 33.398438 41.097656 32.4375 C 40.65625 31.839844 40.070312 31.433594 39.503906 31.042969 C 39.359375 30.941406 39.210938 30.839844 39.0625 30.734375 C 39.023438 30.703125 39.015625 30.648438 39.042969 30.609375 C 39.074219 30.570312 39.128906 30.5625 39.167969 30.589844 C 39.3125 30.695312 39.460938 30.796875 39.605469 30.898438 C 40.183594 31.296875 40.78125 31.710938 41.242188 32.332031 C 41.988281 33.335938 42.011719 34.410156 42.039062 35.765625 C 42.050781 36.257812 42.0625 36.769531 42.109375 37.332031 C 42.113281 37.378906 42.078125 37.421875 42.03125 37.425781 C 42.027344 37.425781 42.023438 37.425781 42.023438 37.425781 " fill-opacity="1" fill-rule="nonzero"/></g><g clip-path="url(#e03880b153)"><path fill="#000000" d="M 30.003906 37.660156 C 29.972656 37.660156 29.941406 37.644531 29.925781 37.613281 C 29.789062 37.335938 29.835938 36.953125 29.875 36.644531 C 29.882812 36.582031 29.890625 36.519531 29.898438 36.464844 C 29.921875 36.214844 29.96875 35.960938 30.015625 35.691406 C 30.125 35.089844 30.234375 34.46875 30.09375 33.910156 C 30.082031 33.863281 30.113281 33.8125 30.160156 33.800781 C 30.207031 33.789062 30.253906 33.816406 30.265625 33.867188 C 30.417969 34.464844 30.300781 35.105469 30.191406 35.722656 C 30.140625 35.988281 30.097656 36.238281 30.074219 36.484375 C 30.066406 36.539062 30.058594 36.601562 30.050781 36.664062 C 30.015625 36.953125 29.96875 37.304688 30.082031 37.53125 C 30.105469 37.578125 30.089844 37.628906 30.042969 37.652344 C 30.03125 37.660156 30.019531 37.660156 30.003906 37.660156 " fill-opacity="1" fill-rule="nonzero"/></g><g clip-path="url(#54c5223b8a)"><path fill="#000000" d="M 37.628906 37.601562 C 37.582031 37.601562 37.542969 37.5625 37.542969 37.515625 C 37.542969 36.441406 37.542969 35.429688 37.679688 34.328125 C 37.6875 34.277344 37.730469 34.246094 37.777344 34.25 C 37.828125 34.257812 37.863281 34.300781 37.855469 34.347656 C 37.71875 35.441406 37.71875 36.449219 37.71875 37.515625 C 37.71875 37.5625 37.679688 37.601562 37.628906 37.601562 " fill-opacity="1" fill-rule="nonzero"/></g><path fill="#000000" d="M 28.503906 33.679688 C 28.3125 33.679688 28.117188 33.589844 28.003906 33.359375 C 27.984375 33.316406 28 33.265625 28.042969 33.242188 C 28.085938 33.222656 28.140625 33.238281 28.164062 33.28125 C 28.28125 33.523438 28.507812 33.535156 28.675781 33.46875 C 28.898438 33.378906 29.078125 33.140625 28.992188 32.851562 C 28.917969 32.609375 28.640625 32.488281 28.375 32.375 C 28.25 32.320312 28.132812 32.269531 28.035156 32.207031 C 27.523438 31.875 27.417969 31.199219 27.542969 30.679688 C 27.675781 30.117188 28.144531 29.792969 28.597656 29.476562 C 29.050781 29.164062 29.476562 28.871094 29.585938 28.363281 C 29.671875 27.9375 29.492188 27.535156 29.316406 27.148438 L 29.273438 27.046875 C 29.253906 27.003906 29.273438 26.949219 29.316406 26.929688 C 29.363281 26.910156 29.414062 26.929688 29.433594 26.976562 L 29.480469 27.074219 C 29.664062 27.488281 29.859375 27.917969 29.757812 28.398438 C 29.636719 28.976562 29.160156 29.304688 28.699219 29.625 C 28.253906 29.933594 27.832031 30.226562 27.714844 30.722656 C 27.605469 31.179688 27.691406 31.769531 28.132812 32.054688 C 28.214844 32.113281 28.328125 32.160156 28.445312 32.210938 C 28.734375 32.335938 29.066406 32.480469 29.160156 32.800781 C 29.277344 33.1875 29.03125 33.519531 28.738281 33.632812 C 28.664062 33.664062 28.585938 33.679688 28.503906 33.679688 " fill-opacity="1" fill-rule="nonzero"/><path fill="#000000" d="M 28.898438 34.484375 C 28.796875 34.484375 28.691406 34.453125 28.589844 34.390625 C 28.210938 34.15625 27.933594 33.554688 27.933594 33.261719 C 27.933594 33.214844 27.976562 33.171875 28.023438 33.171875 C 28.074219 33.171875 28.113281 33.214844 28.113281 33.261719 C 28.113281 33.503906 28.375 34.046875 28.683594 34.242188 C 28.8125 34.320312 28.925781 34.328125 29.035156 34.273438 C 29.078125 34.253906 29.132812 34.269531 29.15625 34.3125 C 29.175781 34.359375 29.160156 34.410156 29.117188 34.433594 C 29.046875 34.46875 28.972656 34.484375 28.898438 34.484375 " fill-opacity="1" fill-rule="nonzero"/><path fill="#000000" d="M 40.269531 31.445312 C 40.25 31.445312 40.234375 31.441406 40.21875 31.429688 C 40.179688 31.402344 40.167969 31.347656 40.195312 31.308594 C 40.265625 31.203125 40.273438 31.09375 40.21875 30.984375 C 40.136719 30.8125 39.910156 30.667969 39.707031 30.652344 C 39.410156 30.628906 39.097656 30.636719 38.796875 30.648438 C 37.964844 30.671875 37.101562 30.699219 36.398438 30.074219 C 35.679688 29.4375 35.359375 28.515625 35.417969 27.265625 C 35.425781 27.066406 35.449219 26.863281 35.46875 26.664062 C 35.53125 26.089844 35.59375 25.492188 35.363281 24.960938 C 35.34375 24.917969 35.367188 24.863281 35.410156 24.847656 C 35.457031 24.828125 35.507812 24.847656 35.527344 24.890625 C 35.773438 25.464844 35.707031 26.085938 35.644531 26.683594 C 35.625 26.886719 35.601562 27.082031 35.59375 27.273438 C 35.539062 28.46875 35.839844 29.339844 36.515625 29.941406 C 37.167969 30.519531 37.957031 30.496094 38.789062 30.46875 C 39.097656 30.460938 39.414062 30.453125 39.71875 30.476562 C 39.988281 30.496094 40.265625 30.675781 40.378906 30.90625 C 40.457031 31.074219 40.445312 31.25 40.34375 31.40625 C 40.324219 31.433594 40.296875 31.445312 40.269531 31.445312 " fill-opacity="1" fill-rule="nonzero"/><path fill="#000000" d="M 41.535156 32.871094 C 41.527344 32.871094 41.511719 32.871094 41.503906 32.863281 C 41.457031 32.84375 41.4375 32.792969 41.457031 32.75 C 41.523438 32.59375 41.628906 32.453125 41.734375 32.320312 C 41.808594 32.226562 41.882812 32.132812 41.9375 32.039062 C 42.269531 31.453125 42.3125 30.398438 41.839844 29.824219 C 41.570312 29.496094 41.152344 29.261719 40.753906 29.035156 C 39.976562 28.597656 39.171875 28.140625 39.328125 27.003906 C 39.332031 26.953125 39.378906 26.921875 39.425781 26.925781 C 39.476562 26.933594 39.507812 26.976562 39.503906 27.027344 C 39.363281 28.046875 40.082031 28.453125 40.839844 28.882812 C 41.253906 29.117188 41.683594 29.359375 41.972656 29.710938 C 42.492188 30.339844 42.453125 31.488281 42.089844 32.125 C 42.03125 32.230469 41.949219 32.332031 41.875 32.429688 C 41.777344 32.554688 41.675781 32.683594 41.617188 32.816406 C 41.605469 32.851562 41.570312 32.871094 41.535156 32.871094 " fill-opacity="1" fill-rule="nonzero"/><path fill="#000000" d="M 17.40625 26.480469 C 16.878906 26.480469 16.636719 26.171875 16.550781 26.019531 C 16.46875 25.882812 16.417969 25.695312 16.492188 25.609375 C 16.578125 25.511719 17.78125 25.625 17.792969 25.625 C 17.84375 25.632812 17.878906 25.675781 17.871094 25.726562 C 17.863281 25.773438 17.820312 25.808594 17.769531 25.800781 C 17.5 25.765625 16.828125 25.742188 16.632812 25.746094 C 16.640625 25.8125 16.6875 25.941406 16.800781 26.0625 C 16.9375 26.210938 17.207031 26.367188 17.679688 26.273438 C 17.726562 26.265625 17.773438 26.296875 17.785156 26.34375 C 17.792969 26.390625 17.761719 26.4375 17.714844 26.449219 C 17.601562 26.46875 17.5 26.480469 17.40625 26.480469 " fill-opacity="1" fill-rule="nonzero"/><path fill="#000000" d="M 31.476562 25.351562 Z M 30.699219 26.121094 C 30.609375 26.121094 30.507812 26.109375 30.398438 26.089844 C 30.347656 26.078125 30.316406 26.03125 30.328125 25.984375 C 30.335938 25.9375 30.382812 25.90625 30.433594 25.914062 C 30.90625 26.007812 31.171875 25.851562 31.3125 25.699219 C 31.425781 25.582031 31.46875 25.453125 31.476562 25.386719 C 31.28125 25.382812 30.609375 25.40625 30.339844 25.441406 C 30.292969 25.449219 30.246094 25.414062 30.242188 25.367188 C 30.234375 25.316406 30.269531 25.273438 30.316406 25.265625 C 30.328125 25.265625 31.535156 25.152344 31.621094 25.25 C 31.695312 25.335938 31.640625 25.519531 31.5625 25.660156 C 31.496094 25.777344 31.25 26.121094 30.699219 26.121094 " fill-opacity="1" fill-rule="nonzero"/><path fill="#efefef" d="M 0 24.761719 C 0 23.042969 1.902344 21.644531 4.25 21.644531 C 6.597656 21.644531 8.5 23.042969 8.5 24.761719 C 8.5 25.839844 7.757812 26.785156 6.628906 27.347656 C 6.410156 27.457031 7.433594 28.363281 7.433594 28.363281 C 7.433594 28.363281 5.527344 27.742188 5.316406 27.78125 C 4.972656 27.847656 4.617188 27.878906 4.25 27.878906 C 1.902344 27.878906 0 26.484375 0 24.761719 " fill-opacity="1" fill-rule="evenodd"/><path fill="#4291ca" d="M 0 24.761719 C 0 26.015625 1.003906 27.09375 2.457031 27.589844 L 2.457031 21.9375 C 1.003906 22.433594 0 23.511719 0 24.761719 " fill-opacity="1" fill-rule="nonzero"/><path fill="#fb5341" d="M 5.921875 21.898438 L 5.921875 27.902344 C 6.554688 28.074219 7.433594 28.363281 7.433594 28.363281 C 7.433594 28.363281 6.410156 27.457031 6.628906 27.347656 C 7.757812 26.785156 8.5 25.839844 8.5 24.761719 C 8.5 23.476562 7.4375 22.375 5.921875 21.898438 " fill-opacity="1" fill-rule="nonzero"/><path fill="#efefef" d="M 4.25 21.644531 C 3.609375 21.644531 3 21.75 2.457031 21.9375 L 2.457031 27.589844 C 3 27.773438 3.609375 27.878906 4.25 27.878906 C 4.617188 27.878906 4.972656 27.847656 5.316406 27.78125 C 5.382812 27.769531 5.625 27.824219 5.921875 27.902344 L 5.921875 21.898438 C 5.410156 21.734375 4.84375 21.644531 4.25 21.644531 " fill-opacity="1" fill-rule="nonzero"/><path fill="#efefef" d="M 6.332031 15.042969 C 6.332031 14.019531 7.464844 13.191406 8.859375 13.191406 C 10.253906 13.191406 11.386719 14.019531 11.386719 15.042969 C 11.386719 15.683594 10.945312 16.246094 10.273438 16.582031 C 10.144531 16.644531 10.753906 17.183594 10.753906 17.183594 C 10.753906 17.183594 9.621094 16.816406 9.492188 16.839844 C 9.289062 16.878906 9.078125 16.898438 8.859375 16.898438 C 7.464844 16.898438 6.332031 16.066406 6.332031 15.042969 " fill-opacity="1" fill-rule="evenodd"/><path fill="#000000" d="M 9.5 16.75 C 9.632812 16.75 10.058594 16.875 10.414062 16.984375 C 10.242188 16.800781 10.15625 16.671875 10.167969 16.59375 C 10.171875 16.554688 10.199219 16.519531 10.234375 16.5 C 10.902344 16.171875 11.296875 15.625 11.296875 15.042969 C 11.296875 14.070312 10.203125 13.277344 8.859375 13.277344 C 7.515625 13.277344 6.421875 14.070312 6.421875 15.042969 C 6.421875 16.015625 7.515625 16.808594 8.859375 16.808594 C 9.070312 16.808594 9.277344 16.789062 9.476562 16.75 C 9.484375 16.75 9.492188 16.75 9.5 16.75 Z M 10.753906 17.273438 C 10.746094 17.273438 10.734375 17.273438 10.726562 17.269531 C 10.195312 17.097656 9.59375 16.921875 9.507812 16.925781 C 9.296875 16.964844 9.078125 16.984375 8.859375 16.984375 C 7.417969 16.984375 6.242188 16.113281 6.242188 15.042969 C 6.242188 13.972656 7.417969 13.101562 8.859375 13.101562 C 10.300781 13.101562 11.476562 13.972656 11.476562 15.042969 C 11.476562 15.679688 11.058594 16.273438 10.359375 16.636719 C 10.410156 16.734375 10.621094 16.949219 10.8125 17.117188 C 10.84375 17.144531 10.851562 17.191406 10.832031 17.226562 C 10.8125 17.257812 10.785156 17.273438 10.753906 17.273438 " fill-opacity="1" fill-rule="nonzero"/><path fill="#efefef" d="M 21.683594 20.945312 C 21.683594 19.808594 23.121094 18.890625 24.898438 18.890625 C 26.675781 18.890625 28.117188 19.808594 28.117188 20.945312 C 28.117188 21.65625 27.554688 22.28125 26.699219 22.652344 C 26.535156 22.722656 27.308594 23.320312 27.308594 23.320312 C 27.308594 23.320312 25.867188 22.910156 25.707031 22.9375 C 25.449219 22.980469 25.179688 23.003906 24.898438 23.003906 C 23.121094 23.003906 21.683594 22.082031 21.683594 20.945312 " fill-opacity="1" fill-rule="evenodd"/><path fill="#000000" d="M 25.71875 22.847656 C 25.886719 22.847656 26.488281 23.003906 26.929688 23.121094 C 26.691406 22.910156 26.578125 22.757812 26.589844 22.667969 C 26.59375 22.625 26.621094 22.585938 26.664062 22.570312 C 27.519531 22.199219 28.027344 21.59375 28.027344 20.945312 C 28.027344 19.859375 26.625 18.976562 24.898438 18.976562 C 23.175781 18.976562 21.769531 19.859375 21.769531 20.945312 C 21.769531 22.03125 23.175781 22.914062 24.898438 22.914062 C 25.167969 22.914062 25.433594 22.890625 25.691406 22.851562 C 25.699219 22.847656 25.707031 22.847656 25.71875 22.847656 Z M 27.308594 23.410156 C 27.300781 23.410156 27.292969 23.40625 27.285156 23.40625 C 26.59375 23.210938 25.820312 23.011719 25.71875 23.023438 C 25.453125 23.070312 25.175781 23.089844 24.898438 23.089844 C 23.078125 23.089844 21.59375 22.128906 21.59375 20.945312 C 21.59375 19.761719 23.078125 18.800781 24.898438 18.800781 C 26.722656 18.800781 28.203125 19.761719 28.203125 20.945312 C 28.203125 21.652344 27.671875 22.3125 26.78125 22.710938 C 26.847656 22.816406 27.121094 23.0625 27.363281 23.25 C 27.398438 23.277344 27.410156 23.324219 27.390625 23.359375 C 27.375 23.390625 27.34375 23.410156 27.308594 23.410156 " fill-opacity="1" fill-rule="nonzero"/><path fill="#efefef" d="M 26.59375 15.980469 C 26.59375 14.605469 24.691406 13.488281 22.34375 13.488281 C 19.996094 13.488281 18.09375 14.605469 18.09375 15.980469 C 18.09375 16.839844 18.835938 17.601562 19.964844 18.046875 C 20.183594 18.132812 19.160156 18.859375 19.160156 18.859375 C 19.160156 18.859375 21.066406 18.363281 21.277344 18.394531 C 21.617188 18.445312 21.976562 18.472656 22.34375 18.472656 C 24.691406 18.472656 26.59375 17.359375 26.59375 15.980469 " fill-opacity="1" fill-rule="evenodd"/><path fill="#000000" d="M 22.34375 13.578125 C 20.050781 13.578125 18.183594 14.65625 18.183594 15.980469 C 18.183594 16.773438 18.863281 17.515625 20 17.964844 C 20.046875 17.984375 20.078125 18.023438 20.082031 18.074219 C 20.097656 18.203125 19.859375 18.433594 19.570312 18.664062 C 20.171875 18.511719 21.125 18.285156 21.292969 18.308594 C 21.632812 18.359375 21.988281 18.386719 22.34375 18.386719 C 24.636719 18.386719 26.503906 17.308594 26.503906 15.980469 C 26.503906 14.65625 24.636719 13.578125 22.34375 13.578125 Z M 19.160156 18.949219 C 19.125 18.949219 19.09375 18.929688 19.078125 18.898438 C 19.0625 18.859375 19.074219 18.8125 19.109375 18.789062 C 19.445312 18.546875 19.820312 18.238281 19.894531 18.113281 C 18.710938 17.632812 18.003906 16.839844 18.003906 15.980469 C 18.003906 14.558594 19.953125 13.398438 22.34375 13.398438 C 24.734375 13.398438 26.683594 14.558594 26.683594 15.980469 C 26.683594 17.40625 24.734375 18.5625 22.34375 18.5625 C 21.980469 18.5625 21.617188 18.535156 21.265625 18.484375 C 21.140625 18.464844 20.097656 18.707031 19.183594 18.945312 C 19.175781 18.949219 19.167969 18.949219 19.160156 18.949219 " fill-opacity="1" fill-rule="nonzero"/><g clip-path="url(#78e5374624)"><path fill="#efefef" d="M 37.109375 14.425781 C 37.109375 13.050781 35.207031 11.933594 32.859375 11.933594 C 30.515625 11.933594 28.609375 13.050781 28.609375 14.425781 C 28.609375 15.289062 29.351562 16.046875 30.484375 16.492188 C 30.699219 16.582031 30.460938 18.03125 30.460938 18.03125 C 30.460938 18.03125 31.582031 16.808594 31.796875 16.839844 C 32.136719 16.894531 32.492188 16.921875 32.859375 16.921875 C 35.207031 16.921875 37.109375 15.804688 37.109375 14.425781 " fill-opacity="1" fill-rule="evenodd"/><path fill="#000000" d="M 32.859375 12.023438 C 30.566406 12.023438 28.699219 13.101562 28.699219 14.425781 C 28.699219 15.21875 29.378906 15.960938 30.515625 16.410156 C 30.71875 16.492188 30.679688 17.136719 30.589844 17.757812 C 31.027344 17.300781 31.613281 16.726562 31.808594 16.753906 C 32.148438 16.804688 32.503906 16.832031 32.859375 16.832031 C 35.15625 16.832031 37.023438 15.753906 37.023438 14.425781 C 37.023438 13.101562 35.15625 12.023438 32.859375 12.023438 Z M 30.460938 18.117188 C 30.445312 18.117188 30.433594 18.117188 30.421875 18.109375 C 30.386719 18.09375 30.367188 18.054688 30.371094 18.015625 C 30.476562 17.390625 30.527344 16.660156 30.441406 16.570312 C 29.242188 16.097656 28.523438 15.292969 28.523438 14.425781 C 28.523438 13.003906 30.46875 11.84375 32.859375 11.84375 C 35.253906 11.84375 37.199219 13.003906 37.199219 14.425781 C 37.199219 15.851562 35.253906 17.007812 32.859375 17.007812 C 32.496094 17.007812 32.132812 16.980469 31.78125 16.929688 C 31.65625 16.941406 31.027344 17.542969 30.523438 18.089844 C 30.507812 18.109375 30.484375 18.117188 30.460938 18.117188 " fill-opacity="1" fill-rule="nonzero"/></g><g clip-path="url(#60ee553b32)"><path fill="#efefef" d="M 49.511719 18.828125 C 49.511719 17.226562 47.15625 15.925781 44.25 15.925781 C 41.34375 15.925781 38.984375 17.226562 38.984375 18.828125 C 38.984375 19.828125 39.90625 20.710938 41.304688 21.234375 C 41.574219 21.335938 40.304688 22.179688 40.304688 22.179688 C 40.304688 22.179688 42.664062 21.601562 42.929688 21.640625 C 43.351562 21.699219 43.792969 21.730469 44.25 21.730469 C 47.15625 21.730469 49.511719 20.429688 49.511719 18.828125 " fill-opacity="1" fill-rule="evenodd"/></g><path fill="#6a9b37" d="M 39.003906 18.601562 L 39.003906 19.054688 C 39.132812 19.960938 40.011719 20.753906 41.304688 21.234375 C 41.574219 21.335938 40.304688 22.179688 40.304688 22.179688 C 40.304688 22.179688 41.945312 21.777344 42.640625 21.667969 L 42.640625 16.0625 C 40.648438 16.417969 39.171875 17.40625 39.003906 18.601562 " fill-opacity="1" fill-rule="nonzero"/><g clip-path="url(#1d1e191688)"><path fill="#fb5341" d="M 46.226562 16.136719 L 46.226562 21.519531 C 48.152344 21.085938 49.511719 20.046875 49.511719 18.828125 C 49.511719 17.609375 48.152344 16.570312 46.226562 16.136719 " fill-opacity="1" fill-rule="nonzero"/></g><path fill="#efefef" d="M 44.25 15.925781 C 43.6875 15.925781 43.148438 15.972656 42.640625 16.0625 L 42.640625 21.667969 C 42.78125 21.644531 42.886719 21.632812 42.929688 21.640625 C 43.351562 21.699219 43.792969 21.730469 44.25 21.730469 C 44.949219 21.730469 45.613281 21.65625 46.226562 21.519531 L 46.226562 16.136719 C 45.613281 16 44.949219 15.925781 44.25 15.925781 " fill-opacity="1" fill-rule="nonzero"/><path fill="#efefef" d="M 47.972656 29.34375 C 47.972656 28.511719 46.878906 27.839844 45.527344 27.839844 C 44.179688 27.839844 43.085938 28.511719 43.085938 29.34375 C 43.085938 29.863281 43.511719 30.320312 44.160156 30.589844 C 44.285156 30.640625 43.699219 31.082031 43.699219 31.082031 C 43.699219 31.082031 44.792969 30.78125 44.917969 30.800781 C 45.113281 30.832031 45.316406 30.847656 45.527344 30.847656 C 46.878906 30.847656 47.972656 30.175781 47.972656 29.34375 " fill-opacity="1" fill-rule="evenodd"/><path fill="#26292b" d="M 43.453125 28.546875 L 47.605469 28.546875 C 47.171875 28.121094 46.40625 27.839844 45.527344 27.839844 C 44.652344 27.839844 43.886719 28.121094 43.453125 28.546875 " fill-opacity="1" fill-rule="nonzero"/><path fill="#fb5341" d="M 43.085938 29.34375 C 43.085938 29.53125 43.140625 29.710938 43.242188 29.875 L 47.816406 29.875 C 47.917969 29.710938 47.972656 29.53125 47.972656 29.34375 C 47.972656 29.050781 47.839844 28.777344 47.605469 28.546875 L 43.453125 28.546875 C 43.21875 28.777344 43.085938 29.050781 43.085938 29.34375 " fill-opacity="1" fill-rule="nonzero"/><path fill="#ffd048" d="M 44.160156 30.589844 C 44.285156 30.640625 43.699219 31.082031 43.699219 31.082031 C 43.699219 31.082031 44.792969 30.78125 44.917969 30.800781 C 45.113281 30.832031 45.316406 30.847656 45.527344 30.847656 C 46.574219 30.847656 47.464844 30.445312 47.816406 29.875 L 43.242188 29.875 C 43.421875 30.167969 43.746094 30.417969 44.160156 30.589844 " fill-opacity="1" fill-rule="nonzero"/><path fill="#000000" d="M 33.183594 32.632812 C 32.957031 32.632812 32.769531 32.5625 32.617188 32.425781 C 32.214844 32.054688 32.203125 31.28125 32.324219 30.675781 C 32.332031 30.628906 32.378906 30.597656 32.429688 30.605469 C 32.476562 30.617188 32.507812 30.664062 32.496094 30.710938 C 32.390625 31.242188 32.390625 31.976562 32.738281 32.292969 C 32.925781 32.464844 33.203125 32.5 33.5625 32.390625 C 34.257812 32.183594 34.867188 31.769531 35.457031 31.371094 C 35.570312 31.292969 35.6875 31.214844 35.800781 31.136719 C 36.070312 30.960938 36.316406 30.710938 36.539062 30.488281 C 36.5625 30.464844 36.609375 30.402344 36.628906 30.363281 C 36.625 30.351562 36.625 30.34375 36.625 30.332031 C 36.628906 30.28125 36.675781 30.246094 36.722656 30.25 C 36.761719 30.253906 36.796875 30.277344 36.808594 30.316406 C 36.847656 30.421875 36.667969 30.613281 36.664062 30.613281 C 36.4375 30.839844 36.179688 31.097656 35.898438 31.285156 C 35.785156 31.363281 35.671875 31.4375 35.558594 31.515625 C 34.957031 31.925781 34.335938 32.34375 33.613281 32.5625 C 33.460938 32.609375 33.316406 32.632812 33.183594 32.632812 " fill-opacity="1" fill-rule="nonzero"/><g clip-path="url(#fdb5e7cc55)"><path fill="#000000" d="M 18.097656 37.464844 C 18.097656 37.464844 18.097656 37.464844 18.09375 37.464844 C 18.046875 37.464844 18.007812 37.421875 18.011719 37.371094 C 18.039062 36.765625 17.941406 34.417969 17.847656 33.507812 C 17.84375 33.460938 17.878906 33.417969 17.929688 33.410156 C 17.976562 33.40625 18.019531 33.441406 18.023438 33.492188 C 18.117188 34.40625 18.214844 36.769531 18.1875 37.382812 C 18.183594 37.429688 18.144531 37.464844 18.097656 37.464844 " fill-opacity="1" fill-rule="nonzero"/></g><g clip-path="url(#fcfca79311)"><path fill="#000000" d="M 11.289062 37.304688 C 11.242188 37.304688 11.203125 37.265625 11.203125 37.214844 C 11.203125 37.003906 11.203125 36.792969 11.207031 36.582031 C 11.214844 36.039062 11.226562 35.472656 11.175781 34.925781 C 11.171875 34.878906 11.207031 34.835938 11.253906 34.828125 C 11.304688 34.824219 11.347656 34.863281 11.351562 34.910156 C 11.402344 35.46875 11.394531 36.035156 11.386719 36.585938 C 11.382812 36.792969 11.378906 37.003906 11.378906 37.214844 C 11.378906 37.265625 11.339844 37.304688 11.289062 37.304688 " fill-opacity="1" fill-rule="nonzero"/></g><path fill="#fb5341" d="M 7.8125 15.027344 C 7.8125 14.460938 8.289062 14 8.875 14 C 9.460938 14 9.9375 14.460938 9.9375 15.027344 C 9.9375 15.59375 9.460938 16.054688 8.875 16.054688 C 8.289062 16.054688 7.8125 15.59375 7.8125 15.027344 " fill-opacity="1" fill-rule="evenodd"/><path fill="#fb5341" d="M 31.890625 14.371094 C 31.890625 13.824219 32.332031 13.382812 32.878906 13.382812 C 33.425781 13.382812 33.867188 13.824219 33.867188 14.371094 C 33.867188 14.914062 33.425781 15.355469 32.878906 15.355469 C 32.332031 15.355469 31.890625 14.914062 31.890625 14.371094 " fill-opacity="1" fill-rule="evenodd"/><path fill="#4291ca" d="M 31.890625 14.371094 C 31.890625 13.824219 31.894531 14.582031 32.441406 14.582031 C 32.714844 14.582031 32.875 14.199219 33.171875 14.144531 C 33.476562 14.089844 33.867188 14.097656 33.867188 14.371094 C 33.867188 14.914062 33.425781 15.355469 32.878906 15.355469 C 32.332031 15.355469 31.890625 14.914062 31.890625 14.371094 " fill-opacity="1" fill-rule="evenodd"/><path fill="#26292b" d="M 30.816406 13.515625 L 31.347656 12.785156 L 31.476562 12.882812 L 30.945312 13.609375 L 30.816406 13.515625 " fill-opacity="1" fill-rule="evenodd"/><path fill="#26292b" d="M 30.984375 13.636719 L 31.515625 12.910156 L 31.648438 13.003906 L 31.113281 13.734375 L 30.984375 13.636719 " fill-opacity="1" fill-rule="evenodd"/><path fill="#26292b" d="M 31.152344 13.761719 L 31.683594 13.03125 L 31.816406 13.128906 L 31.285156 13.855469 L 31.152344 13.761719 " fill-opacity="1" fill-rule="evenodd"/><path fill="#26292b" d="M 34.386719 12.769531 L 34.636719 13.109375 L 34.503906 13.203125 L 34.257812 12.867188 L 34.386719 12.769531 " fill-opacity="1" fill-rule="evenodd"/><path fill="#26292b" d="M 34.21875 12.894531 L 34.753906 13.621094 L 34.625 13.714844 L 34.089844 12.992188 L 34.21875 12.894531 " fill-opacity="1" fill-rule="evenodd"/><path fill="#26292b" d="M 34.675781 13.160156 L 34.921875 13.496094 L 34.792969 13.59375 L 34.542969 13.253906 L 34.675781 13.160156 " fill-opacity="1" fill-rule="evenodd"/><path fill="#26292b" d="M 34.042969 13.023438 L 34.292969 13.359375 L 34.164062 13.457031 L 33.914062 13.121094 L 34.042969 13.023438 " fill-opacity="1" fill-rule="evenodd"/><path fill="#26292b" d="M 34.332031 13.410156 L 34.582031 13.75 L 34.449219 13.84375 L 34.203125 13.507812 L 34.332031 13.410156 " fill-opacity="1" fill-rule="evenodd"/><path fill="#26292b" d="M 33.945312 15.589844 L 34.164062 15.230469 L 34.304688 15.316406 L 34.085938 15.675781 L 33.945312 15.589844 " fill-opacity="1" fill-rule="evenodd"/><path fill="#26292b" d="M 34.195312 15.175781 L 34.414062 14.820312 L 34.550781 14.902344 L 34.335938 15.261719 L 34.195312 15.175781 " fill-opacity="1" fill-rule="evenodd"/><path fill="#26292b" d="M 34.3125 15.8125 L 34.527344 15.449219 L 34.667969 15.535156 L 34.449219 15.894531 L 34.3125 15.8125 " fill-opacity="1" fill-rule="evenodd"/><path fill="#26292b" d="M 34.5625 15.398438 L 34.777344 15.039062 L 34.917969 15.121094 L 34.699219 15.480469 L 34.5625 15.398438 " fill-opacity="1" fill-rule="evenodd"/><path fill="#26292b" d="M 34.128906 15.699219 L 34.347656 15.339844 L 34.484375 15.425781 L 34.269531 15.785156 L 34.128906 15.699219 " fill-opacity="1" fill-rule="evenodd"/><path fill="#26292b" d="M 34.378906 15.285156 L 34.59375 14.929688 L 34.734375 15.011719 L 34.519531 15.371094 L 34.378906 15.285156 " fill-opacity="1" fill-rule="evenodd"/><path fill="#26292b" d="M 31.304688 14.828125 L 31.804688 15.578125 L 31.667969 15.667969 L 31.167969 14.917969 L 31.304688 14.828125 " fill-opacity="1" fill-rule="evenodd"/><path fill="#26292b" d="M 30.949219 15.0625 L 31.449219 15.816406 L 31.316406 15.90625 L 30.816406 15.152344 L 30.949219 15.0625 " fill-opacity="1" fill-rule="evenodd"/><path fill="#26292b" d="M 31.128906 14.945312 L 31.359375 15.296875 L 31.226562 15.386719 L 30.992188 15.035156 L 31.128906 14.945312 " fill-opacity="1" fill-rule="evenodd"/><path fill="#26292b" d="M 31.394531 15.347656 L 31.625 15.695312 L 31.492188 15.785156 L 31.257812 15.4375 L 31.394531 15.347656 " fill-opacity="1" fill-rule="evenodd"/><path fill="#000000" d="M 21.234375 16.101562 C 21.234375 15.9375 21.375 15.800781 21.554688 15.800781 C 21.730469 15.800781 21.875 15.9375 21.875 16.101562 C 21.875 16.265625 21.730469 16.398438 21.554688 16.398438 C 21.375 16.398438 21.234375 16.265625 21.234375 16.101562 " fill-opacity="1" fill-rule="evenodd"/><path fill="#000000" d="M 22.074219 16.101562 C 22.074219 15.9375 22.21875 15.800781 22.394531 15.800781 C 22.570312 15.800781 22.714844 15.9375 22.714844 16.101562 C 22.714844 16.265625 22.570312 16.398438 22.394531 16.398438 C 22.21875 16.398438 22.074219 16.265625 22.074219 16.101562 " fill-opacity="1" fill-rule="evenodd"/><path fill="#000000" d="M 22.914062 16.101562 C 22.914062 15.9375 23.058594 15.800781 23.234375 15.800781 C 23.410156 15.800781 23.554688 15.9375 23.554688 16.101562 C 23.554688 16.265625 23.410156 16.398438 23.234375 16.398438 C 23.058594 16.398438 22.914062 16.265625 22.914062 16.101562 " fill-opacity="1" fill-rule="evenodd"/><path fill="#000000" d="M 23.636719 20.941406 C 23.636719 20.773438 23.78125 20.640625 23.957031 20.640625 C 24.132812 20.640625 24.277344 20.773438 24.277344 20.941406 C 24.277344 21.105469 24.132812 21.238281 23.957031 21.238281 C 23.78125 21.238281 23.636719 21.105469 23.636719 20.941406 " fill-opacity="1" fill-rule="evenodd"/><path fill="#000000" d="M 24.476562 20.941406 C 24.476562 20.773438 24.621094 20.640625 24.796875 20.640625 C 24.976562 20.640625 25.117188 20.773438 25.117188 20.941406 C 25.117188 21.105469 24.976562 21.238281 24.796875 21.238281 C 24.621094 21.238281 24.476562 21.105469 24.476562 20.941406 " fill-opacity="1" fill-rule="evenodd"/><path fill="#000000" d="M 25.316406 20.941406 C 25.316406 20.773438 25.460938 20.640625 25.636719 20.640625 C 25.816406 20.640625 25.957031 20.773438 25.957031 20.941406 C 25.957031 21.105469 25.816406 21.238281 25.636719 21.238281 C 25.460938 21.238281 25.316406 21.105469 25.316406 20.941406 " fill-opacity="1" fill-rule="evenodd"/><g clip-path="url(#f41352c1af)"><path fill="#ffffff" d="M 19.546875 16.457031 C 19.570312 16.46875 19.589844 16.488281 19.574219 16.527344 C 19.558594 16.5625 19.519531 16.558594 19.5 16.585938 L 20.570312 16.585938 L 19.898438 17.019531 C 19.925781 17.039062 19.984375 17.019531 20.019531 17.03125 C 20.09375 17.054688 20.167969 17.128906 20.222656 17.195312 L 21.171875 16.585938 L 21.253906 16.585938 L 21.253906 16.738281 L 20.359375 17.316406 C 20.367188 17.355469 20.367188 17.40625 20.363281 17.429688 C 20.363281 17.441406 20.359375 17.457031 20.351562 17.46875 L 21.253906 16.886719 L 21.253906 17.976562 C 21.273438 18.011719 21.320312 18.027344 21.320312 18.058594 C 21.320312 18.097656 21.285156 18.097656 21.277344 18.121094 C 21.265625 18.144531 21.265625 18.167969 21.261719 18.191406 C 21.261719 18.210938 21.257812 18.230469 21.253906 18.253906 L 21.253906 18.296875 C 21.257812 18.3125 21.261719 18.332031 21.269531 18.34375 C 21.328125 18.324219 21.378906 18.308594 21.429688 18.347656 L 21.429688 16.457031 L 19.546875 16.457031 " fill-opacity="1" fill-rule="nonzero"/></g><g clip-path="url(#ac5b77d670)"><path fill="#ffffff" d="M 23.953125 15.867188 C 23.976562 15.878906 23.996094 15.863281 24.011719 15.84375 L 23.929688 15.84375 C 23.929688 15.855469 23.9375 15.863281 23.953125 15.867188 " fill-opacity="1" fill-rule="nonzero"/></g><path fill="#ffffff" d="M 22.085938 17.851562 C 22.125 17.835938 22.144531 17.886719 22.171875 17.914062 C 22.199219 17.933594 22.230469 17.9375 22.257812 17.941406 L 22.257812 16.933594 L 23.246094 17.570312 C 23.246094 17.476562 23.1875 17.359375 23.265625 17.367188 C 23.285156 17.335938 23.28125 17.289062 23.277344 17.25 C 23.269531 17.257812 23.246094 17.257812 23.238281 17.261719 C 23.242188 17.234375 23.242188 17.207031 23.242188 17.179688 L 22.320312 16.585938 L 22.644531 16.585938 L 23.230469 16.964844 C 23.238281 16.921875 23.25 16.890625 23.265625 16.886719 C 23.265625 16.914062 23.28125 16.929688 23.308594 16.929688 C 23.316406 16.914062 23.320312 16.894531 23.320312 16.875 L 22.875 16.585938 L 23.589844 16.585938 C 23.59375 16.574219 23.59375 16.546875 23.597656 16.53125 C 23.601562 16.507812 23.613281 16.484375 23.621094 16.457031 L 22.085938 16.457031 L 22.085938 17.851562 " fill-opacity="1" fill-rule="nonzero"/><g clip-path="url(#f966b0bb7c)"><path fill="#ffffff" d="M 21.429688 14.078125 C 21.386719 14.082031 21.347656 14.070312 21.308594 14.003906 C 21.3125 14.066406 21.304688 14.160156 21.277344 14.210938 C 21.269531 14.222656 21.261719 14.230469 21.253906 14.238281 L 21.253906 15.515625 L 20.089844 14.761719 C 20.074219 14.773438 20.058594 14.78125 20.042969 14.789062 C 19.964844 14.832031 19.863281 14.875 19.785156 14.847656 C 19.734375 14.828125 19.691406 14.808594 19.636719 14.816406 C 19.621094 14.820312 19.609375 14.824219 19.59375 14.832031 L 21.171875 15.84375 L 20.847656 15.84375 L 19.292969 14.84375 C 19.289062 14.867188 19.28125 14.890625 19.28125 14.910156 C 19.277344 14.933594 19.277344 14.957031 19.277344 14.980469 L 20.617188 15.84375 L 19.34375 15.84375 L 19.34375 15.847656 C 19.351562 15.867188 19.375 15.882812 19.378906 15.902344 C 19.386719 15.925781 19.390625 15.949219 19.382812 15.972656 L 21.429688 15.972656 L 21.429688 14.078125 " fill-opacity="1" fill-rule="nonzero"/></g><g clip-path="url(#672570d19e)"><path fill="#ffffff" d="M 24.046875 15.117188 C 24.046875 15.113281 24.046875 15.105469 24.046875 15.097656 C 23.992188 15.078125 23.972656 15.125 23.929688 15.121094 C 23.925781 15.058594 23.953125 14.957031 23.917969 14.910156 C 23.898438 14.882812 23.867188 14.875 23.84375 14.863281 L 22.320312 15.84375 L 22.257812 15.84375 L 22.257812 15.675781 L 23.542969 14.851562 C 23.496094 14.855469 23.449219 14.859375 23.40625 14.867188 C 23.367188 14.871094 23.332031 14.882812 23.292969 14.878906 C 23.285156 14.875 23.28125 14.875 23.277344 14.871094 L 22.257812 15.527344 L 22.257812 14.601562 L 22.253906 14.605469 C 22.222656 14.625 22.238281 14.675781 22.179688 14.65625 C 22.140625 14.648438 22.132812 14.621094 22.132812 14.578125 C 22.128906 14.496094 22.199219 14.480469 22.191406 14.390625 C 22.1875 14.355469 22.171875 14.308594 22.179688 14.273438 C 22.1875 14.238281 22.222656 14.226562 22.21875 14.1875 C 22.164062 14.234375 22.132812 14.175781 22.085938 14.152344 L 22.085938 15.972656 L 23.804688 15.972656 C 23.773438 15.945312 23.816406 15.851562 23.855469 15.855469 C 23.863281 15.894531 23.867188 15.933594 23.875 15.972656 C 23.960938 15.964844 23.917969 15.898438 23.925781 15.84375 L 22.917969 15.84375 L 24.046875 15.117188 " fill-opacity="1" fill-rule="nonzero"/></g><g clip-path="url(#6ac998ace6)"><path fill="#202149" d="M 19.277344 14.980469 C 19.277344 15.070312 19.292969 15.144531 19.339844 15.222656 C 19.386719 15.300781 19.40625 15.410156 19.363281 15.496094 C 19.34375 15.539062 19.308594 15.570312 19.296875 15.613281 C 19.28125 15.683594 19.316406 15.707031 19.332031 15.769531 C 19.339844 15.792969 19.332031 15.820312 19.34375 15.84375 L 20.617188 15.84375 L 19.277344 14.980469 " fill-opacity="1" fill-rule="nonzero"/></g><g clip-path="url(#130df91063)"><path fill="#202149" d="M 19.5 16.585938 C 19.496094 16.59375 19.492188 16.601562 19.488281 16.613281 C 19.476562 16.660156 19.5 16.738281 19.527344 16.769531 C 19.566406 16.816406 19.605469 16.789062 19.652344 16.8125 C 19.65625 16.816406 19.65625 16.824219 19.65625 16.828125 C 19.746094 16.824219 19.773438 16.839844 19.835938 16.910156 C 19.851562 16.925781 19.867188 16.933594 19.875 16.957031 C 19.882812 16.96875 19.886719 17.011719 19.894531 17.015625 C 19.894531 17.019531 19.894531 17.019531 19.898438 17.019531 L 20.570312 16.585938 L 19.5 16.585938 " fill-opacity="1" fill-rule="nonzero"/></g><path fill="#202149" d="M 20.351562 17.46875 C 20.339844 17.507812 20.316406 17.539062 20.304688 17.574219 C 20.285156 17.621094 20.253906 17.628906 20.234375 17.667969 C 20.210938 17.714844 20.214844 17.921875 20.253906 17.957031 C 20.300781 17.996094 20.3125 17.9375 20.332031 17.878906 C 20.351562 17.828125 20.367188 17.773438 20.390625 17.722656 C 20.421875 17.640625 20.472656 17.539062 20.535156 17.480469 C 20.546875 17.46875 20.578125 17.460938 20.589844 17.449219 C 20.605469 17.429688 20.597656 17.40625 20.613281 17.390625 C 20.636719 17.367188 20.707031 17.34375 20.730469 17.355469 C 20.734375 17.402344 20.722656 17.453125 20.757812 17.488281 C 20.785156 17.515625 20.832031 17.503906 20.863281 17.523438 C 20.941406 17.578125 20.925781 17.679688 20.910156 17.765625 C 20.90625 17.792969 20.871094 17.902344 20.894531 17.925781 C 20.929688 17.976562 20.949219 17.855469 20.964844 17.832031 C 20.984375 17.796875 21.023438 17.765625 21.058594 17.769531 C 21.113281 17.773438 21.128906 17.835938 21.167969 17.871094 C 21.1875 17.890625 21.214844 17.898438 21.226562 17.90625 C 21.253906 17.933594 21.234375 17.925781 21.25 17.96875 C 21.25 17.972656 21.253906 17.972656 21.253906 17.976562 L 21.253906 16.886719 L 20.351562 17.46875 " fill-opacity="1" fill-rule="nonzero"/><g clip-path="url(#455e7b9c5a)"><path fill="#202149" d="M 22.257812 17.941406 C 22.292969 17.949219 22.328125 17.960938 22.339844 18.019531 C 22.351562 18.066406 22.335938 18.101562 22.339844 18.152344 C 22.34375 18.191406 22.363281 18.234375 22.371094 18.28125 C 22.375 18.332031 22.378906 18.394531 22.417969 18.324219 C 22.433594 18.296875 22.4375 18.238281 22.449219 18.199219 C 22.476562 18.203125 22.515625 18.234375 22.546875 18.246094 C 22.59375 18.261719 22.605469 18.261719 22.625 18.320312 C 22.648438 18.390625 22.652344 18.410156 22.734375 18.417969 C 22.828125 18.425781 22.769531 18.382812 22.800781 18.320312 C 22.828125 18.261719 22.871094 18.296875 22.882812 18.21875 C 22.890625 18.167969 22.878906 18.109375 22.882812 18.054688 C 22.882812 18.027344 22.875 18 22.894531 17.980469 C 22.921875 17.953125 22.9375 17.988281 22.964844 17.972656 C 23.015625 17.949219 22.980469 17.875 23.007812 17.828125 C 23.035156 17.773438 23.066406 17.789062 23.101562 17.785156 C 23.167969 17.777344 23.152344 17.746094 23.15625 17.675781 C 23.230469 17.667969 23.246094 17.625 23.246094 17.570312 L 22.257812 16.933594 L 22.257812 17.941406 " fill-opacity="1" fill-rule="nonzero"/></g><path fill="#202149" d="M 23.277344 14.871094 C 23.25 14.859375 23.226562 14.832031 23.207031 14.832031 C 23.164062 14.828125 23.105469 15.019531 23.070312 14.859375 C 23.011719 14.882812 22.921875 14.855469 22.894531 14.917969 C 22.878906 14.945312 22.894531 15.011719 22.875 15.039062 C 22.851562 15.0625 22.8125 15.03125 22.785156 15.023438 C 22.714844 15 22.652344 14.996094 22.59375 14.9375 C 22.542969 14.878906 22.503906 14.828125 22.4375 14.789062 C 22.441406 14.742188 22.460938 14.695312 22.433594 14.644531 C 22.375 14.640625 22.3125 14.570312 22.257812 14.601562 L 22.257812 15.527344 L 23.277344 14.871094 " fill-opacity="1" fill-rule="nonzero"/><path fill="#202149" d="M 21.253906 14.238281 C 21.230469 14.253906 21.199219 14.257812 21.183594 14.28125 C 21.171875 14.296875 21.171875 14.363281 21.167969 14.390625 C 21.113281 14.398438 21.09375 14.328125 21.035156 14.347656 C 20.976562 14.363281 21.007812 14.425781 20.964844 14.460938 C 20.863281 14.535156 20.832031 14.277344 20.832031 14.214844 C 20.839844 14.328125 20.75 14.417969 20.726562 14.519531 C 20.714844 14.570312 20.726562 14.636719 20.660156 14.625 C 20.613281 14.617188 20.601562 14.554688 20.566406 14.523438 C 20.523438 14.558594 20.46875 14.5625 20.417969 14.570312 C 20.34375 14.585938 20.332031 14.601562 20.289062 14.664062 C 20.25 14.726562 20.222656 14.714844 20.160156 14.730469 C 20.132812 14.738281 20.113281 14.75 20.089844 14.761719 L 21.253906 15.515625 L 21.253906 14.238281 " fill-opacity="1" fill-rule="nonzero"/><path fill="#202149" d="M 23.320312 16.875 C 23.332031 16.816406 23.339844 16.761719 23.417969 16.769531 C 23.417969 16.746094 23.425781 16.730469 23.4375 16.710938 C 23.519531 16.707031 23.507812 16.664062 23.546875 16.605469 C 23.554688 16.597656 23.578125 16.601562 23.585938 16.585938 L 22.875 16.585938 L 23.320312 16.875 " fill-opacity="1" fill-rule="nonzero"/><g clip-path="url(#911568313a)"><path fill="#202149" d="M 24.382812 15.648438 C 24.371094 15.621094 24.339844 15.617188 24.332031 15.589844 C 24.328125 15.566406 24.347656 15.527344 24.34375 15.515625 C 24.332031 15.464844 24.28125 15.480469 24.25 15.445312 C 24.207031 15.40625 24.238281 15.433594 24.238281 15.382812 C 24.234375 15.332031 24.246094 15.355469 24.207031 15.320312 C 24.195312 15.308594 24.171875 15.289062 24.15625 15.28125 C 24.117188 15.269531 24.070312 15.273438 24.042969 15.226562 C 24.015625 15.183594 24.046875 15.167969 24.046875 15.117188 L 22.917969 15.84375 L 23.925781 15.84375 C 23.925781 15.832031 23.933594 15.820312 23.945312 15.808594 C 23.933594 15.820312 23.925781 15.835938 23.929688 15.84375 L 24.011719 15.84375 C 24.015625 15.839844 24.023438 15.832031 24.03125 15.828125 C 24.078125 15.789062 24.117188 15.792969 24.167969 15.773438 C 24.21875 15.75 24.246094 15.746094 24.304688 15.742188 C 24.351562 15.738281 24.410156 15.722656 24.382812 15.648438 " fill-opacity="1" fill-rule="nonzero"/></g><path fill="#e52c33" d="M 22.320312 16.585938 L 23.242188 17.179688 C 23.242188 17.167969 23.242188 17.152344 23.242188 17.136719 C 23.226562 17.132812 23.214844 17.121094 23.199219 17.121094 C 23.207031 17.09375 23.214844 17.019531 23.230469 16.964844 L 22.644531 16.585938 L 22.320312 16.585938 " fill-opacity="1" fill-rule="nonzero"/><path fill="#e52c33" d="M 22.257812 15.84375 L 22.320312 15.84375 L 23.84375 14.863281 C 23.820312 14.847656 23.804688 14.828125 23.828125 14.773438 C 23.761719 14.835938 23.726562 14.839844 23.636719 14.84375 C 23.605469 14.847656 23.574219 14.847656 23.542969 14.851562 L 22.257812 15.675781 L 22.257812 15.84375 " fill-opacity="1" fill-rule="nonzero"/><g clip-path="url(#f3a3644335)"><path fill="#e52c33" d="M 19.308594 14.6875 C 19.308594 14.707031 19.3125 14.726562 19.316406 14.742188 C 19.316406 14.722656 19.316406 14.703125 19.308594 14.6875 " fill-opacity="1" fill-rule="nonzero"/></g><g clip-path="url(#a83419a0d7)"><path fill="#e52c33" d="M 21.171875 15.84375 L 19.59375 14.832031 C 19.566406 14.84375 19.535156 14.863281 19.5 14.863281 C 19.417969 14.871094 19.339844 14.828125 19.316406 14.742188 C 19.316406 14.777344 19.304688 14.8125 19.292969 14.84375 L 20.847656 15.84375 L 21.171875 15.84375 " fill-opacity="1" fill-rule="nonzero"/></g><path fill="#e52c33" d="M 21.253906 16.585938 L 21.171875 16.585938 L 20.222656 17.195312 C 20.234375 17.207031 20.242188 17.21875 20.25 17.230469 C 20.265625 17.25 20.261719 17.273438 20.285156 17.285156 C 20.296875 17.289062 20.320312 17.257812 20.339844 17.277344 C 20.351562 17.28125 20.355469 17.296875 20.359375 17.316406 L 21.253906 16.738281 L 21.253906 16.585938 " fill-opacity="1" fill-rule="nonzero"/><g clip-path="url(#a93c357389)"><path fill="#e52c33" d="M 22.085938 14.152344 C 22.074219 14.148438 22.066406 14.144531 22.054688 14.144531 C 21.980469 14.148438 21.953125 14.191406 21.882812 14.144531 C 21.835938 14.113281 21.75 14.078125 21.691406 14.105469 C 21.664062 14.117188 21.65625 14.148438 21.625 14.160156 C 21.59375 14.167969 21.5625 14.15625 21.53125 14.167969 C 21.566406 14.144531 21.59375 14.109375 21.582031 14.0625 C 21.527344 14.050781 21.476562 14.074219 21.429688 14.078125 L 21.429688 15.972656 L 19.382812 15.972656 C 19.375 16.035156 19.328125 16.097656 19.292969 16.132812 C 19.234375 16.1875 19.261719 16.320312 19.261719 16.320312 C 19.28125 16.375 19.320312 16.367188 19.363281 16.390625 C 19.414062 16.421875 19.429688 16.4375 19.488281 16.445312 C 19.503906 16.449219 19.527344 16.449219 19.546875 16.457031 L 21.429688 16.457031 L 21.429688 18.347656 C 21.433594 18.351562 21.4375 18.351562 21.441406 18.359375 C 21.460938 18.378906 21.480469 18.421875 21.511719 18.425781 C 21.550781 18.433594 21.542969 18.410156 21.566406 18.386719 C 21.589844 18.367188 21.617188 18.355469 21.636719 18.339844 C 21.667969 18.308594 21.660156 18.277344 21.683594 18.25 C 21.707031 18.222656 21.734375 18.226562 21.75 18.1875 C 21.765625 18.160156 21.761719 18.117188 21.769531 18.085938 C 21.800781 18.085938 21.835938 18.09375 21.863281 18.09375 C 21.886719 18.097656 21.875 18.109375 21.90625 18.097656 C 21.917969 18.09375 21.929688 18.070312 21.941406 18.0625 C 21.96875 18.042969 21.996094 18.035156 22.007812 18 C 22.019531 17.96875 22 17.929688 22.015625 17.894531 C 22.058594 17.953125 22.054688 17.867188 22.082031 17.855469 L 22.085938 17.851562 L 22.085938 16.457031 L 23.621094 16.457031 C 23.621094 16.453125 23.625 16.449219 23.625 16.445312 C 23.640625 16.390625 23.613281 16.3125 23.636719 16.253906 C 23.660156 16.199219 23.753906 16.234375 23.761719 16.160156 C 23.730469 16.144531 23.636719 16.171875 23.679688 16.105469 C 23.695312 16.082031 23.761719 16.089844 23.804688 16.078125 C 23.769531 16.023438 23.824219 16.023438 23.832031 15.980469 C 23.820312 15.980469 23.8125 15.980469 23.804688 15.972656 L 22.085938 15.972656 L 22.085938 14.152344 " fill-opacity="1" fill-rule="nonzero"/></g></svg>