<svg xmlns="http://www.w3.org/2000/svg" xmlns:xlink="http://www.w3.org/1999/xlink" width="67" zoomAndPan="magnify" viewBox="0 0 50.25 50.249998" height="67" preserveAspectRatio="xMidYMid meet" version="1.0"><defs><clipPath id="c4669ee9cb"><path d="M 0 0 L 49.511719 0 L 49.511719 49.511719 L 0 49.511719 Z M 0 0 " clip-rule="nonzero"/></clipPath><clipPath id="5bf89e3d60"><path d="M 7 1.113281 L 42 1.113281 L 42 48 L 7 48 Z M 7 1.113281 " clip-rule="nonzero"/></clipPath><clipPath id="096b4fc197"><path d="M 0 1.113281 L 49.511719 1.113281 L 49.511719 48.40625 L 0 48.40625 Z M 0 1.113281 " clip-rule="nonzero"/></clipPath></defs><g clip-path="url(#c4669ee9cb)"><path fill="#ffffff" d="M 0 0 L 49.511719 0 L 49.511719 49.511719 L 0 49.511719 Z M 0 0 " fill-opacity="1" fill-rule="nonzero"/><path fill="#ffffff" d="M 0 0 L 49.511719 0 L 49.511719 49.511719 L 0 49.511719 Z M 0 0 " fill-opacity="1" fill-rule="nonzero"/></g><path fill="#fec165" d="M 42.835938 36.308594 L 42.835938 33.976562 C 42.835938 33.613281 43.132812 33.324219 43.488281 33.324219 L 48.011719 33.324219 C 48.472656 33.324219 48.792969 33.785156 48.628906 34.210938 L 47.925781 36.078125 C 47.867188 36.222656 47.867188 36.394531 47.925781 36.539062 L 48.628906 38.40625 C 48.792969 38.839844 48.472656 39.292969 48.011719 39.292969 L 43.488281 39.292969 C 43.121094 39.292969 42.835938 38.992188 42.835938 38.636719 Z M 42.835938 36.308594 " fill-opacity="1" fill-rule="nonzero"/><path fill="#fec165" d="M 6.6875 36.308594 L 6.6875 33.976562 C 6.6875 33.613281 6.386719 33.324219 6.03125 33.324219 L 1.507812 33.324219 C 1.046875 33.324219 0.730469 33.785156 0.894531 34.210938 L 1.59375 36.078125 C 1.652344 36.222656 1.652344 36.394531 1.59375 36.539062 L 0.894531 38.40625 C 0.730469 38.839844 1.046875 39.292969 1.507812 39.292969 L 6.03125 39.292969 C 6.398438 39.292969 6.6875 38.992188 6.6875 38.636719 Z M 6.6875 36.308594 " fill-opacity="1" fill-rule="nonzero"/><path fill="#fdb441" d="M 48.636719 38.40625 C 48.800781 38.839844 48.484375 39.292969 48.019531 39.292969 L 45.761719 39.292969 C 46.222656 39.292969 46.539062 38.828125 46.375 38.40625 L 45.671875 36.539062 C 45.617188 36.394531 45.617188 36.222656 45.671875 36.078125 L 46.375 34.210938 C 46.539062 33.777344 46.222656 33.324219 45.761719 33.324219 L 48.019531 33.324219 C 48.484375 33.324219 48.800781 33.785156 48.636719 34.210938 L 47.933594 36.078125 C 47.878906 36.222656 47.878906 36.386719 47.933594 36.539062 Z M 48.636719 38.40625 " fill-opacity="1" fill-rule="nonzero"/><path fill="#fdb441" d="M 6.6875 33.976562 L 6.6875 38.636719 C 6.6875 39.003906 6.386719 39.292969 6.03125 39.292969 L 3.761719 39.292969 C 4.125 39.292969 4.414062 38.992188 4.414062 38.636719 L 4.414062 33.976562 C 4.414062 33.613281 4.117188 33.324219 3.761719 33.324219 L 6.023438 33.324219 C 6.386719 33.324219 6.6875 33.613281 6.6875 33.976562 Z M 6.6875 33.976562 " fill-opacity="1" fill-rule="nonzero"/><g clip-path="url(#5bf89e3d60)"><path fill="#c8effe" d="M 20.515625 2.242188 C 16.945312 2.761719 11.914062 3.625 8.542969 4.773438 C 8.160156 4.90625 7.898438 5.261719 7.898438 5.675781 L 7.898438 31.582031 C 7.898438 35.644531 9.824219 39.511719 13.222656 42.160156 C 15.878906 44.230469 19.640625 46.378906 24.769531 47.6875 C 29.890625 46.378906 33.652344 44.230469 36.320312 42.160156 C 39.714844 39.511719 41.640625 35.644531 41.640625 31.582031 L 41.640625 5.667969 C 41.640625 5.261719 41.382812 4.898438 40.996094 4.761719 C 37.609375 3.625 32.574219 2.761719 29.003906 2.242188 C 26.195312 1.835938 23.328125 1.835938 20.515625 2.242188 Z M 20.515625 2.242188 " fill-opacity="1" fill-rule="nonzero"/></g><path fill="#99e6fc" d="M 41.621094 5.667969 L 41.621094 31.570312 C 41.621094 35.632812 39.695312 39.503906 36.300781 42.152344 C 34.347656 43.671875 31.796875 45.230469 28.542969 46.484375 C 30.902344 45.367188 32.824219 44.078125 34.382812 42.824219 C 37.78125 40.082031 39.707031 36.058594 39.707031 31.839844 L 39.707031 4.925781 C 39.707031 4.695312 39.628906 4.472656 39.496094 4.308594 C 40.015625 4.453125 40.515625 4.609375 40.988281 4.773438 C 41.363281 4.898438 41.621094 5.261719 41.621094 5.667969 Z M 41.621094 5.667969 " fill-opacity="1" fill-rule="nonzero"/><path fill="#f9f7f8" d="M 21.304688 5.707031 C 18.3125 6.140625 14.050781 6.871094 11.304688 7.851562 C 11.140625 7.910156 11.035156 8.0625 11.035156 8.238281 L 11.035156 31.050781 C 11.035156 34.355469 12.605469 37.511719 15.367188 39.65625 C 17.53125 41.34375 20.59375 43.085938 24.761719 44.152344 C 28.925781 43.085938 31.988281 41.34375 34.152344 39.65625 C 36.914062 37.511719 38.484375 34.355469 38.484375 31.050781 L 38.484375 8.238281 C 38.484375 8.0625 38.378906 7.910156 38.214844 7.851562 C 35.472656 6.878906 31.207031 6.140625 28.214844 5.707031 C 25.925781 5.378906 23.597656 5.378906 21.304688 5.707031 Z M 21.304688 5.707031 " fill-opacity="1" fill-rule="nonzero"/><path fill="#efedef" d="M 38.484375 8.238281 L 38.484375 31.050781 C 38.484375 34.355469 36.914062 37.511719 34.152344 39.65625 C 32.277344 41.113281 29.726562 42.621094 26.367188 43.691406 C 28.800781 42.671875 30.726562 41.429688 32.230469 40.226562 C 34.992188 37.992188 36.558594 34.71875 36.558594 31.292969 L 36.558594 7.613281 C 36.558594 7.496094 36.511719 7.390625 36.445312 7.3125 C 37.078125 7.488281 37.675781 7.667969 38.214844 7.863281 C 38.378906 7.910156 38.484375 8.0625 38.484375 8.238281 Z M 38.484375 8.238281 " fill-opacity="1" fill-rule="nonzero"/><path fill="#fedba6" d="M 44.363281 35.605469 L 5.15625 35.605469 C 4.828125 35.605469 4.558594 35.335938 4.558594 35.007812 L 4.558594 27.644531 C 4.558594 27.316406 4.828125 27.046875 5.15625 27.046875 L 44.363281 27.046875 C 44.691406 27.046875 44.960938 27.316406 44.960938 27.644531 L 44.960938 35.007812 C 44.960938 35.335938 44.691406 35.605469 44.363281 35.605469 Z M 44.363281 35.605469 " fill-opacity="1" fill-rule="nonzero"/><path fill="#fece85" d="M 44.960938 27.644531 L 44.960938 35.007812 C 44.960938 35.335938 44.703125 35.605469 44.375 35.605469 L 42.449219 35.605469 C 42.777344 35.605469 43.035156 35.335938 43.035156 35.007812 L 43.035156 27.644531 C 43.035156 27.316406 42.777344 27.046875 42.449219 27.046875 L 44.375 27.046875 C 44.691406 27.058594 44.960938 27.316406 44.960938 27.644531 Z M 44.960938 27.644531 " fill-opacity="1" fill-rule="nonzero"/><path fill="#8d9ca8" d="M 24.171875 15.503906 L 17.996094 15.503906 L 17.996094 20.644531 C 17.996094 20.984375 18.214844 21.28125 18.535156 21.378906 C 19.0625 21.542969 19.792969 21.773438 19.898438 21.800781 C 22.875 22.667969 27.023438 22.707031 29.917969 21.273438 C 30.179688 21.144531 30.34375 20.875 30.34375 20.589844 L 30.34375 15.503906 Z M 24.171875 15.503906 " fill-opacity="1" fill-rule="nonzero"/><path fill="#7a8c98" d="M 30.34375 15.503906 L 30.34375 20.589844 C 30.34375 20.875 30.179688 21.144531 29.929688 21.273438 C 29.429688 21.523438 28.878906 21.722656 28.3125 21.886719 C 28.378906 21.773438 28.417969 21.636719 28.417969 21.492188 L 28.417969 15.496094 Z M 30.34375 15.503906 " fill-opacity="1" fill-rule="nonzero"/><path fill="#596c76" d="M 23.796875 9.855469 L 13.90625 14.042969 C 13.75 14.109375 13.75 14.320312 13.90625 14.378906 L 23.796875 18.574219 C 24.039062 18.671875 24.308594 18.671875 24.539062 18.574219 L 34.433594 14.390625 C 34.585938 14.320312 34.585938 14.109375 34.433594 14.050781 L 24.539062 9.863281 C 24.296875 9.757812 24.039062 9.757812 23.796875 9.855469 Z M 23.796875 9.855469 " fill-opacity="1" fill-rule="nonzero"/><path fill="#465a61" d="M 34.433594 14.390625 L 24.539062 18.574219 C 24.296875 18.683594 24.027344 18.683594 23.796875 18.574219 L 22.304688 17.941406 L 30.707031 14.390625 C 30.863281 14.320312 30.863281 14.109375 30.707031 14.050781 L 22.304688 10.5 L 23.796875 9.863281 C 24.039062 9.769531 24.308594 9.769531 24.539062 9.863281 L 34.433594 14.050781 C 34.585938 14.109375 34.585938 14.320312 34.433594 14.390625 Z M 34.433594 14.390625 " fill-opacity="1" fill-rule="nonzero"/><path fill="#596c76" d="M 34.546875 22.734375 C 33.894531 22.734375 33.363281 22.207031 33.363281 21.550781 L 33.363281 20.144531 C 33.363281 19.492188 33.894531 18.960938 34.546875 18.960938 C 35.203125 18.960938 35.730469 19.492188 35.730469 20.144531 L 35.730469 21.550781 C 35.730469 22.207031 35.203125 22.734375 34.546875 22.734375 Z M 34.546875 22.734375 " fill-opacity="1" fill-rule="nonzero"/><path fill="#000000" d="M 21.585938 32.628906 C 21.574219 32.628906 21.574219 32.628906 21.585938 32.628906 C 21.34375 32.628906 21.101562 32.628906 20.882812 32.628906 L 20.882812 29.300781 C 20.882812 28.90625 20.554688 28.578125 20.160156 28.578125 C 19.765625 28.578125 19.4375 28.90625 19.4375 29.300781 L 19.4375 33.351562 C 19.4375 33.699219 19.6875 34.007812 20.035156 34.066406 C 20.082031 34.074219 20.121094 34.074219 20.582031 34.074219 C 20.804688 34.074219 21.121094 34.074219 21.585938 34.074219 C 21.980469 34.074219 22.304688 33.746094 22.304688 33.351562 C 22.296875 32.949219 21.980469 32.628906 21.585938 32.628906 Z M 21.585938 32.628906 " fill-opacity="1" fill-rule="nonzero"/><path fill="#000000" d="M 26.269531 32.628906 C 26.03125 32.628906 25.789062 32.628906 25.570312 32.628906 L 25.570312 29.300781 C 25.570312 28.90625 25.242188 28.578125 24.847656 28.578125 C 24.453125 28.578125 24.125 28.90625 24.125 29.300781 L 24.125 33.351562 C 24.125 33.699219 24.375 34.007812 24.722656 34.066406 C 24.769531 34.074219 24.808594 34.074219 25.269531 34.074219 C 25.492188 34.074219 25.808594 34.074219 26.269531 34.074219 C 26.664062 34.074219 26.992188 33.746094 26.992188 33.351562 C 26.992188 32.949219 26.675781 32.628906 26.269531 32.628906 Z M 26.269531 32.628906 " fill-opacity="1" fill-rule="nonzero"/><path fill="#000000" d="M 30.871094 30.058594 C 31.265625 30.058594 31.59375 29.734375 31.59375 29.339844 C 31.59375 28.945312 31.265625 28.617188 30.871094 28.617188 L 29.175781 28.617188 C 28.78125 28.617188 28.457031 28.945312 28.457031 29.339844 L 28.457031 33.363281 C 28.457031 33.757812 28.78125 34.085938 29.175781 34.085938 L 30.871094 34.085938 C 31.265625 34.085938 31.59375 33.757812 31.59375 33.363281 C 31.59375 32.96875 31.265625 32.640625 30.871094 32.640625 L 29.898438 32.640625 L 29.898438 32.070312 L 30.746094 32.070312 C 31.140625 32.070312 31.46875 31.746094 31.46875 31.351562 C 31.46875 30.957031 31.140625 30.628906 30.746094 30.628906 L 29.898438 30.628906 L 29.898438 30.058594 Z M 30.871094 30.058594 " fill-opacity="1" fill-rule="nonzero"/><path fill="#000000" d="M 41.957031 30.058594 C 42.351562 30.058594 42.679688 29.734375 42.679688 29.339844 C 42.679688 28.945312 42.351562 28.617188 41.957031 28.617188 L 40.265625 28.617188 C 39.871094 28.617188 39.542969 28.945312 39.542969 29.339844 L 39.542969 33.363281 C 39.542969 33.757812 39.871094 34.085938 40.265625 34.085938 L 41.957031 34.085938 C 42.351562 34.085938 42.679688 33.757812 42.679688 33.363281 C 42.679688 32.96875 42.351562 32.640625 41.957031 32.640625 L 40.988281 32.640625 L 40.988281 32.070312 L 41.832031 32.070312 C 42.226562 32.070312 42.554688 31.746094 42.554688 31.351562 C 42.554688 30.957031 42.226562 30.628906 41.832031 30.628906 L 40.988281 30.628906 L 40.988281 30.058594 Z M 41.957031 30.058594 " fill-opacity="1" fill-rule="nonzero"/><path fill="#000000" d="M 37.464844 30.609375 L 36.25 30.609375 C 35.855469 30.609375 35.53125 30.9375 35.53125 31.332031 C 35.53125 31.726562 35.855469 32.054688 36.25 32.054688 L 36.597656 32.054688 C 36.464844 32.359375 36.203125 32.640625 35.710938 32.640625 C 34.992188 32.640625 34.402344 32.054688 34.402344 31.332031 C 34.402344 30.609375 34.992188 30.023438 35.710938 30.023438 C 35.972656 30.023438 36.222656 30.097656 36.445312 30.242188 C 36.769531 30.464844 37.222656 30.378906 37.445312 30.050781 C 37.667969 29.722656 37.578125 29.269531 37.253906 29.050781 C 36.800781 28.742188 36.261719 28.578125 35.710938 28.578125 C 34.191406 28.578125 32.960938 29.808594 32.960938 31.332031 C 32.960938 32.851562 34.191406 34.085938 35.710938 34.085938 C 37.164062 34.085938 38.1875 32.957031 38.1875 31.332031 C 38.1875 30.925781 37.859375 30.609375 37.464844 30.609375 Z M 37.464844 30.609375 " fill-opacity="1" fill-rule="nonzero"/><path fill="#000000" d="M 11.335938 32.226562 C 11.027344 31.964844 10.574219 32.015625 10.316406 32.3125 C 10.285156 32.351562 10.257812 32.378906 10.226562 32.410156 C 10.066406 32.554688 9.851562 32.628906 9.59375 32.628906 C 8.871094 32.628906 8.285156 32.042969 8.285156 31.320312 C 8.285156 30.597656 8.871094 30.011719 9.59375 30.011719 C 9.851562 30.011719 10.101562 30.089844 10.324219 30.234375 C 10.652344 30.453125 11.105469 30.367188 11.324219 30.042969 C 11.546875 29.714844 11.460938 29.261719 11.132812 29.039062 C 10.679688 28.730469 10.140625 28.566406 9.59375 28.566406 C 8.074219 28.566406 6.839844 29.800781 6.839844 31.320312 C 6.839844 32.84375 8.074219 34.074219 9.59375 34.074219 C 10.207031 34.074219 10.757812 33.871094 11.179688 33.488281 C 11.265625 33.410156 11.34375 33.332031 11.421875 33.238281 C 11.671875 32.9375 11.632812 32.484375 11.335938 32.226562 Z M 11.335938 32.226562 " fill-opacity="1" fill-rule="nonzero"/><path fill="#000000" d="M 15.414062 28.578125 C 13.894531 28.578125 12.664062 29.808594 12.664062 31.332031 C 12.664062 32.851562 13.894531 34.085938 15.414062 34.085938 C 16.9375 34.085938 18.167969 32.851562 18.167969 31.332031 C 18.167969 29.808594 16.9375 28.578125 15.414062 28.578125 Z M 15.414062 32.628906 C 14.695312 32.628906 14.105469 32.042969 14.105469 31.320312 C 14.105469 30.597656 14.695312 30.011719 15.414062 30.011719 C 16.136719 30.011719 16.722656 30.597656 16.722656 31.320312 C 16.722656 32.042969 16.136719 32.628906 15.414062 32.628906 Z M 15.414062 32.628906 " fill-opacity="1" fill-rule="nonzero"/><g clip-path="url(#096b4fc197)"><path fill="#000000" d="M 48.617188 36.308594 L 49.3125 34.460938 C 49.464844 34.035156 49.40625 33.5625 49.15625 33.1875 C 48.898438 32.8125 48.472656 32.59375 48.019531 32.59375 L 45.683594 32.59375 L 45.683594 27.644531 C 45.683594 26.921875 45.097656 26.335938 44.375 26.335938 L 42.351562 26.335938 L 42.351562 12.886719 C 42.351562 12.492188 42.027344 12.164062 41.632812 12.164062 C 41.238281 12.164062 40.910156 12.492188 40.910156 12.886719 L 40.910156 26.335938 L 39.214844 26.335938 L 39.214844 8.238281 C 39.214844 7.765625 38.917969 7.332031 38.464844 7.179688 C 35.683594 6.1875 31.421875 5.445312 28.332031 5.003906 C 25.972656 4.65625 23.578125 4.65625 21.210938 5.003906 C 18.121094 5.457031 13.847656 6.1875 11.074219 7.179688 C 10.621094 7.34375 10.324219 7.765625 10.324219 8.238281 L 10.324219 26.335938 L 8.621094 26.335938 L 8.621094 5.667969 C 8.621094 5.570312 8.679688 5.484375 8.773438 5.445312 C 12.085938 4.320312 17.042969 3.472656 20.621094 2.953125 C 23.375 2.558594 26.15625 2.558594 28.910156 2.953125 C 32.488281 3.472656 37.445312 4.320312 40.753906 5.445312 C 40.851562 5.476562 40.910156 5.5625 40.910156 5.667969 L 40.910156 9.507812 C 40.910156 9.902344 41.238281 10.230469 41.632812 10.230469 C 42.027344 10.230469 42.351562 9.902344 42.351562 9.507812 L 42.351562 5.667969 C 42.351562 4.945312 41.902344 4.308594 41.21875 4.078125 C 37.800781 2.921875 32.757812 2.046875 29.121094 1.527344 C 26.234375 1.113281 23.308594 1.113281 20.417969 1.527344 C 16.773438 2.058594 11.71875 2.921875 8.3125 4.089844 C 7.640625 4.320312 7.175781 4.953125 7.175781 5.675781 L 7.175781 26.34375 L 5.15625 26.34375 C 4.433594 26.34375 3.847656 26.933594 3.847656 27.652344 L 3.847656 32.601562 L 1.5 32.601562 C 1.046875 32.601562 0.625 32.824219 0.363281 33.199219 C 0.105469 33.574219 0.046875 34.046875 0.210938 34.46875 L 0.902344 36.316406 L 0.210938 38.164062 C 0.0546875 38.589844 0.113281 39.0625 0.363281 39.4375 C 0.625 39.8125 1.046875 40.035156 1.5 40.035156 L 6.023438 40.035156 C 6.78125 40.035156 7.398438 39.417969 7.398438 38.65625 L 7.398438 36.335938 L 8.023438 36.335938 C 8.9375 38.800781 10.554688 41.015625 12.757812 42.730469 C 16.097656 45.328125 20.074219 47.234375 24.566406 48.390625 C 24.625 48.40625 24.683594 48.40625 24.75 48.40625 C 24.816406 48.40625 24.875 48.398438 24.933594 48.390625 C 29.429688 47.234375 33.402344 45.335938 36.742188 42.730469 C 38.945312 41.015625 40.5625 38.800781 41.476562 36.335938 L 42.101562 36.335938 L 42.101562 38.65625 C 42.101562 39.417969 42.71875 40.035156 43.480469 40.035156 L 48.003906 40.035156 C 48.453125 40.035156 48.878906 39.8125 49.136719 39.4375 C 49.398438 39.0625 49.457031 38.589844 49.292969 38.164062 Z M 11.757812 8.457031 C 14.433594 7.542969 18.457031 6.851562 21.410156 6.425781 C 23.632812 6.109375 25.894531 6.109375 28.117188 6.425781 C 31.0625 6.851562 35.097656 7.554688 37.773438 8.457031 L 37.773438 26.335938 L 11.757812 26.335938 Z M 5.964844 38.578125 L 1.59375 38.578125 L 2.257812 36.796875 C 2.375 36.492188 2.375 36.144531 2.257812 35.828125 L 1.59375 34.046875 L 3.835938 34.046875 L 3.835938 35.007812 C 3.835938 35.730469 4.425781 36.316406 5.148438 36.316406 L 5.957031 36.316406 L 5.957031 38.578125 Z M 35.855469 41.574219 C 32.71875 44.019531 28.984375 45.820312 24.761719 46.925781 C 20.535156 45.820312 16.800781 44.019531 13.664062 41.574219 C 11.824219 40.140625 10.441406 38.328125 9.59375 36.316406 L 11.644531 36.316406 C 12.421875 37.800781 13.539062 39.128906 14.933594 40.214844 C 17.667969 42.34375 20.921875 43.902344 24.597656 44.847656 C 24.65625 44.867188 24.710938 44.867188 24.78125 44.867188 C 24.847656 44.867188 24.90625 44.855469 24.960938 44.847656 C 28.640625 43.902344 31.882812 42.34375 34.625 40.214844 C 36.019531 39.128906 37.136719 37.800781 37.917969 36.316406 L 39.964844 36.316406 C 39.082031 38.339844 37.695312 40.148438 35.855469 41.574219 Z M 20.699219 34.882812 C 20.304688 34.882812 19.976562 35.210938 19.976562 35.605469 C 19.976562 36 20.304688 36.328125 20.699219 36.328125 L 36.222656 36.328125 C 35.566406 37.355469 34.730469 38.289062 33.710938 39.089844 C 31.179688 41.0625 28.167969 42.515625 24.761719 43.410156 C 21.351562 42.515625 18.339844 41.0625 15.808594 39.089844 C 14.789062 38.300781 13.953125 37.367188 13.296875 36.328125 L 17.339844 36.328125 C 17.734375 36.328125 18.0625 36 18.0625 35.605469 C 18.0625 35.210938 17.734375 34.882812 17.339844 34.882812 L 5.28125 34.882812 L 5.28125 27.777344 L 44.230469 27.777344 L 44.230469 34.882812 Z M 47.261719 36.789062 L 47.925781 38.570312 L 43.554688 38.570312 L 43.554688 36.316406 L 44.363281 36.316406 C 45.085938 36.316406 45.671875 35.730469 45.671875 35.007812 L 45.671875 34.046875 L 47.914062 34.046875 L 47.25 35.828125 C 47.136719 36.132812 47.136719 36.480469 47.261719 36.789062 Z M 47.261719 36.789062 " fill-opacity="1" fill-rule="nonzero"/></g><path fill="#000000" d="M 35.269531 18.382812 C 35.269531 18.382812 35.269531 14.226562 35.269531 14.226562 C 35.269531 14.226562 35.269531 14.226562 35.269531 14.214844 C 35.269531 14.207031 35.269531 14.195312 35.269531 14.1875 C 35.269531 14.167969 35.269531 14.15625 35.269531 14.136719 C 35.242188 13.800781 35.039062 13.511719 34.722656 13.378906 L 24.816406 9.191406 C 24.402344 9.015625 23.921875 9.015625 23.507812 9.191406 L 13.617188 13.378906 C 13.277344 13.523438 13.058594 13.851562 13.058594 14.214844 C 13.058594 14.582031 13.277344 14.910156 13.617188 15.054688 L 17.261719 16.601562 L 17.261719 20.65625 C 17.261719 21.308594 17.6875 21.886719 18.3125 22.082031 C 18.878906 22.253906 19.582031 22.476562 19.699219 22.503906 C 21.035156 22.898438 22.679688 23.140625 24.375 23.140625 C 26.394531 23.140625 28.496094 22.792969 30.238281 21.925781 C 30.738281 21.675781 31.054688 21.15625 31.054688 20.597656 L 31.054688 16.601562 L 33.816406 15.4375 L 33.816406 18.394531 C 33.125 18.683594 32.632812 19.355469 32.632812 20.15625 L 32.632812 21.558594 C 32.632812 22.609375 33.488281 23.464844 34.539062 23.464844 C 35.585938 23.464844 36.445312 22.609375 36.445312 21.558594 L 36.445312 20.15625 C 36.453125 19.347656 35.960938 18.671875 35.269531 18.382812 Z M 29.621094 20.589844 C 29.621094 20.605469 29.609375 20.625 29.601562 20.625 C 26.761719 22.03125 22.691406 21.867188 20.113281 21.109375 C 20.035156 21.089844 19.535156 20.933594 18.753906 20.695312 C 18.734375 20.683594 18.726562 20.664062 18.726562 20.644531 L 18.726562 17.199219 L 23.527344 19.230469 C 23.738281 19.316406 23.960938 19.367188 24.183594 19.367188 C 24.402344 19.367188 24.625 19.316406 24.835938 19.230469 L 29.640625 17.199219 Z M 24.78125 14.945312 L 31.257812 14.945312 L 24.261719 17.902344 C 24.203125 17.929688 24.136719 17.929688 24.078125 17.902344 L 15.347656 14.214844 L 24.078125 10.519531 C 24.136719 10.488281 24.203125 10.488281 24.261719 10.519531 L 31.304688 13.503906 L 24.769531 13.503906 C 24.375 13.503906 24.046875 13.832031 24.046875 14.226562 C 24.058594 14.628906 24.375 14.945312 24.78125 14.945312 Z M 35.011719 21.550781 C 35.011719 21.800781 34.808594 22.011719 34.546875 22.011719 C 34.289062 22.011719 34.085938 21.8125 34.085938 21.550781 L 34.085938 20.144531 C 34.085938 19.894531 34.289062 19.683594 34.546875 19.683594 C 34.796875 19.683594 35.011719 19.886719 35.011719 20.144531 Z M 35.011719 21.550781 " fill-opacity="1" fill-rule="nonzero"/></svg>