<svg xmlns="http://www.w3.org/2000/svg" xmlns:xlink="http://www.w3.org/1999/xlink" width="67" zoomAndPan="magnify" viewBox="0 0 50.25 50.249998" height="67" preserveAspectRatio="xMidYMid meet" version="1.0"><defs><filter x="0%" y="0%" width="100%" height="100%" id="30684d137b"><feColorMatrix values="0 0 0 0 1 0 0 0 0 1 0 0 0 0 1 0 0 0 1 0" color-interpolation-filters="sRGB"/></filter><clipPath id="0ce995050f"><path d="M 0 0 L 49.511719 0 L 49.511719 49.511719 L 0 49.511719 Z M 0 0 " clip-rule="nonzero"/></clipPath><clipPath id="5d66176f40"><path d="M 40 26 L 49.511719 26 L 49.511719 37 L 40 37 Z M 40 26 " clip-rule="nonzero"/></clipPath><clipPath id="b657dc2b76"><path d="M 7 41 L 47 41 L 47 41.757812 L 7 41.757812 Z M 7 41 " clip-rule="nonzero"/></clipPath><clipPath id="4349cce5fa"><path d="M 25 7.765625 L 35 7.765625 L 35 18 L 25 18 Z M 25 7.765625 " clip-rule="nonzero"/></clipPath><clipPath id="268f55ac38"><path d="M 14 38 L 24 38 L 24 41.757812 L 14 41.757812 Z M 14 38 " clip-rule="nonzero"/></clipPath><clipPath id="e9f34b9777"><path d="M 19 28 L 34 28 L 34 41.757812 L 19 41.757812 Z M 19 28 " clip-rule="nonzero"/></clipPath><clipPath id="bd1ccb26ff"><path d="M 30 31 L 41 31 L 41 41.757812 L 30 41.757812 Z M 30 31 " clip-rule="nonzero"/></clipPath><mask id="b5f9f478bb"><g filter="url(#30684d137b)"><rect x="-5.025" width="60.3" fill="#000000" y="-5.025" height="60.299998" fill-opacity="0.3"/></g></mask><clipPath id="fb00e0f2d5"><path d="M 0.0585938 0.628906 L 13.300781 0.628906 L 13.300781 14.34375 L 0.0585938 14.34375 Z M 0.0585938 0.628906 " clip-rule="nonzero"/></clipPath><clipPath id="7aab5fcd0e"><rect x="0" width="14" y="0" height="15"/></clipPath><mask id="b78a0c56ac"><g filter="url(#30684d137b)"><rect x="-5.025" width="60.3" fill="#000000" y="-5.025" height="60.299998" fill-opacity="0.3"/></g></mask><clipPath id="51eebc35c7"><path d="M 0.03125 0.335938 L 3.34375 0.335938 L 3.34375 3 L 0.03125 3 Z M 0.03125 0.335938 " clip-rule="nonzero"/></clipPath><clipPath id="7c492130f2"><rect x="0" width="4" y="0" height="4"/></clipPath></defs><g clip-path="url(#0ce995050f)"><path fill="#ffffff" d="M 0 0 L 49.511719 0 L 49.511719 49.511719 L 0 49.511719 Z M 0 0 " fill-opacity="1" fill-rule="nonzero"/><path fill="#ffffff" d="M 0 0 L 49.511719 0 L 49.511719 49.511719 L 0 49.511719 Z M 0 0 " fill-opacity="1" fill-rule="nonzero"/></g><path fill="#f5f5f5" d="M 38.652344 17.363281 L 40.292969 18.1875 L 40.46875 17.84375 L 40.464844 17.84375 L 42.566406 13.683594 L 38.375 11.515625 L 37.53125 13.144531 C 37.460938 13.296875 37.253906 13.324219 37.097656 13.246094 C 37.019531 13.207031 36.964844 13.132812 36.9375 13.054688 C 36.898438 12.925781 36.804688 12.734375 36.628906 12.648438 C 36.359375 12.515625 36.066406 12.628906 35.921875 12.925781 C 35.773438 13.21875 35.84375 13.480469 36.132812 13.65625 C 36.347656 13.789062 36.523438 13.707031 36.652344 13.664062 C 36.730469 13.632812 36.8125 13.632812 36.890625 13.671875 C 37.046875 13.75 37.117188 13.925781 37.042969 14.078125 L 36.085938 16.03125 L 36.71875 16.351562 L 37.667969 16.839844 C 37.820312 16.921875 37.882812 17.105469 37.804688 17.253906 C 37.765625 17.328125 37.675781 17.367188 37.59375 17.390625 C 37.460938 17.421875 37.28125 17.507812 37.191406 17.675781 C 37.054688 17.929688 37.175781 18.222656 37.476562 18.386719 C 37.78125 18.546875 38.113281 18.484375 38.25 18.226562 C 38.339844 18.0625 38.292969 17.839844 38.242188 17.714844 C 38.214844 17.636719 38.214844 17.558594 38.253906 17.484375 C 38.332031 17.335938 38.5 17.28125 38.652344 17.363281 " fill-opacity="1" fill-rule="nonzero"/><path fill="#f5f5f5" d="M 1.953125 37.523438 L 1.972656 39.988281 L 2.488281 39.988281 L 2.488281 39.984375 L 8.75 39.957031 L 8.777344 33.609375 L 6.3125 33.597656 C 6.089844 33.601562 5.929688 33.375 5.925781 33.140625 C 5.921875 33.023438 5.976562 32.910156 6.058594 32.828125 C 6.1875 32.703125 6.359375 32.476562 6.355469 32.210938 C 6.347656 31.804688 6.03125 31.523438 5.589844 31.53125 C 5.148438 31.539062 4.878906 31.777344 4.84375 32.234375 C 4.820312 32.570312 5.023438 32.734375 5.15625 32.859375 C 5.238281 32.9375 5.289062 33.03125 5.292969 33.148438 C 5.292969 33.382812 5.125 33.578125 4.898438 33.582031 L 1.976562 33.632812 L 1.980469 34.582031 L 1.976562 36.019531 C 1.972656 36.253906 1.789062 36.441406 1.5625 36.4375 C 1.453125 36.4375 1.351562 36.355469 1.277344 36.269531 C 1.15625 36.128906 0.941406 35.964844 0.6875 35.960938 C 0.296875 35.957031 0.0195312 36.277344 0.0117188 36.738281 C 0.0078125 37.203125 0.285156 37.5625 0.675781 37.570312 C 0.925781 37.574219 1.160156 37.378906 1.285156 37.246094 C 1.359375 37.160156 1.453125 37.113281 1.566406 37.117188 C 1.789062 37.121094 1.957031 37.289062 1.953125 37.523438 " fill-opacity="1" fill-rule="nonzero"/><g clip-path="url(#5d66176f40)"><path fill="#ececec" d="M 47.449219 29.085938 C 47.25 28.9375 46.976562 28.972656 46.835938 29.160156 C 46.769531 29.253906 46.742188 29.375 46.769531 29.492188 C 46.808594 29.679688 46.839844 29.976562 46.6875 30.1875 C 46.445312 30.515625 46 30.542969 45.609375 30.253906 C 45.214844 29.96875 45.105469 29.535156 45.347656 29.207031 C 45.503906 28.996094 45.796875 28.9375 45.988281 28.921875 C 46.109375 28.910156 46.214844 28.847656 46.285156 28.753906 C 46.398438 28.597656 46.382812 28.382812 46.253906 28.230469 L 44.578125 27.046875 L 44.125 26.734375 L 42.375 29.1875 C 42.242188 29.382812 42.304688 29.644531 42.507812 29.785156 C 42.609375 29.855469 42.722656 29.871094 42.839844 29.847656 C 43.027344 29.808594 43.292969 29.738281 43.5625 29.960938 C 43.933594 30.269531 43.980469 30.644531 43.71875 31.023438 C 43.457031 31.402344 43.027344 31.5 42.671875 31.257812 C 42.445312 31.101562 42.351562 30.816406 42.320312 30.628906 C 42.300781 30.511719 42.238281 30.398438 42.136719 30.328125 C 41.949219 30.199219 41.691406 30.1875 41.546875 30.332031 C 41.539062 30.347656 41.53125 30.367188 41.519531 30.382812 L 40.015625 32.460938 L 45.503906 36.328125 L 49.503906 30.5625 Z M 47.449219 29.085938 " fill-opacity="1" fill-rule="nonzero"/></g><path fill="#ececec" d="M 3.65625 14.324219 C 3.464844 14.480469 3.425781 14.753906 3.570312 14.9375 C 3.644531 15.027344 3.753906 15.085938 3.871094 15.089844 C 4.0625 15.097656 4.359375 15.144531 4.523438 15.351562 C 4.773438 15.671875 4.683594 16.105469 4.304688 16.410156 C 3.921875 16.714844 3.476562 16.703125 3.226562 16.386719 C 3.0625 16.179688 3.082031 15.878906 3.117188 15.691406 C 3.136719 15.574219 3.105469 15.457031 3.035156 15.363281 C 2.914062 15.210938 2.699219 15.171875 2.519531 15.253906 L 0.9375 16.5625 L 0.515625 16.917969 L 2.425781 19.25 C 2.578125 19.429688 2.847656 19.4375 3.035156 19.277344 C 3.128906 19.199219 3.175781 19.09375 3.183594 18.972656 C 3.195312 18.785156 3.195312 18.511719 3.484375 18.308594 C 3.878906 18.03125 4.25 18.085938 4.546875 18.4375 C 4.847656 18.789062 4.828125 19.230469 4.5 19.507812 C 4.289062 19.6875 3.992188 19.699219 3.800781 19.683594 C 3.683594 19.671875 3.554688 19.703125 3.460938 19.78125 C 3.289062 19.925781 3.210938 20.171875 3.3125 20.351562 C 3.324219 20.363281 3.339844 20.375 3.351562 20.394531 L 4.960938 22.390625 L 10.132812 18.105469 L 5.621094 12.726562 Z M 3.65625 14.324219 " fill-opacity="1" fill-rule="nonzero"/><g clip-path="url(#b657dc2b76)"><path fill="#1a2e35" d="M 46.390625 41.636719 C 46.390625 41.660156 37.75 41.679688 27.09375 41.679688 C 16.433594 41.679688 7.796875 41.660156 7.796875 41.636719 C 7.796875 41.609375 16.433594 41.589844 27.09375 41.589844 C 37.75 41.589844 46.390625 41.609375 46.390625 41.636719 " fill-opacity="1" fill-rule="nonzero"/></g><g clip-path="url(#4349cce5fa)"><path fill="#ffffff" d="M 25.070312 15.566406 L 25.667969 14.261719 C 25.328125 13.410156 25.238281 12.441406 25.476562 11.464844 C 26.015625 9.269531 28.125 7.765625 30.375 7.984375 C 33.199219 8.257812 35.105469 10.972656 34.394531 13.726562 C 33.828125 15.933594 31.671875 17.40625 29.410156 17.140625 C 28.253906 17.003906 27.257812 16.453125 26.542969 15.664062 Z M 25.070312 15.566406 " fill-opacity="1" fill-rule="nonzero"/><path fill="#1a2e35" d="M 25.070312 15.566406 C 25.070312 15.566406 25.105469 15.566406 25.171875 15.566406 C 25.238281 15.570312 25.335938 15.578125 25.457031 15.582031 C 25.707031 15.597656 26.074219 15.617188 26.546875 15.644531 L 26.523438 15.675781 L 26.523438 15.671875 C 26.519531 15.664062 26.523438 15.648438 26.53125 15.644531 C 26.542969 15.640625 26.550781 15.640625 26.558594 15.648438 C 26.957031 16.078125 27.570312 16.582031 28.433594 16.878906 C 28.859375 17.03125 29.351562 17.117188 29.871094 17.125 C 30.390625 17.132812 30.949219 17.050781 31.496094 16.851562 C 32.042969 16.652344 32.578125 16.335938 33.039062 15.902344 C 33.503906 15.472656 33.894531 14.925781 34.152344 14.296875 C 34.675781 13.046875 34.613281 11.449219 33.8125 10.179688 L 33.664062 9.945312 L 33.492188 9.722656 C 33.382812 9.570312 33.242188 9.449219 33.121094 9.3125 C 32.855469 9.058594 32.570312 8.828125 32.257812 8.652344 C 31.636719 8.285156 30.949219 8.074219 30.269531 8.023438 C 29.585938 7.976562 28.917969 8.085938 28.324219 8.3125 C 27.730469 8.539062 27.207031 8.882812 26.785156 9.285156 C 25.9375 10.097656 25.511719 11.132812 25.410156 12.03125 C 25.296875 12.941406 25.476562 13.710938 25.6875 14.253906 C 25.6875 14.261719 25.6875 14.265625 25.6875 14.273438 C 25.492188 14.6875 25.339844 15.007812 25.234375 15.226562 C 25.183594 15.335938 25.144531 15.417969 25.113281 15.476562 C 25.085938 15.535156 25.070312 15.566406 25.070312 15.566406 C 25.070312 15.566406 25.082031 15.539062 25.105469 15.484375 C 25.132812 15.421875 25.167969 15.339844 25.214844 15.234375 C 25.316406 15.007812 25.460938 14.679688 25.648438 14.253906 L 25.648438 14.269531 C 25.425781 13.726562 25.238281 12.945312 25.34375 12.023438 C 25.441406 11.113281 25.867188 10.058594 26.726562 9.226562 C 27.15625 8.8125 27.6875 8.460938 28.292969 8.226562 C 28.898438 7.996094 29.578125 7.882812 30.273438 7.929688 C 30.96875 7.980469 31.671875 8.191406 32.308594 8.566406 C 32.628906 8.746094 32.917969 8.984375 33.191406 9.238281 C 33.316406 9.378906 33.460938 9.503906 33.570312 9.660156 L 33.742188 9.886719 L 33.898438 10.128906 C 34.714844 11.425781 34.777344 13.058594 34.242188 14.332031 C 33.976562 14.972656 33.578125 15.53125 33.101562 15.96875 C 32.628906 16.410156 32.082031 16.730469 31.523438 16.929688 C 30.964844 17.132812 30.398438 17.214844 29.871094 17.203125 C 29.339844 17.191406 28.84375 17.097656 28.410156 16.941406 C 27.539062 16.632812 26.921875 16.117188 26.527344 15.679688 L 26.5625 15.652344 L 26.5625 15.65625 C 26.566406 15.667969 26.5625 15.679688 26.554688 15.683594 C 26.550781 15.6875 26.546875 15.6875 26.542969 15.6875 C 26.0625 15.648438 25.695312 15.617188 25.441406 15.597656 C 25.320312 15.589844 25.230469 15.582031 25.160156 15.574219 C 25.101562 15.570312 25.070312 15.566406 25.070312 15.566406 " fill-opacity="1" fill-rule="nonzero"/></g><path fill="#ff735d" d="M 29.800781 14.539062 L 27.382812 12.917969 L 27.949219 12.074219 L 29.570312 13.160156 L 31.589844 10.488281 L 32.398438 11.101562 Z M 29.800781 14.539062 " fill-opacity="1" fill-rule="nonzero"/><path fill="#1a2e35" d="M 12.984375 16.195312 C 12.628906 15.445312 12.277344 14.6875 12.058594 13.886719 C 11.839844 13.085938 11.753906 12.234375 11.941406 11.425781 C 11.972656 11.304688 12.242188 10.472656 12.367188 10.46875 C 12.457031 10.464844 12.320312 11.226562 12.375 11.296875 C 12.898438 11.980469 13.128906 12.847656 13.167969 13.707031 C 13.207031 14.5625 13.128906 15.347656 12.984375 16.195312 " fill-opacity="1" fill-rule="nonzero"/><path fill="#ffc19d" d="M 18.449219 22.617188 C 18.382812 22.035156 18.058594 19.125 18.0625 19.125 C 18.0625 19.125 20.03125 18.667969 19.910156 16.675781 C 19.851562 15.710938 19.566406 13.738281 19.292969 11.957031 C 18.996094 10.042969 17.277344 8.675781 15.34375 8.816406 L 15.152344 8.832031 C 13.089844 9.105469 12.171875 11.011719 12.5 13.066406 L 13.996094 22.621094 L 17.503906 22.453125 Z M 18.449219 22.617188 " fill-opacity="1" fill-rule="nonzero"/><path fill="#ff9c6a" d="M 18.0625 19.125 C 18.0625 19.125 16.8125 19.289062 15.414062 18.546875 C 15.414062 18.546875 16.148438 19.980469 18.121094 19.65625 Z M 18.0625 19.125 " fill-opacity="1" fill-rule="nonzero"/><path fill="#1a2e35" d="M 18.699219 13.820312 C 18.714844 13.96875 18.601562 14.105469 18.445312 14.125 C 18.289062 14.148438 18.148438 14.042969 18.132812 13.890625 C 18.117188 13.742188 18.230469 13.605469 18.386719 13.585938 C 18.542969 13.566406 18.679688 13.667969 18.699219 13.820312 " fill-opacity="1" fill-rule="nonzero"/><path fill="#1a2e35" d="M 18.925781 12.816406 C 18.894531 12.855469 18.667969 12.710938 18.363281 12.734375 C 18.054688 12.753906 17.84375 12.925781 17.808594 12.890625 C 17.789062 12.875 17.820312 12.808594 17.914062 12.730469 C 18.003906 12.652344 18.164062 12.570312 18.355469 12.554688 C 18.542969 12.542969 18.710938 12.601562 18.808594 12.667969 C 18.90625 12.730469 18.941406 12.796875 18.925781 12.816406 " fill-opacity="1" fill-rule="nonzero"/><path fill="#1a2e35" d="M 15.921875 14.175781 C 15.9375 14.324219 15.824219 14.460938 15.667969 14.480469 C 15.511719 14.5 15.371094 14.398438 15.355469 14.246094 C 15.339844 14.097656 15.453125 13.960938 15.609375 13.941406 C 15.765625 13.917969 15.902344 14.023438 15.921875 14.175781 " fill-opacity="1" fill-rule="nonzero"/><path fill="#1a2e35" d="M 15.941406 13.160156 C 15.90625 13.199219 15.679688 13.054688 15.375 13.078125 C 15.070312 13.097656 14.855469 13.269531 14.820312 13.238281 C 14.804688 13.222656 14.832031 13.152344 14.925781 13.074219 C 15.015625 12.996094 15.175781 12.914062 15.367188 12.902344 C 15.558594 12.886719 15.722656 12.945312 15.820312 13.011719 C 15.917969 13.078125 15.957031 13.140625 15.941406 13.160156 " fill-opacity="1" fill-rule="nonzero"/><path fill="#1a2e35" d="M 17.210938 15.429688 C 17.207031 15.414062 17.394531 15.367188 17.699219 15.304688 C 17.777344 15.289062 17.851562 15.269531 17.859375 15.214844 C 17.875 15.15625 17.835938 15.074219 17.789062 14.988281 C 17.703125 14.804688 17.613281 14.609375 17.515625 14.410156 C 17.132812 13.585938 16.851562 12.90625 16.882812 12.890625 C 16.917969 12.875 17.253906 13.53125 17.636719 14.355469 C 17.730469 14.558594 17.816406 14.75 17.902344 14.9375 C 17.9375 15.023438 17.996094 15.121094 17.964844 15.238281 C 17.949219 15.300781 17.894531 15.347656 17.84375 15.363281 C 17.796875 15.382812 17.753906 15.386719 17.714844 15.390625 C 17.40625 15.429688 17.210938 15.445312 17.210938 15.429688 " fill-opacity="1" fill-rule="nonzero"/><path fill="#1a2e35" d="M 18.648438 11.527344 C 18.601562 11.605469 18.382812 11.554688 18.132812 11.582031 C 17.878906 11.597656 17.671875 11.683594 17.613281 11.617188 C 17.585938 11.582031 17.613281 11.511719 17.699219 11.433594 C 17.785156 11.359375 17.929688 11.285156 18.105469 11.273438 C 18.277344 11.257812 18.4375 11.300781 18.53125 11.363281 C 18.628906 11.421875 18.667969 11.492188 18.648438 11.527344 " fill-opacity="1" fill-rule="nonzero"/><path fill="#1a2e35" d="M 15.949219 12.453125 C 15.898438 12.527344 15.683594 12.46875 15.429688 12.480469 C 15.175781 12.484375 14.964844 12.554688 14.910156 12.484375 C 14.886719 12.453125 14.914062 12.378906 15.003906 12.308594 C 15.09375 12.238281 15.246094 12.175781 15.417969 12.167969 C 15.59375 12.164062 15.75 12.21875 15.839844 12.28125 C 15.933594 12.347656 15.96875 12.417969 15.949219 12.453125 " fill-opacity="1" fill-rule="nonzero"/><path fill="#ffc19d" d="M 12.773438 14.527344 C 12.738281 14.515625 11.375 14.222656 11.519531 15.582031 C 11.664062 16.941406 13.125 16.566406 13.125 16.527344 C 13.121094 16.488281 12.773438 14.527344 12.773438 14.527344 " fill-opacity="1" fill-rule="nonzero"/><path fill="#ff9c6a" d="M 12.523438 16.003906 C 12.519531 16 12.503906 16.023438 12.464844 16.046875 C 12.429688 16.070312 12.363281 16.089844 12.289062 16.070312 C 12.140625 16.03125 11.996094 15.816406 11.960938 15.574219 C 11.945312 15.449219 11.960938 15.328125 11.992188 15.226562 C 12.023438 15.125 12.082031 15.046875 12.152344 15.027344 C 12.222656 15.003906 12.277344 15.039062 12.296875 15.078125 C 12.320312 15.113281 12.316406 15.140625 12.320312 15.140625 C 12.324219 15.144531 12.347656 15.117188 12.332031 15.0625 C 12.324219 15.035156 12.304688 15.003906 12.269531 14.980469 C 12.234375 14.960938 12.183594 14.949219 12.136719 14.960938 C 12.03125 14.980469 11.945312 15.085938 11.910156 15.199219 C 11.867188 15.3125 11.851562 15.445312 11.867188 15.585938 C 11.90625 15.859375 12.074219 16.097656 12.273438 16.136719 C 12.375 16.148438 12.449219 16.113281 12.488281 16.078125 C 12.527344 16.039062 12.53125 16.007812 12.523438 16.003906 " fill-opacity="1" fill-rule="nonzero"/><path fill="#1a2e35" d="M 18.15625 9.808594 C 18.363281 9.664062 17.621094 9.027344 17.054688 8.84375 C 16.195312 8.570312 14.925781 8.484375 14.199219 8.78125 C 13.324219 9.144531 12.625 9.679688 12.265625 10.554688 C 11.90625 11.433594 11.84375 12.414062 11.976562 13.351562 C 12.019531 13.636719 12.082031 13.933594 12.265625 14.15625 C 12.488281 14.433594 12.871094 14.582031 12.902344 15 C 12.914062 15.148438 12.976562 15.296875 13.09375 15.394531 C 13.371094 15.632812 13.644531 15.347656 13.757812 15.085938 C 13.992188 14.519531 13.953125 13.878906 13.910156 13.269531 C 13.878906 12.832031 13.847656 12.390625 13.675781 11.988281 C 13.585938 11.769531 13.453125 11.566406 13.375 11.34375 C 13.292969 11.121094 13.269531 10.859375 13.390625 10.65625 C 13.414062 10.621094 13.445312 10.578125 13.488281 10.53125 C 13.835938 10.152344 14.359375 9.988281 14.863281 10.105469 C 15.65625 10.285156 17.007812 10.539062 17.316406 10.242188 C 17.765625 9.8125 17.855469 9.554688 17.855469 9.554688 Z M 18.15625 9.808594 " fill-opacity="1" fill-rule="nonzero"/><path fill="#1a2e35" d="M 17.425781 16.246094 C 17.410156 16.199219 17.167969 16.246094 16.917969 16.140625 C 16.664062 16.039062 16.527344 15.835938 16.480469 15.859375 C 16.460938 15.867188 16.464844 15.9375 16.519531 16.035156 C 16.574219 16.128906 16.6875 16.246094 16.847656 16.3125 C 17.007812 16.375 17.167969 16.375 17.273438 16.34375 C 17.378906 16.316406 17.433594 16.269531 17.425781 16.246094 " fill-opacity="1" fill-rule="nonzero"/><path fill="#ececec" d="M 13.839844 12.8125 C 13.839844 12.839844 13.402344 12.859375 12.863281 12.796875 C 12.324219 12.738281 11.898438 12.617188 11.910156 12.589844 C 11.914062 12.570312 12.339844 12.652344 12.875 12.707031 C 13.40625 12.769531 13.839844 12.789062 13.839844 12.8125 " fill-opacity="1" fill-rule="nonzero"/><path fill="#ffc19d" d="M 10.667969 29.648438 L 7.714844 29.5 L 10.515625 27.179688 L 8.265625 23.035156 C 8.265625 23.035156 3.578125 28.53125 3.171875 29.3125 C 2.714844 30.1875 2.324219 31.613281 3.589844 32.308594 C 4.46875 32.792969 11.421875 32.742188 11.421875 32.742188 Z M 10.667969 29.648438 " fill-opacity="1" fill-rule="nonzero"/><g clip-path="url(#268f55ac38)"><path fill="#1a2e35" d="M 14.679688 40.542969 L 14.679688 41.636719 L 23.25 41.761719 L 23.480469 38.214844 Z M 14.679688 40.542969 " fill-opacity="1" fill-rule="nonzero"/></g><path fill="#ffc19d" d="M 22.53125 20.164062 C 22.53125 20.164062 28.246094 25.160156 28.335938 25.039062 C 28.425781 24.917969 30.21875 20.164062 30.21875 20.164062 L 33.476562 20.230469 C 33.476562 20.230469 31.753906 27.433594 30.695312 28.382812 C 29.636719 29.328125 28.457031 29.023438 27.640625 28.863281 C 26.824219 28.699219 22.890625 25.082031 22.890625 25.082031 Z M 22.53125 20.164062 " fill-opacity="1" fill-rule="nonzero"/><path fill="#e1e1e1" d="M 13.707031 20.070312 L 9.128906 21.625 L 10.128906 25.300781 L 12.144531 31.21875 L 14.503906 40.585938 L 27.773438 37.222656 L 23.980469 25.441406 L 22.53125 20.164062 L 21.289062 19.707031 L 19.046875 20.054688 L 18.277344 20 C 18.277344 20 18.457031 20.96875 16.648438 21.035156 C 15.5625 21.074219 13.707031 20.070312 13.707031 20.070312 " fill-opacity="1" fill-rule="nonzero"/><path fill="#e1e1e1" d="M 23.671875 26.597656 L 25.285156 27.605469 L 27.109375 23.671875 C 27.109375 23.671875 23.558594 20.023438 22.394531 19.777344 C 21.234375 19.53125 20.8125 19.890625 20.8125 19.890625 Z M 23.671875 26.597656 " fill-opacity="1" fill-rule="nonzero"/><path fill="#e1e1e1" d="M 8.996094 29.367188 L 4.933594 26.621094 C 4.933594 26.621094 7.628906 23 8.011719 22.550781 C 8.597656 21.867188 9.199219 21.597656 9.199219 21.597656 L 10.863281 27.429688 Z M 8.996094 29.367188 " fill-opacity="1" fill-rule="nonzero"/><path fill="#1a2e35" d="M 9.773438 24.085938 C 9.753906 24.089844 10.148438 25.34375 10.648438 26.886719 C 11.148438 28.429688 11.566406 29.675781 11.582031 29.671875 C 11.597656 29.667969 11.207031 28.410156 10.707031 26.867188 C 10.207031 25.324219 9.789062 24.078125 9.773438 24.085938 " fill-opacity="1" fill-rule="nonzero"/><g clip-path="url(#e9f34b9777)"><path fill="#375a64" d="M 23.667969 31.171875 L 19.785156 31.152344 L 19.785156 32 L 19.789062 32 L 19.835938 41.71875 L 30.351562 41.757812 L 30.367188 37.9375 C 30.363281 37.585938 30.738281 37.339844 31.125 37.332031 C 31.320312 37.332031 31.507812 37.414062 31.640625 37.542969 C 31.851562 37.742188 32.226562 38.007812 32.664062 38 C 33.339844 37.992188 33.800781 37.5 33.792969 36.8125 C 33.78125 36.125 33.382812 35.710938 32.625 35.65625 C 32.070312 35.617188 31.796875 35.933594 31.59375 36.136719 C 31.464844 36.269531 31.304688 36.347656 31.109375 36.351562 C 30.722656 36.355469 30.402344 36.089844 30.394531 35.742188 L 30.402344 31.238281 L 28.746094 31.230469 L 26.15625 31.207031 C 25.769531 31.199219 25.457031 30.914062 25.464844 30.5625 C 25.46875 30.390625 25.546875 30.222656 25.691406 30.109375 C 25.921875 29.925781 26.246094 29.597656 26.253906 29.203125 C 26.261719 28.597656 25.730469 28.167969 24.964844 28.15625 C 24.199219 28.144531 23.652344 28.5625 23.640625 29.167969 C 23.632812 29.558594 23.949219 29.898438 24.171875 30.085938 C 24.3125 30.207031 24.386719 30.375 24.382812 30.550781 C 24.378906 30.898438 24.058594 31.175781 23.667969 31.171875 " fill-opacity="1" fill-rule="nonzero"/></g><g clip-path="url(#bd1ccb26ff)"><path fill="#ff735d" d="M 36.808594 31.230469 C 36.421875 31.222656 36.101562 31.503906 36.097656 31.851562 C 36.09375 32.023438 36.167969 32.195312 36.308594 32.3125 C 36.53125 32.503906 36.84375 32.839844 36.839844 33.230469 C 36.828125 33.835938 36.28125 34.253906 35.515625 34.242188 C 34.75 34.234375 34.21875 33.800781 34.226562 33.195312 C 34.234375 32.804688 34.558594 32.476562 34.785156 32.292969 C 34.929688 32.175781 35.011719 32.011719 35.015625 31.835938 C 35.019531 31.542969 34.800781 31.296875 34.5 31.222656 L 31.269531 31.234375 L 30.402344 31.246094 L 30.394531 35.742188 C 30.402344 36.089844 30.722656 36.355469 31.109375 36.351562 C 31.304688 36.347656 31.464844 36.269531 31.59375 36.136719 C 31.796875 35.933594 32.070312 35.617188 32.625 35.65625 C 33.382812 35.710938 33.78125 36.125 33.792969 36.8125 C 33.800781 37.5 33.339844 37.992188 32.664062 38 C 32.226562 38.007812 31.851562 37.742188 31.640625 37.542969 C 31.507812 37.414062 31.320312 37.332031 31.125 37.332031 C 30.773438 37.339844 30.429688 37.546875 30.375 37.847656 C 30.382812 37.875 30.386719 37.90625 30.382812 37.933594 L 30.351562 41.761719 L 40.917969 41.71875 L 40.792969 31.246094 Z M 36.808594 31.230469 " fill-opacity="1" fill-rule="nonzero"/></g><path fill="#375a64" d="M 36.761719 31.269531 L 40.792969 31.246094 L 40.792969 30.441406 L 40.789062 30.441406 L 40.742188 20.722656 L 30.359375 20.683594 L 30.34375 24.507812 C 30.347656 24.855469 29.976562 25.101562 29.59375 25.109375 C 29.402344 25.109375 29.21875 25.027344 29.085938 24.898438 C 28.878906 24.699219 28.503906 24.4375 28.074219 24.441406 C 27.410156 24.453125 26.949219 24.941406 26.960938 25.628906 C 26.972656 26.316406 27.367188 26.734375 28.113281 26.785156 C 28.660156 26.828125 28.929688 26.511719 29.132812 26.304688 C 29.257812 26.175781 29.417969 26.09375 29.609375 26.09375 C 29.992188 26.085938 30.308594 26.351562 30.316406 26.699219 L 30.402344 31.238281 L 31.957031 31.230469 L 34.304688 31.238281 C 34.6875 31.242188 34.992188 31.53125 34.988281 31.878906 C 34.984375 32.050781 34.855469 32.210938 34.710938 32.324219 C 34.484375 32.507812 34.214844 32.847656 34.210938 33.238281 C 34.199219 33.84375 34.726562 34.273438 35.480469 34.285156 C 36.238281 34.296875 36.828125 33.863281 36.835938 33.257812 C 36.84375 32.867188 36.527344 32.503906 36.308594 32.3125 C 36.171875 32.195312 36.09375 32.050781 36.097656 31.875 C 36.101562 31.527344 36.375 31.265625 36.761719 31.269531 " fill-opacity="1" fill-rule="nonzero"/><g mask="url(#b5f9f478bb)"><g transform="matrix(1, 0, 0, 1, 12, 19)"><g clip-path="url(#7aab5fcd0e)"><g clip-path="url(#fb00e0f2d5)"><path fill="#000000" d="M 12.011719 6.984375 C 11.917969 6.632812 11.542969 6.441406 11.175781 6.539062 C 10.992188 6.589844 10.859375 6.707031 10.769531 6.871094 C 10.628906 7.128906 10.449219 7.511719 9.910156 7.605469 C 9.179688 7.730469 8.691406 7.40625 8.507812 6.710938 C 8.324219 6.019531 8.640625 5.410156 9.277344 5.238281 C 9.691406 5.128906 10.117188 5.304688 10.371094 5.457031 C 10.527344 5.554688 10.726562 5.597656 10.910156 5.546875 C 11.277344 5.449219 11.574219 5.109375 11.480469 4.757812 L 10.804688 2.015625 L 10.515625 0.878906 L 0.398438 3.460938 L 2.996094 14.042969 L 6.746094 13.164062 C 7.121094 13.078125 7.359375 12.71875 7.277344 12.363281 C 7.234375 12.183594 7.121094 12.03125 6.953125 11.945312 C 6.691406 11.804688 6.304688 11.539062 6.210938 11.144531 C 6.066406 10.527344 6.488281 9.972656 7.230469 9.796875 C 7.96875 9.621094 8.59375 9.929688 8.734375 10.546875 C 8.828125 10.945312 8.601562 11.355469 8.425781 11.597656 C 8.316406 11.75 8.28125 11.9375 8.320312 12.117188 C 8.390625 12.414062 8.664062 12.609375 8.972656 12.613281 L 12.351562 11.753906 L 13.144531 11.542969 Z M 12.011719 6.984375 " fill-opacity="1" fill-rule="nonzero"/></g></g></g></g><g mask="url(#b78a0c56ac)"><g transform="matrix(1, 0, 0, 1, 30, 20)"><g clip-path="url(#7c492130f2)"><g clip-path="url(#51eebc35c7)"><path fill="#000000" d="M 0.304688 0.691406 C 1.03125 0.394531 1.804688 1.007812 2.53125 0.707031 C 2.640625 0.664062 2.761719 0.617188 2.871094 0.652344 C 3.007812 0.695312 3.082031 0.835938 3.121094 0.972656 C 3.222656 1.351562 3.132812 1.769531 2.917969 2.09375 C 2.699219 2.421875 2.371094 2.664062 2.007812 2.8125 C 1.71875 2.933594 1.390625 2.996094 1.089844 2.910156 C 0.558594 2.761719 0.296875 1.242188 0.304688 0.691406 " fill-opacity="1" fill-rule="nonzero"/></g></g></g></g><path fill="#ffc19d" d="M 30.160156 20.214844 C 30.265625 20.144531 30.371094 20.054688 30.40625 19.953125 C 30.492188 19.722656 31.136719 19.605469 31.136719 19.605469 C 31.136719 19.605469 31.292969 19.515625 31.457031 19.457031 C 31.617188 19.394531 31.980469 19.636719 31.980469 19.636719 C 32.351562 19.433594 32.464844 19.539062 32.6875 19.683594 C 32.910156 19.824219 32.949219 19.871094 32.949219 19.871094 C 32.984375 19.820312 33.046875 19.808594 33.117188 19.816406 C 33.324219 19.839844 33.488281 19.992188 33.546875 20.191406 C 33.632812 20.476562 33.761719 20.933594 33.753906 21.109375 C 33.742188 21.371094 33.40625 22.015625 33.40625 22.015625 C 33.40625 22.015625 33.113281 22.199219 32.921875 22.113281 C 32.730469 22.03125 32.949219 21.441406 32.949219 21.441406 L 32.785156 20.640625 C 32.785156 20.640625 32.511719 22.386719 32.378906 22.589844 C 32.242188 22.796875 31.8125 22.765625 31.8125 22.765625 C 31.382812 23.136719 31.179688 22.8125 31.179688 22.8125 C 31.179688 22.8125 31.128906 22.871094 30.9375 22.785156 C 30.746094 22.703125 30.410156 20.695312 30.410156 20.695312 L 29.832031 20.765625 C 29.84375 20.5 29.976562 20.332031 30.160156 20.214844 " fill-opacity="1" fill-rule="nonzero"/><path fill="#ff9c6a" d="M 32.101562 20.171875 C 32.101562 20.171875 32.09375 20.210938 32.085938 20.273438 C 32.078125 20.347656 32.070312 20.441406 32.058594 20.554688 C 32.035156 20.792969 32.007812 21.117188 31.976562 21.480469 C 31.945312 21.84375 31.929688 22.171875 31.878906 22.402344 C 31.851562 22.515625 31.824219 22.605469 31.800781 22.667969 C 31.777344 22.730469 31.757812 22.765625 31.761719 22.765625 C 31.765625 22.765625 31.769531 22.757812 31.777344 22.742188 C 31.785156 22.726562 31.800781 22.707031 31.8125 22.675781 C 31.839844 22.613281 31.875 22.523438 31.902344 22.40625 C 31.964844 22.175781 31.984375 21.84375 32.015625 21.484375 C 32.046875 21.121094 32.070312 20.792969 32.085938 20.558594 C 32.09375 20.445312 32.097656 20.351562 32.101562 20.277344 C 32.105469 20.210938 32.105469 20.171875 32.101562 20.171875 " fill-opacity="1" fill-rule="nonzero"/><path fill="#ff9c6a" d="M 31.261719 20.167969 C 31.261719 20.167969 31.257812 20.207031 31.25 20.273438 C 31.246094 20.347656 31.242188 20.445312 31.234375 20.558594 C 31.222656 20.800781 31.210938 21.132812 31.195312 21.5 C 31.183594 21.867188 31.171875 22.199219 31.167969 22.4375 C 31.167969 22.554688 31.164062 22.648438 31.164062 22.722656 C 31.164062 22.792969 31.164062 22.828125 31.167969 22.828125 C 31.171875 22.828125 31.175781 22.792969 31.179688 22.726562 C 31.183594 22.652344 31.1875 22.554688 31.195312 22.441406 C 31.207031 22.199219 31.222656 21.867188 31.234375 21.5 C 31.246094 21.132812 31.257812 20.800781 31.261719 20.558594 C 31.265625 20.445312 31.265625 20.347656 31.265625 20.273438 C 31.265625 20.207031 31.265625 20.167969 31.261719 20.167969 " fill-opacity="1" fill-rule="nonzero"/><path fill="#ffc19d" d="M 12.390625 29.679688 L 6.898438 29.503906 L 6.183594 32.613281 L 12.070312 32.828125 Z M 12.390625 29.679688 " fill-opacity="1" fill-rule="nonzero"/><path fill="#ff9c6a" d="M 4.4375 29.242188 C 4.441406 29.253906 4.628906 29.230469 4.9375 29.230469 C 5.246094 29.226562 5.667969 29.253906 6.136719 29.3125 C 6.597656 29.371094 7.011719 29.425781 7.332031 29.46875 C 7.484375 29.488281 7.609375 29.5 7.695312 29.507812 C 7.78125 29.515625 7.828125 29.515625 7.828125 29.511719 C 7.832031 29.507812 7.785156 29.5 7.699219 29.484375 C 7.601562 29.46875 7.480469 29.449219 7.335938 29.425781 C 7.03125 29.378906 6.613281 29.308594 6.144531 29.25 C 5.675781 29.195312 5.246094 29.171875 4.9375 29.183594 C 4.859375 29.1875 4.789062 29.191406 4.726562 29.199219 C 4.667969 29.203125 4.613281 29.207031 4.570312 29.214844 C 4.484375 29.230469 4.4375 29.238281 4.4375 29.242188 " fill-opacity="1" fill-rule="nonzero"/><path fill="#ff735d" d="M 23.578125 25.550781 C 23.480469 25.199219 23.109375 25.007812 22.742188 25.105469 C 22.558594 25.15625 22.425781 25.273438 22.335938 25.4375 C 22.191406 25.691406 22.015625 26.078125 21.476562 26.171875 C 20.742188 26.296875 20.257812 25.972656 20.074219 25.277344 C 19.886719 24.585938 20.207031 23.976562 20.84375 23.804688 C 21.257812 23.695312 21.683594 23.871094 21.9375 24.023438 C 22.09375 24.121094 22.292969 24.160156 22.476562 24.113281 C 22.84375 24.015625 23.140625 23.675781 23.046875 23.320312 L 22.371094 20.582031 L 22.082031 19.445312 L 11.964844 22.027344 L 14.5625 32.609375 L 18.3125 31.730469 C 18.6875 31.640625 18.925781 31.28125 18.84375 30.929688 C 18.800781 30.75 18.6875 30.597656 18.519531 30.511719 C 18.257812 30.371094 17.871094 30.105469 17.777344 29.710938 C 17.632812 29.09375 18.054688 28.539062 18.796875 28.363281 C 19.535156 28.1875 20.15625 28.496094 20.300781 29.113281 C 20.394531 29.511719 20.167969 29.921875 19.992188 30.164062 C 19.882812 30.316406 19.847656 30.503906 19.886719 30.683594 C 19.957031 30.980469 20.230469 31.175781 20.539062 31.179688 L 23.917969 30.320312 L 24.710938 30.109375 Z M 23.578125 25.550781 " fill-opacity="1" fill-rule="nonzero"/><path fill="#ffc19d" d="M 10.703125 30.546875 L 12.199219 28.539062 L 13.375 27.664062 L 13.386719 28.265625 C 13.386719 28.265625 15.714844 28.03125 16.050781 28.113281 C 16.257812 28.164062 16.554688 28.742188 16.101562 28.871094 C 16.101562 28.871094 16.476562 29.023438 16.546875 29.382812 C 16.621094 29.742188 16.441406 29.910156 16.015625 30.046875 C 16.015625 30.046875 16.488281 30.300781 16.390625 30.613281 C 16.292969 30.925781 15.945312 31.046875 15.945312 31.046875 C 15.945312 31.046875 16.199219 31.53125 15.96875 31.710938 C 15.738281 31.886719 15.007812 32.222656 14.699219 32.28125 C 14.390625 32.34375 13.132812 32.59375 13.132812 32.59375 L 12.15625 32.871094 Z M 10.703125 30.546875 " fill-opacity="1" fill-rule="nonzero"/><path fill="#ff9c6a" d="M 14.699219 29.175781 C 14.707031 29.203125 15.027344 29.160156 15.414062 29.078125 C 15.800781 28.996094 16.109375 28.902344 16.101562 28.871094 C 16.09375 28.839844 15.777344 28.882812 15.386719 28.96875 C 15 29.050781 14.695312 29.144531 14.699219 29.175781 " fill-opacity="1" fill-rule="nonzero"/><path fill="#ff9c6a" d="M 14.871094 30.304688 C 14.878906 30.335938 15.136719 30.308594 15.449219 30.246094 C 15.757812 30.179688 16.003906 30.105469 16 30.074219 C 15.992188 30.042969 15.734375 30.070312 15.425781 30.132812 C 15.113281 30.199219 14.867188 30.273438 14.871094 30.304688 " fill-opacity="1" fill-rule="nonzero"/><path fill="#ff9c6a" d="M 14.996094 31.257812 C 15.003906 31.289062 15.21875 31.226562 15.472656 31.160156 C 15.726562 31.097656 15.945312 31.082031 15.945312 31.046875 C 15.945312 31.019531 15.71875 30.984375 15.445312 31.050781 C 15.175781 31.121094 14.984375 31.230469 14.996094 31.257812 " fill-opacity="1" fill-rule="nonzero"/><path fill="#ff9c6a" d="M 13.109375 28.371094 C 13.117188 28.402344 13.429688 28.355469 13.8125 28.292969 C 14.195312 28.230469 14.507812 28.171875 14.503906 28.140625 C 14.5 28.109375 14.183594 28.117188 13.796875 28.179688 C 13.40625 28.246094 13.105469 28.34375 13.109375 28.371094 " fill-opacity="1" fill-rule="nonzero"/></svg>