<svg xmlns="http://www.w3.org/2000/svg" xmlns:xlink="http://www.w3.org/1999/xlink" width="1044" zoomAndPan="magnify" viewBox="0 0 782.88 202.499994" height="270" preserveAspectRatio="xMidYMid meet" version="1.0"><defs><g/><clipPath id="8802383809"><path d="M 0.90625 0 L 781.855469 0 L 781.855469 202 L 0.90625 202 Z M 0.90625 0 " clip-rule="nonzero"/></clipPath><clipPath id="281c78be04"><path d="M 0.90625 0 L 199.164062 0 L 199.164062 110 L 0.90625 110 Z M 0.90625 0 " clip-rule="nonzero"/></clipPath><clipPath id="94fd0100d6"><path d="M 38.457031 55 L 98 55 L 98 178.425781 L 38.457031 178.425781 Z M 38.457031 55 " clip-rule="nonzero"/></clipPath><clipPath id="7099e53a67"><path d="M 102 55 L 161.902344 55 L 161.902344 178.425781 L 102 178.425781 Z M 102 55 " clip-rule="nonzero"/></clipPath></defs><g clip-path="url(#8802383809)"><path fill="#ffffff" d="M 0.90625 0 L 781.976562 0 L 781.976562 202 L 0.90625 202 Z M 0.90625 0 " fill-opacity="1" fill-rule="nonzero"/><path fill="#ffffff" d="M 0.90625 0 L 781.976562 0 L 781.976562 202 L 0.90625 202 Z M 0.90625 0 " fill-opacity="1" fill-rule="nonzero"/></g><g clip-path="url(#281c78be04)"><path fill="#3871c1" d="M 22.25 81.601562 C 19.5625 72.652344 17.5 63.324219 16.105469 53.832031 C 22.664062 52.859375 30.246094 50.777344 38.683594 47.625 C 47.867188 44.191406 58.21875 39.460938 69.449219 33.554688 C 82.832031 26.515625 94.429688 19.382812 99.980469 15.867188 C 99.992188 15.875 100 15.882812 100.011719 15.886719 C 100.019531 15.882812 100.03125 15.875 100.039062 15.867188 C 105.59375 19.382812 117.191406 26.515625 130.574219 33.554688 C 141.804688 39.460938 152.15625 44.191406 161.339844 47.625 C 169.777344 50.777344 177.359375 52.859375 183.917969 53.832031 C 182.523438 63.324219 180.460938 72.652344 177.773438 81.601562 C 174.878906 91.242188 171.1875 100.679688 166.800781 109.683594 C 191.976562 82.398438 199.117188 41.558594 199.117188 41.558594 L 191.625 41.46875 C 179.742188 41.328125 160.925781 34.667969 137.210938 22.203125 C 118.847656 12.550781 104.074219 2.792969 103.925781 2.695312 L 100.039062 0.121094 L 100.011719 0.140625 L 99.980469 0.121094 L 96.097656 2.695312 C 95.949219 2.792969 81.175781 12.550781 62.8125 22.203125 C 39.09375 34.667969 20.277344 41.328125 8.398438 41.46875 L 0.90625 41.558594 C 0.90625 41.558594 8.046875 82.398438 33.222656 109.683594 C 28.835938 100.679688 25.144531 91.242188 22.25 81.601562 " fill-opacity="1" fill-rule="nonzero"/></g><path fill="#3871c1" d="M 100.039062 185.824219 C 100.03125 185.816406 100.019531 185.8125 100.011719 185.804688 C 100 185.8125 99.992188 185.816406 99.980469 185.824219 C 57.035156 158.304688 20.378906 103.0625 13.359375 92.484375 C 15.757812 99.324219 18.484375 106.027344 21.511719 112.527344 C 29.847656 130.425781 40.589844 147.109375 53.441406 162.109375 C 64.882812 175.464844 75.921875 185 83.171875 190.648438 C 91.148438 196.863281 96.429688 199.894531 96.648438 200.019531 L 99.980469 201.921875 L 100.011719 201.90625 L 100.039062 201.921875 L 103.371094 200.019531 C 103.59375 199.894531 108.871094 196.863281 116.847656 190.648438 C 124.097656 185 135.140625 175.464844 146.582031 162.109375 C 159.433594 147.109375 170.175781 130.425781 178.511719 112.527344 C 181.539062 106.027344 184.261719 99.324219 186.660156 92.484375 C 179.644531 103.0625 142.988281 158.304688 100.039062 185.824219 " fill-opacity="1" fill-rule="nonzero"/><g clip-path="url(#94fd0100d6)"><path fill="#2e3192" d="M 88.054688 114.785156 C 100.410156 132.949219 97.089844 178.066406 97.089844 178.066406 C 88.054688 114.785156 48.140625 113.113281 39.757812 72.695312 C 38.546875 66.839844 38.457031 61 39.175781 55.378906 C 39.300781 57.851562 39.597656 60.34375 40.085938 62.84375 C 44.375 84.734375 74.289062 94.546875 88.054688 114.785156 " fill-opacity="1" fill-rule="nonzero"/></g><g clip-path="url(#7099e53a67)"><path fill="#2e3192" d="M 111.957031 114.785156 C 99.601562 132.949219 102.921875 178.066406 102.921875 178.066406 C 111.957031 114.785156 151.871094 113.113281 160.253906 72.695312 C 161.464844 66.839844 161.554688 61 160.835938 55.378906 C 160.710938 57.851562 160.414062 60.34375 159.925781 62.84375 C 155.636719 84.734375 125.71875 94.546875 111.957031 114.785156 " fill-opacity="1" fill-rule="nonzero"/></g><path fill="#2e3192" d="M 131.03125 58.351562 L 98.648438 55.253906 C 95.917969 54.992188 91.574219 55.535156 88.996094 56.460938 L 68.710938 63.746094 C 66.128906 64.671875 66.25 65.644531 68.980469 65.902344 L 85.160156 67.453125 L 85.160156 78.457031 C 85.261719 78.433594 85.371094 78.414062 85.476562 78.390625 C 84.675781 80.425781 84.234375 82.660156 84.234375 85.007812 C 84.234375 94.390625 91.296875 102 100.003906 102 C 108.714844 102 115.777344 94.390625 115.777344 85.007812 C 115.777344 82.660156 115.335938 80.425781 114.535156 78.390625 C 114.640625 78.414062 114.75 78.433594 114.851562 78.457031 L 114.851562 67.703125 C 111.671875 66.609375 101.757812 65.578125 101.757812 65.578125 C 107.019531 64.839844 114.851562 66.417969 114.851562 66.417969 L 125.785156 62.492188 L 125.785156 70.894531 C 124.964844 71.019531 124.371094 71.371094 124.371094 71.789062 C 124.371094 72.167969 124.859375 72.492188 125.566406 72.640625 C 125.183594 73.464844 124.9375 74.804688 124.9375 76.320312 C 124.9375 78.820312 126.445312 80.851562 126.445312 80.851562 C 126.445312 80.851562 127.957031 78.820312 127.957031 76.320312 C 127.957031 74.804688 127.710938 73.464844 127.328125 72.640625 C 128.035156 72.492188 128.523438 72.167969 128.523438 71.789062 C 128.523438 71.371094 127.929688 71.019531 127.109375 70.894531 L 127.109375 62.019531 L 131.300781 60.511719 C 133.882812 59.585938 133.761719 58.613281 131.03125 58.351562 " fill-opacity="1" fill-rule="nonzero"/><g fill="#2e3192" fill-opacity="1"><g transform="translate(293.713567, 107.285677)"><g><path d="M 4.5625 -42.453125 L 41.28125 -42.453125 L 41.28125 -32.265625 L 18.203125 -32.265625 L 18.203125 -26.40625 L 37.953125 -26.40625 L 37.953125 -16.65625 L 18.203125 -16.65625 L 18.203125 -10.1875 L 41.71875 -10.1875 L 41.71875 0 L 4.5625 0 Z M 4.5625 -42.453125 "/></g></g></g><g fill="#2e3192" fill-opacity="1"><g transform="translate(338.254189, 107.285677)"><g><path d="M 22.953125 -42.453125 C 37.804688 -42.453125 45.234375 -35.375 45.234375 -21.21875 C 45.234375 -7.070312 37.804688 0 22.953125 0 L 4.5625 0 L 4.5625 -42.453125 Z M 18.203125 -10.1875 L 22.703125 -10.1875 C 28.421875 -10.1875 31.28125 -13.25 31.28125 -19.375 L 31.28125 -23.078125 C 31.28125 -29.203125 28.421875 -32.265625 22.703125 -32.265625 L 18.203125 -32.265625 Z M 18.203125 -10.1875 "/></g></g></g><g fill="#2e3192" fill-opacity="1"><g transform="translate(386.249506, 107.285677)"><g><path d="M 46.828125 -17.09375 C 46.828125 -11.289062 44.992188 -6.867188 41.328125 -3.828125 C 37.671875 -0.785156 32.472656 0.734375 25.734375 0.734375 C 18.984375 0.734375 13.765625 -0.785156 10.078125 -3.828125 C 6.398438 -6.867188 4.5625 -11.289062 4.5625 -17.09375 L 4.5625 -42.453125 L 18.203125 -42.453125 L 18.203125 -17.28125 C 18.203125 -14.894531 18.835938 -12.988281 20.109375 -11.5625 C 21.390625 -10.144531 23.242188 -9.4375 25.671875 -9.4375 C 28.097656 -9.4375 29.957031 -10.15625 31.25 -11.59375 C 32.550781 -13.039062 33.203125 -14.9375 33.203125 -17.28125 L 33.203125 -42.453125 L 46.828125 -42.453125 Z M 46.828125 -17.09375 "/></g></g></g><g fill="#2e3192" fill-opacity="1"><g transform="translate(437.637789, 107.285677)"><g><path d="M 24.8125 -43.1875 C 31.101562 -43.1875 36.078125 -41.613281 39.734375 -38.46875 C 43.398438 -35.320312 45.234375 -30.828125 45.234375 -24.984375 L 32.203125 -24.984375 C 32.203125 -27.453125 31.554688 -29.40625 30.265625 -30.84375 C 28.972656 -32.289062 27.132812 -33.015625 24.75 -33.015625 C 21.988281 -33.015625 19.957031 -32.148438 18.65625 -30.421875 C 17.363281 -28.691406 16.71875 -26.285156 16.71875 -23.203125 L 16.71875 -19.25 C 16.71875 -16.207031 17.363281 -13.8125 18.65625 -12.0625 C 19.957031 -10.3125 21.945312 -9.4375 24.625 -9.4375 C 27.25 -9.4375 29.238281 -10.113281 30.59375 -11.46875 C 31.957031 -12.832031 32.640625 -14.75 32.640625 -17.21875 L 45.234375 -17.21875 C 45.234375 -11.414062 43.453125 -6.972656 39.890625 -3.890625 C 36.328125 -0.804688 31.300781 0.734375 24.8125 0.734375 C 17.5625 0.734375 12.078125 -1.113281 8.359375 -4.8125 C 4.640625 -8.507812 2.78125 -13.976562 2.78125 -21.21875 C 2.78125 -28.457031 4.640625 -33.925781 8.359375 -37.625 C 12.078125 -41.332031 17.5625 -43.1875 24.8125 -43.1875 Z M 24.8125 -43.1875 "/></g></g></g><g fill="#2e3192" fill-opacity="1"><g transform="translate(485.633106, 107.285677)"><g><path d="M 33.015625 0 L 31.21875 -5.984375 L 16.34375 -5.984375 L 14.5625 0 L 0.609375 0 L 16.109375 -42.453125 L 31.96875 -42.453125 L 47.453125 0 Z M 19.1875 -15.484375 L 28.390625 -15.484375 L 23.9375 -30.609375 L 23.6875 -30.609375 Z M 19.1875 -15.484375 "/></g></g></g><g fill="#2e3192" fill-opacity="1"><g transform="translate(533.628423, 107.285677)"><g><path d="M 29 -31.59375 L 29 0 L 15.359375 0 L 15.359375 -31.59375 L 1.421875 -31.59375 L 1.421875 -42.453125 L 42.890625 -42.453125 L 42.890625 -31.59375 Z M 29 -31.59375 "/></g></g></g><g fill="#2e3192" fill-opacity="1"><g transform="translate(578.169045, 107.285677)"><g><path d="M 5.1875 0 L 5.1875 -42.453125 L 18.8125 -42.453125 L 18.8125 0 Z M 5.1875 0 "/></g></g></g><g fill="#2e3192" fill-opacity="1"><g transform="translate(602.166703, 107.285677)"><g><path d="M 25.671875 -43.1875 C 32.992188 -43.1875 38.648438 -41.316406 42.640625 -37.578125 C 46.628906 -33.835938 48.625 -28.382812 48.625 -21.21875 C 48.625 -14.0625 46.628906 -8.613281 42.640625 -4.875 C 38.648438 -1.132812 32.992188 0.734375 25.671875 0.734375 C 18.347656 0.734375 12.703125 -1.125 8.734375 -4.84375 C 4.765625 -8.5625 2.78125 -14.019531 2.78125 -21.21875 C 2.78125 -28.425781 4.765625 -33.890625 8.734375 -37.609375 C 12.703125 -41.328125 18.347656 -43.1875 25.671875 -43.1875 Z M 25.671875 -33.015625 C 22.742188 -33.015625 20.519531 -32.128906 19 -30.359375 C 17.476562 -28.585938 16.71875 -26.203125 16.71875 -23.203125 L 16.71875 -19.25 C 16.71875 -16.25 17.476562 -13.863281 19 -12.09375 C 20.519531 -10.320312 22.742188 -9.4375 25.671875 -9.4375 C 28.585938 -9.4375 30.816406 -10.320312 32.359375 -12.09375 C 33.898438 -13.863281 34.671875 -16.25 34.671875 -19.25 L 34.671875 -23.203125 C 34.671875 -26.203125 33.898438 -28.585938 32.359375 -30.359375 C 30.816406 -32.128906 28.585938 -33.015625 25.671875 -33.015625 Z M 25.671875 -33.015625 "/></g></g></g><g fill="#2e3192" fill-opacity="1"><g transform="translate(653.554987, 107.285677)"><g><path d="M 34.921875 0 L 17.09375 -20.609375 L 17.09375 0 L 4.5625 0 L 4.5625 -42.453125 L 16.46875 -42.453125 L 34.3125 -21.53125 L 34.3125 -42.453125 L 46.828125 -42.453125 L 46.828125 0 Z M 34.921875 0 "/></g></g></g><g fill="#3871c1" fill-opacity="1"><g transform="translate(403.567822, 144.877015)"><g><path d="M 17.265625 0 L 14.84375 0 L 13.078125 -5.265625 L 4.90625 -5.265625 L 3.125 0 L 0.765625 0 L 7.453125 -19.171875 L 10.578125 -19.171875 Z M 8.828125 -16.859375 L 5.53125 -7.140625 L 12.4375 -7.140625 L 9.15625 -16.859375 Z M 8.828125 -16.859375 "/></g></g></g><g fill="#3871c1" fill-opacity="1"><g transform="translate(433.424151, 144.877015)"><g><path d="M 8.296875 0.28125 C 7.023438 0.28125 5.878906 -0.0078125 4.859375 -0.59375 C 3.847656 -1.175781 3.050781 -2.03125 2.46875 -3.15625 C 1.882812 -4.289062 1.59375 -5.644531 1.59375 -7.21875 C 1.59375 -8.800781 1.882812 -10.160156 2.46875 -11.296875 C 3.050781 -12.429688 3.847656 -13.285156 4.859375 -13.859375 C 5.878906 -14.441406 7.023438 -14.734375 8.296875 -14.734375 C 9.828125 -14.734375 11.046875 -14.445312 11.953125 -13.875 C 12.859375 -13.300781 13.515625 -12.53125 13.921875 -11.5625 L 12.453125 -10.515625 L 12.203125 -10.515625 C 11.804688 -11.316406 11.296875 -11.898438 10.671875 -12.265625 C 10.054688 -12.640625 9.265625 -12.828125 8.296875 -12.828125 C 7.410156 -12.828125 6.628906 -12.613281 5.953125 -12.1875 C 5.273438 -11.769531 4.75 -11.140625 4.375 -10.296875 C 4.007812 -9.460938 3.828125 -8.4375 3.828125 -7.21875 C 3.828125 -6.019531 4.015625 -5 4.390625 -4.15625 C 4.765625 -3.320312 5.285156 -2.691406 5.953125 -2.265625 C 6.628906 -1.847656 7.410156 -1.640625 8.296875 -1.640625 C 9.304688 -1.640625 10.140625 -1.863281 10.796875 -2.3125 C 11.460938 -2.769531 11.984375 -3.488281 12.359375 -4.46875 L 12.625 -4.46875 L 14.03125 -3.640625 C 13.65625 -2.429688 12.984375 -1.472656 12.015625 -0.765625 C 11.054688 -0.0664062 9.816406 0.28125 8.296875 0.28125 Z M 8.296875 0.28125 "/></g></g></g><g fill="#3871c1" fill-opacity="1"><g transform="translate(460.173735, 144.877015)"><g><path d="M 5.96875 0.28125 C 4.539062 0.28125 3.425781 -0.0859375 2.625 -0.828125 C 1.820312 -1.578125 1.421875 -2.644531 1.421875 -4.03125 C 1.421875 -4.882812 1.597656 -5.601562 1.953125 -6.1875 C 2.304688 -6.78125 2.851562 -7.265625 3.59375 -7.640625 C 4.34375 -8.015625 5.316406 -8.300781 6.515625 -8.5 C 7.566406 -8.675781 8.363281 -8.875 8.90625 -9.09375 C 9.457031 -9.3125 9.828125 -9.554688 10.015625 -9.828125 C 10.203125 -10.097656 10.296875 -10.4375 10.296875 -10.84375 C 10.296875 -11.5 10.066406 -12 9.609375 -12.34375 C 9.160156 -12.695312 8.441406 -12.875 7.453125 -12.875 C 6.515625 -12.875 5.710938 -12.691406 5.046875 -12.328125 C 4.378906 -11.972656 3.765625 -11.4375 3.203125 -10.71875 L 2.9375 -10.71875 L 1.890625 -12.203125 C 2.503906 -12.972656 3.28125 -13.585938 4.21875 -14.046875 C 5.164062 -14.503906 6.242188 -14.734375 7.453125 -14.734375 C 9.148438 -14.734375 10.40625 -14.359375 11.21875 -13.609375 C 12.03125 -12.867188 12.4375 -11.835938 12.4375 -10.515625 L 12.4375 -2.84375 C 12.4375 -2.039062 12.773438 -1.640625 13.453125 -1.640625 C 13.679688 -1.640625 13.898438 -1.675781 14.109375 -1.75 L 14.296875 -1.703125 L 14.546875 -0.21875 C 14.390625 -0.113281 14.179688 -0.0351562 13.921875 0.015625 C 13.660156 0.078125 13.394531 0.109375 13.125 0.109375 C 12.332031 0.109375 11.734375 -0.0625 11.328125 -0.40625 C 10.921875 -0.757812 10.660156 -1.28125 10.546875 -1.96875 L 10.265625 -2 C 9.859375 -1.238281 9.300781 -0.664062 8.59375 -0.28125 C 7.894531 0.09375 7.019531 0.28125 5.96875 0.28125 Z M 6.4375 -1.421875 C 7.238281 -1.421875 7.9375 -1.609375 8.53125 -1.984375 C 9.125 -2.359375 9.578125 -2.878906 9.890625 -3.546875 C 10.203125 -4.222656 10.359375 -5.003906 10.359375 -5.890625 L 10.359375 -7.71875 L 10.109375 -7.78125 C 9.785156 -7.550781 9.390625 -7.359375 8.921875 -7.203125 C 8.460938 -7.054688 7.816406 -6.921875 6.984375 -6.796875 C 6.148438 -6.679688 5.484375 -6.503906 4.984375 -6.265625 C 4.492188 -6.035156 4.144531 -5.738281 3.9375 -5.375 C 3.726562 -5.007812 3.625 -4.5625 3.625 -4.03125 C 3.625 -3.175781 3.867188 -2.523438 4.359375 -2.078125 C 4.859375 -1.640625 5.550781 -1.421875 6.4375 -1.421875 Z M 6.4375 -1.421875 "/></g></g></g><g fill="#3871c1" fill-opacity="1"><g transform="translate(486.975753, 144.877015)"><g><path d="M 7.5 0.28125 C 6.332031 0.28125 5.304688 0.00390625 4.421875 -0.546875 C 3.535156 -1.109375 2.84375 -1.945312 2.34375 -3.0625 C 1.84375 -4.1875 1.59375 -5.570312 1.59375 -7.21875 C 1.59375 -8.875 1.851562 -10.265625 2.375 -11.390625 C 2.894531 -12.515625 3.613281 -13.351562 4.53125 -13.90625 C 5.457031 -14.457031 6.53125 -14.734375 7.75 -14.734375 C 8.707031 -14.734375 9.570312 -14.550781 10.34375 -14.1875 C 11.113281 -13.832031 11.773438 -13.238281 12.328125 -12.40625 L 12.609375 -12.453125 L 12.609375 -20.28125 L 14.734375 -20.28125 L 14.734375 0 L 12.609375 0 L 12.609375 -2.109375 L 12.328125 -2.15625 C 11.859375 -1.445312 11.21875 -0.863281 10.40625 -0.40625 C 9.59375 0.0507812 8.625 0.28125 7.5 0.28125 Z M 8.171875 -1.640625 C 9.515625 -1.640625 10.585938 -2.097656 11.390625 -3.015625 C 12.203125 -3.941406 12.609375 -5.34375 12.609375 -7.21875 C 12.609375 -9.113281 12.203125 -10.519531 11.390625 -11.4375 C 10.585938 -12.363281 9.515625 -12.828125 8.171875 -12.828125 C 6.773438 -12.828125 5.703125 -12.375 4.953125 -11.46875 C 4.203125 -10.570312 3.828125 -9.15625 3.828125 -7.21875 C 3.828125 -3.5 5.273438 -1.640625 8.171875 -1.640625 Z M 8.171875 -1.640625 "/></g></g></g><g fill="#3871c1" fill-opacity="1"><g transform="translate(516.084898, 144.877015)"><g><path d="M 13.78125 -6.734375 L 3.84375 -6.734375 C 3.90625 -4.984375 4.328125 -3.695312 5.109375 -2.875 C 5.890625 -2.050781 6.960938 -1.640625 8.328125 -1.640625 C 9.359375 -1.640625 10.1875 -1.820312 10.8125 -2.1875 C 11.445312 -2.550781 11.941406 -3.128906 12.296875 -3.921875 L 12.578125 -3.921875 L 13.96875 -3.09375 C 13.550781 -2.039062 12.878906 -1.210938 11.953125 -0.609375 C 11.035156 -0.015625 9.828125 0.28125 8.328125 0.28125 C 6.929688 0.28125 5.726562 0.00390625 4.71875 -0.546875 C 3.71875 -1.097656 2.945312 -1.929688 2.40625 -3.046875 C 1.863281 -4.171875 1.59375 -5.5625 1.59375 -7.21875 C 1.59375 -8.863281 1.878906 -10.25 2.453125 -11.375 C 3.023438 -12.507812 3.804688 -13.351562 4.796875 -13.90625 C 5.785156 -14.457031 6.921875 -14.734375 8.203125 -14.734375 C 10.054688 -14.734375 11.5 -14.210938 12.53125 -13.171875 C 13.570312 -12.128906 14.097656 -10.582031 14.109375 -8.53125 C 14.109375 -7.71875 14.09375 -7.175781 14.0625 -6.90625 Z M 12 -8.53125 C 11.96875 -10.0625 11.625 -11.175781 10.96875 -11.875 C 10.320312 -12.582031 9.398438 -12.9375 8.203125 -12.9375 C 6.929688 -12.9375 5.929688 -12.582031 5.203125 -11.875 C 4.484375 -11.164062 4.046875 -10.050781 3.890625 -8.53125 Z M 12 -8.53125 "/></g></g></g><g fill="#3871c1" fill-opacity="1"><g transform="translate(543.345709, 144.877015)"><g><path d="M 2.515625 0 L 2.515625 -14.46875 L 4.546875 -14.46875 L 4.546875 -12.328125 L 4.828125 -12.28125 C 5.316406 -13.09375 5.90625 -13.703125 6.59375 -14.109375 C 7.289062 -14.523438 8.128906 -14.734375 9.109375 -14.734375 C 10.222656 -14.734375 11.082031 -14.519531 11.6875 -14.09375 C 12.300781 -13.675781 12.78125 -12.992188 13.125 -12.046875 L 13.40625 -12.046875 C 13.90625 -12.929688 14.519531 -13.597656 15.25 -14.046875 C 15.976562 -14.503906 16.875 -14.734375 17.9375 -14.734375 C 19.425781 -14.734375 20.535156 -14.332031 21.265625 -13.53125 C 21.992188 -12.726562 22.359375 -11.503906 22.359375 -9.859375 L 22.359375 0 L 20.21875 0 L 20.21875 -9.8125 C 20.21875 -10.863281 20 -11.632812 19.5625 -12.125 C 19.125 -12.625 18.414062 -12.875 17.4375 -12.875 C 16.28125 -12.875 15.335938 -12.453125 14.609375 -11.609375 C 13.878906 -10.773438 13.515625 -9.394531 13.515625 -7.46875 L 13.515625 0 L 11.375 0 L 11.375 -9.8125 C 11.375 -10.863281 11.148438 -11.632812 10.703125 -12.125 C 10.265625 -12.625 9.554688 -12.875 8.578125 -12.875 C 7.421875 -12.875 6.476562 -12.46875 5.75 -11.65625 C 5.019531 -10.84375 4.65625 -9.523438 4.65625 -7.703125 L 4.65625 0 Z M 2.515625 0 "/></g></g></g><g fill="#3871c1" fill-opacity="1"><g transform="translate(579.835027, 144.877015)"><g><path d="M 2.890625 6.140625 C 2.398438 6.140625 1.941406 6.097656 1.515625 6.015625 C 1.097656 5.929688 0.738281 5.816406 0.4375 5.671875 L 0.828125 3.96875 L 1.0625 3.890625 C 1.269531 3.992188 1.53125 4.082031 1.84375 4.15625 C 2.164062 4.238281 2.488281 4.28125 2.8125 4.28125 C 3.40625 4.28125 3.894531 4.195312 4.28125 4.03125 C 4.664062 3.875 4.992188 3.613281 5.265625 3.25 C 5.535156 2.894531 5.789062 2.394531 6.03125 1.75 L 6.546875 0.34375 L 0.734375 -14.46875 L 3.046875 -14.46875 L 7.59375 -2.65625 L 7.84375 -2.65625 L 12.25 -14.46875 L 14.4375 -14.46875 L 7.96875 2.265625 C 7.601562 3.191406 7.191406 3.9375 6.734375 4.5 C 6.285156 5.0625 5.75 5.472656 5.125 5.734375 C 4.507812 6.003906 3.765625 6.140625 2.890625 6.140625 Z M 2.890625 6.140625 "/></g></g></g></svg>